<?xml version="1.0" encoding="utf-8"?>
<!-- created with bpmn-js / http://bpmn.io -->
<!DOCTYPE svg PUBLIC "-//W3C//DTD SVG 1.1//EN" "http://www.w3.org/Graphics/SVG/1.1/DTD/svg11.dtd">
<svg xmlns="http://www.w3.org/2000/svg" xmlns:xlink="http://www.w3.org/1999/xlink" width="830.0000610351562" height=" 866.15625" viewBox="62 -121.15625 830.0000610351562 771.15625" version="1.1"><defs><marker id="activity-black-black-4eheg3nfptofi4l67edpxxozz" viewBox="0 0 20 20" refX="11" refY="10" markerWidth="10" markerHeight="10" orient="auto"><path d="M 1 5 L 11 10 L 1 15 Z" style="fill: black; stroke-width: 1px; stroke-linecap: round; stroke-dasharray: 10000, 1; stroke: black;"/></marker></defs><g class="djs-group"><g class="djs-element djs-shape" style = "display:block" transform="translate(72 -86.15625)"><g class="djs-visual"><text lineHeight="1.2" class="djs-label" style="font-family: Arial, sans-serif; font-size: 30; font-weight: normal; fill: rgb(0, 0, 0);"><tspan x="8" y="10" font-size="30">Leasing - Risk Management (detailed, as-is)</tspan></text><text lineHeight="1.2" class="djs-label" style="font-family: Arial, sans-serif; font-size: 12; font-weight: normal; fill: rgb(0, 0, 0);"><tspan x="8" y="30" font-size="12">Assumptions: happy path</tspan></text></g></g></g><g class="djs-group"><g class="djs-element djs-shape" data-element-id="shape_0597" style="display: block;" transform="matrix(1 0 0 1 75 270)"><g class="djs-visual"><svg xmlns="http://www.w3.org/2000/svg" fill=" black" viewBox="0 0 24 26" width="75" height="75"><path d="M12 5.9c1.16 0 2.1.94 2.1 2.1s-.94 2.1-2.1 2.1S9.9 9.16 9.9 8s.94-2.1 2.1-2.1m0 9c2.97 0 6.1 1.46 6.1 2.1v1.1H5.9V17c0-.64 3.13-2.1 6.1-2.1M12 4C9.79 4 8 5.79 8 8s1.79 4 4 4 4-1.79 4-4-1.79-4-4-4zm0 9c-2.67 0-8 1.34-8 4v3h16v-3c0-2.66-5.33-4-8-4z"/><path d="M0 0h24v24H0z" fill="none"/></svg><text lineHeight="1.2" class="djs-label" style="font-family: Arial, sans-serif; font-size: 12px; font-weight: normal; fill: rgb(0, 0, 0);"><tspan x="2.53125" y="75">risk manager</tspan></text></g><rect class="djs-hit djs-hit-all" x="0" y="0" width="75" height="75" style="fill: none; stroke-opacity: 0; stroke: white; stroke-width: 15px;"/><rect x="-6" y="-6" width="87" height="87" class="djs-outline" style="fill: none;"/></g></g><g class="djs-group"><g class="djs-element djs-shape" data-element-id="shape_7174" style="display: block;" transform="matrix(1 0 0 1 526 50)"><g class="djs-visual"><svg xmlns="http://www.w3.org/2000/svg" fill=" black" width="48.75" height="48.75" viewBox="0 0 24 26" x="12.5" y="12.5"><path fill="none" d="M0 0h24v24H0V0z"/><path d="M8 16h8v2H8zm0-4h8v2H8zm6-10H6c-1.1 0-2 .9-2 2v16c0 1.1.89 2 1.99 2H18c1.1 0 2-.9 2-2V8l-6-6zm4 18H6V4h7v5h5v11z"/></svg><text lineHeight="1.2" class="djs-label" style="font-family: Arial, sans-serif; font-size: 12px; font-weight: normal; fill: rgb(0, 0, 0);"><tspan x="16.109375" y="74.75">contract</tspan></text></g><rect class="djs-hit djs-hit-all" x="0" y="0" width="75" height="75" style="fill: none; stroke-opacity: 0; stroke: white; stroke-width: 15px;"/><rect x="-6" y="-6" width="87" height="87" class="djs-outline" style="fill: none;"/></g></g><g class="djs-group"><g class="djs-element djs-shape" data-element-id="shape_8697" style="display: block;" transform="matrix(1 0 0 1 801 50)"><g class="djs-visual"><svg xmlns="http://www.w3.org/2000/svg" fill=" black" viewBox="0 0 24 26" width="75" height="75"><path d="M20,18c1.1,0,2-0.9,2-2V6c0-1.1-0.9-2-2-2H4C2.9,4,2,4.9,2,6v10c0,1.1,0.9,2,2,2H0v2h24v-2H20z M4,6h16v10H4V6z"/></svg><text lineHeight="1.2" class="djs-label" style="font-family: Arial, sans-serif; font-size: 12px; font-weight: normal; fill: rgb(0, 0, 0);"><tspan x="1.328125" y="75">rating agency</tspan></text></g><rect class="djs-hit djs-hit-all" x="0" y="0" width="75" height="75" style="fill: none; stroke-opacity: 0; stroke: white; stroke-width: 15px;"/><rect x="-6" y="-6" width="87" height="87" class="djs-outline" style="fill: none;"/></g></g><g class="djs-group"><g class="djs-element djs-shape" data-element-id="shape_6000" style="display: block;" transform="matrix(1 0 0 1 292 50)"><g class="djs-visual"><svg xmlns="http://www.w3.org/2000/svg" fill=" black" width="48.75" height="48.75" viewBox="0 0 24 26" x="12.5" y="12.5"><path fill="none" d="M0 0h24v24H0V0z"/><path d="M8 16h8v2H8zm0-4h8v2H8zm6-10H6c-1.1 0-2 .9-2 2v16c0 1.1.89 2 1.99 2H18c1.1 0 2-.9 2-2V8l-6-6zm4 18H6V4h7v5h5v11z"/></svg><text lineHeight="1.2" class="djs-label" style="font-family: Arial, sans-serif; font-size: 12px; font-weight: normal; fill: rgb(0, 0, 0);"><tspan x="6.1484375" y="74.75">credit rating </tspan><tspan x="25.7890625" y="88.75">form</tspan></text></g><rect class="djs-hit djs-hit-all" x="0" y="0" width="75" height="75" style="fill: none; stroke-opacity: 0; stroke: white; stroke-width: 15px;"/><rect x="-6" y="-6" width="87" height="87" class="djs-outline" style="fill: none;"/></g></g><g class="djs-group"><g class="djs-element djs-shape" data-element-id="shape_8017" style="display: block;" transform="matrix(1 0 0 1 526 137)"><g class="djs-visual"><svg xmlns="http://www.w3.org/2000/svg" fill=" black" width="48.75" height="48.75" viewBox="0 0 24 26" x="12.5" y="12.5"><path fill="none" d="M0 0h24v24H0V0z"/><path d="M8 16h8v2H8zm0-4h8v2H8zm6-10H6c-1.1 0-2 .9-2 2v16c0 1.1.89 2 1.99 2H18c1.1 0 2-.9 2-2V8l-6-6zm4 18H6V4h7v5h5v11z"/></svg><text lineHeight="1.2" class="djs-label" style="font-family: Arial, sans-serif; font-size: 12px; font-weight: normal; fill: rgb(0, 0, 0);"><tspan x="6.1484375" y="74.75">credit rating </tspan><tspan x="4.15625" y="88.75">report (PDF)</tspan></text></g><rect class="djs-hit djs-hit-all" x="0" y="0" width="75" height="75" style="fill: none; stroke-opacity: 0; stroke: white; stroke-width: 15px;"/><rect x="-6" y="-6" width="87" height="87" class="djs-outline" style="fill: none;"/></g></g><g class="djs-group"><g class="djs-element djs-shape" data-element-id="shape_1361" style="display: block;" transform="matrix(1 0 0 1 811 288)"><g class="djs-visual"><svg xmlns="http://www.w3.org/2000/svg" fill=" black" viewBox="0 0 24 26" width="75" height="75"><path d="M20,18c1.1,0,2-0.9,2-2V6c0-1.1-0.9-2-2-2H4C2.9,4,2,4.9,2,6v10c0,1.1,0.9,2,2,2H0v2h24v-2H20z M4,6h16v10H4V6z"/></svg><text lineHeight="1.2" class="djs-label" style="font-family: Arial, sans-serif; font-size: 12px; font-weight: normal; fill: rgb(0, 0, 0);"><tspan x="28.0234375" y="75">risk </tspan><tspan x="2.4296875" y="89">management </tspan><tspan x="18.4921875" y="103">system</tspan></text></g><rect class="djs-hit djs-hit-all" x="0" y="0" width="75" height="75" style="fill: none; stroke-opacity: 0; stroke: white; stroke-width: 15px;"/><rect x="-6" y="-6" width="87" height="87" class="djs-outline" style="fill: none;"/></g></g><g class="djs-group"><g class="djs-element djs-shape" data-element-id="shape_8582" style="display: block;" transform="matrix(1 0 0 1 392 270)"><g class="djs-visual"><svg xmlns="http://www.w3.org/2000/svg" fill=" black" width="48.75" height="48.75" viewBox="0 0 24 26" x="12.5" y="12.5"><path fill="none" d="M0 0h24v24H0V0z"/><path d="M8 16h8v2H8zm0-4h8v2H8zm6-10H6c-1.1 0-2 .9-2 2v16c0 1.1.89 2 1.99 2H18c1.1 0 2-.9 2-2V8l-6-6zm4 18H6V4h7v5h5v11z"/></svg><text lineHeight="1.2" class="djs-label" style="font-family: Arial, sans-serif; font-size: 12px; font-weight: normal; fill: rgb(0, 0, 0);"><tspan x="12.53125" y="74.75">customer </tspan><tspan x="21.0625" y="88.75">profile</tspan></text></g><rect class="djs-hit djs-hit-all" x="0" y="0" width="75" height="75" style="fill: none; stroke-opacity: 0; stroke: white; stroke-width: 15px;"/><rect x="-6" y="-6" width="87" height="87" class="djs-outline" style="fill: none;"/></g></g><g class="djs-group"><g class="djs-element djs-shape" data-element-id="shape_5763" style="display: block;" transform="matrix(1 0 0 1 560 270)"><g class="djs-visual"><svg xmlns="http://www.w3.org/2000/svg" fill=" black" width="48.75" height="48.75" viewBox="0 0 24 26" x="12.5" y="12.5"><path fill="none" d="M0 0h24v24H0V0z"/><path d="M8 16h8v2H8zm0-4h8v2H8zm6-10H6c-1.1 0-2 .9-2 2v16c0 1.1.89 2 1.99 2H18c1.1 0 2-.9 2-2V8l-6-6zm4 18H6V4h7v5h5v11z"/></svg><text lineHeight="1.2" class="djs-label" style="font-family: Arial, sans-serif; font-size: 12px; font-weight: normal; fill: rgb(0, 0, 0);"><tspan x="16.109375" y="74.75">contract</tspan></text></g><rect class="djs-hit djs-hit-all" x="0" y="0" width="75" height="75" style="fill: none; stroke-opacity: 0; stroke: white; stroke-width: 15px;"/><rect x="-6" y="-6" width="87" height="87" class="djs-outline" style="fill: none;"/></g></g><g class="djs-group"><g class="djs-element djs-shape" data-element-id="shape_4932" style="display: block;" transform="matrix(1 0 0 1 398 407)"><g class="djs-visual"><svg xmlns="http://www.w3.org/2000/svg" fill=" black" width="48.75" height="48.75" viewBox="0 0 24 26" x="12.5" y="12.5"><path fill="none" d="M0 0h24v24H0V0z"/><path d="M8 16h8v2H8zm0-4h8v2H8zm6-10H6c-1.1 0-2 .9-2 2v16c0 1.1.89 2 1.99 2H18c1.1 0 2-.9 2-2V8l-6-6zm4 18H6V4h7v5h5v11z"/></svg><text lineHeight="1.2" class="djs-label" style="font-family: Arial, sans-serif; font-size: 12px; font-weight: normal; fill: rgb(0, 0, 0);"><tspan x="0" y="74.75">risk assesment</tspan></text></g><rect class="djs-hit djs-hit-all" x="0" y="0" width="75" height="75" style="fill: none; stroke-opacity: 0; stroke: white; stroke-width: 15px;"/><rect x="-6" y="-6" width="87" height="87" class="djs-outline" style="fill: none;"/></g></g><g class="djs-group"><g class="djs-element djs-shape" data-element-id="shape_4750" style="display: block;" transform="matrix(1 0 0 1 513 407)"><g class="djs-visual"><svg xmlns="http://www.w3.org/2000/svg" fill=" black" width="48.75" height="48.75" viewBox="0 0 24 26" x="12.5" y="12.5"><path fill="none" d="M0 0h24v24H0V0z"/><path d="M8 16h8v2H8zm0-4h8v2H8zm6-10H6c-1.1 0-2 .9-2 2v16c0 1.1.89 2 1.99 2H18c1.1 0 2-.9 2-2V8l-6-6zm4 18H6V4h7v5h5v11z"/></svg><text lineHeight="1.2" class="djs-label" style="font-family: Arial, sans-serif; font-size: 12px; font-weight: normal; fill: rgb(0, 0, 0);"><tspan x="16.109375" y="74.75">contract</tspan></text></g><rect class="djs-hit djs-hit-all" x="0" y="0" width="75" height="75" style="fill: none; stroke-opacity: 0; stroke: white; stroke-width: 15px;"/><rect x="-6" y="-6" width="87" height="87" class="djs-outline" style="fill: none;"/></g></g><g class="djs-group"><g class="djs-element djs-shape" data-element-id="shape_3732" style="display: block;" transform="matrix(1 0 0 1 652 407)"><g class="djs-visual"><svg xmlns="http://www.w3.org/2000/svg" fill=" black" width="48.75" height="48.75" viewBox="0 0 24 26" x="12.5" y="12.5"><path fill="none" d="M0 0h24v24H0V0z"/><path d="M8 16h8v2H8zm0-4h8v2H8zm6-10H6c-1.1 0-2 .9-2 2v16c0 1.1.89 2 1.99 2H18c1.1 0 2-.9 2-2V8l-6-6zm4 18H6V4h7v5h5v11z"/></svg><text lineHeight="1.2" class="djs-label" style="font-family: Arial, sans-serif; font-size: 12px; font-weight: normal; fill: rgb(0, 0, 0);"><tspan x="6.1484375" y="74.75">credit rating </tspan><tspan x="4.15625" y="88.75">report (PDF)</tspan></text></g><rect class="djs-hit djs-hit-all" x="0" y="0" width="75" height="75" style="fill: none; stroke-opacity: 0; stroke: white; stroke-width: 15px;"/><rect x="-6" y="-6" width="87" height="87" class="djs-outline" style="fill: none;"/></g></g><g class="djs-group"><g class="djs-element djs-shape" data-element-id="shape_4527" style="display: block;" transform="matrix(1 0 0 1 392 514)"><g class="djs-visual"><svg xmlns="http://www.w3.org/2000/svg" fill=" black" width="48.75" height="48.75" viewBox="0 0 24 26" x="12.5" y="12.5"><path fill="none" d="M0 0h24v24H0V0z"/><path d="M15 18.5c-2.51 0-4.68-1.42-5.76-3.5H15v-2H8.58c-.05-.33-.08-.66-.08-1s.03-.67.08-1H15V9H9.24C10.32 6.92 12.5 5.5 15 5.5c1.61 0 3.09.59 4.23 1.57L21 5.3C19.41 3.87 17.3 3 15 3c-3.92 0-7.24 2.51-8.48 6H3v2h3.06c-.04.33-.06.66-.06 1s.02.67.06 1H3v2h3.52c1.24 3.49 4.56 6 8.48 6 2.31 0 4.41-.87 6-2.3l-1.78-1.77c-1.13.98-2.6 1.57-4.22 1.57z"/></svg><text lineHeight="1.2" class="djs-label" style="font-family: Arial, sans-serif; font-size: 12px; font-weight: normal; fill: rgb(0, 0, 0);"><tspan x="5.0546875" y="74.75">resale value</tspan></text></g><rect class="djs-hit djs-hit-all" x="0" y="0" width="75" height="75" style="fill: none; stroke-opacity: 0; stroke: white; stroke-width: 15px;"/><rect x="-6" y="-6" width="87" height="87" class="djs-outline" style="fill: none;"/></g></g><g class="djs-group"><g class="djs-element djs-shape" data-element-id="shape_9689" style="display: block;" transform="matrix(1 0 0 1 392 610)"><g class="djs-visual"><svg xmlns="http://www.w3.org/2000/svg" fill=" black" width="48.75" height="48.75" viewBox="0 0 24 28" x="12.5" y="12.5"><path fill="none" d="M0 0h24v24H0V0zm0 0h24v24H0V0z"/><path d="M12 6c0-.55-.45-1-1-1H5.82l.66-3.18.02-.23c0-.31-.13-.59-.33-.8L5.38 0 .44 4.94C.17 5.21 0 5.59 0 6v6.5c0 .83.67 1.5 1.5 1.5h6.75c.62 0 1.15-.38 1.38-.91l2.26-5.29c.07-.17.11-.36.11-.55V6zm-2 1.13L7.92 12H2V6.21l1.93-1.93L3.36 7H10v.13zM22.5 10h-6.75c-.62 0-1.15.38-1.38.91l-2.26 5.29c-.07.17-.11.36-.11.55V18c0 .55.45 1 1 1h5.18l-.66 3.18-.02.24c0 .31.13.59.33.8l.79.78 4.94-4.94c.27-.27.44-.65.44-1.06v-6.5c0-.83-.67-1.5-1.5-1.5zm-.5 7.79l-1.93 1.93.57-2.72H14v-.13L16.08 12H22v5.79z"/></svg><text lineHeight="1.2" class="djs-label" style="font-family: Arial, sans-serif; font-size: 12px; font-weight: normal; fill: rgb(0, 0, 0);"><tspan x="5.1015625" y="74.75">voting result</tspan></text></g><rect class="djs-hit djs-hit-all" x="0" y="0" width="75" height="75" style="fill: none; stroke-opacity: 0; stroke: white; stroke-width: 15px;"/><rect x="-6" y="-6" width="87" height="87" class="djs-outline" style="fill: none;"/></g></g><g class="djs-group"><g class="djs-element djs-shape" data-element-id="shape_8272" style="display: block;" transform="matrix(1 0 0 1 513 610)"><g class="djs-visual"><svg xmlns="http://www.w3.org/2000/svg" fill=" black" width="48.75" height="48.75" viewBox="0 0 24 26" x="12.5" y="12.5"><path fill="none" d="M0 0h24v24H0V0z"/><path d="M8 16h8v2H8zm0-4h8v2H8zm6-10H6c-1.1 0-2 .9-2 2v16c0 1.1.89 2 1.99 2H18c1.1 0 2-.9 2-2V8l-6-6zm4 18H6V4h7v5h5v11z"/></svg><text lineHeight="1.2" class="djs-label" style="font-family: Arial, sans-serif; font-size: 12px; font-weight: normal; fill: rgb(0, 0, 0);"><tspan x="0" y="74.75">risk assesment</tspan></text></g><rect class="djs-hit djs-hit-all" x="0" y="0" width="75" height="75" style="fill: none; stroke-opacity: 0; stroke: white; stroke-width: 15px;"/><rect x="-6" y="-6" width="87" height="87" class="djs-outline" style="fill: none;"/></g></g><g class="djs-group"><g class="djs-element djs-shape" data-element-id="shape_3499" style="display: block;" transform="matrix(1 0 0 1 75 619)"><g class="djs-visual"><svg xmlns="http://www.w3.org/2000/svg" fill=" black" width="48.75" height="48.75" viewBox="0 0 24 26" x="12.5" y="12.5"><path fill="none" d="M0 0h24v24H0V0z"/><path d="M8 16h8v2H8zm0-4h8v2H8zm6-10H6c-1.1 0-2 .9-2 2v16c0 1.1.89 2 1.99 2H18c1.1 0 2-.9 2-2V8l-6-6zm4 18H6V4h7v5h5v11z"/></svg><text lineHeight="1.2" class="djs-label" style="font-family: Arial, sans-serif; font-size: 12px; font-weight: normal; fill: rgb(0, 0, 0);"><tspan x="0" y="74.75">voted contract</tspan></text></g><rect class="djs-hit djs-hit-all" x="0" y="0" width="75" height="75" style="fill: none; stroke-opacity: 0; stroke: white; stroke-width: 15px;"/><rect x="-6" y="-6" width="87" height="87" class="djs-outline" style="fill: none;"/></g></g><g class="djs-group"><g class="djs-element djs-connection" data-element-id="connection_6520" style="display: block;"><g class="djs-visual"><polyline points="113,270 113,88 292,88 " style="stroke: black; fill: none; stroke-width: 1.5px; stroke-linejoin: round; marker-end: url('#activity-black-black-4eheg3nfptofi4l67edpxxozz');"/><text lineHeight="1.2" wordWrap="break-word" overflowWrap="break-word" hyphens="auto" class="djs-label" style="font-family: Arial, sans-serif; font-size: 11px; font-weight: normal; fill: black;"><tspan x="173.55" y="103">fills out</tspan></text><text lineHeight="1.2" position="absolute" class="djs-labelNumber" style="font-family: Courier; font-size: 150px; font-weight: normal; fill: rgb(66, 174, 187);"><tspan x="151.5" y="84">.</tspan></text><text lineHeight="1.2" backgroundColor="green" position="absolute" class="djs-labelNumber" style="font-family: Arial, sans-serif; font-size: 11px; font-weight: normal; fill: white;"><tspan x="190.5" y="79">01</tspan></text></g><polyline points="113,270 113,88 292,88 " class="djs-hit djs-hit-stroke" style="fill: none; stroke-opacity: 0; stroke: white; stroke-width: 15px;"/><rect x="107" y="82" width="191" height="194" class="djs-outline" style="fill: none;"/></g></g><g class="djs-group"><g class="djs-element djs-connection" data-element-id="connection_7259" style="display: block;"><g class="djs-visual"><polyline points="140,352 392,552 " style="stroke: black; fill: none; stroke-width: 1.5px; stroke-linejoin: round; marker-end: url('#activity-black-black-4eheg3nfptofi4l67edpxxozz');"/><text lineHeight="1.2" wordWrap="break-word" overflowWrap="break-word" hyphens="auto" class="djs-label" style="font-family: Arial, sans-serif; font-size: 11px; font-weight: normal; fill: black;"><tspan x="276.4062169151771" y="446.27081127678474">calculates</tspan></text><text lineHeight="1.2" position="absolute" class="djs-labelNumber" style="font-family: Courier; font-size: 150px; font-weight: normal; fill: rgb(66, 174, 187);"><tspan x="211.40621691517708" y="427.27081127678474">.</tspan></text><text lineHeight="1.2" backgroundColor="green" position="absolute" class="djs-labelNumber" style="font-family: Arial, sans-serif; font-size: 11px; font-weight: normal; fill: white;"><tspan x="250.40621691517708" y="422.27081127678474">05</tspan></text></g><polyline points="140,352 392,552 " class="djs-hit djs-hit-stroke" style="fill: none; stroke-opacity: 0; stroke: white; stroke-width: 15px;"/><rect x="134" y="346" width="264" height="212" class="djs-outline" style="fill: none;"/></g></g><g class="djs-group"><g class="djs-element djs-connection" data-element-id="connection_8289" style="display: block;"><g class="djs-visual"><polyline points="113,355 113,619 " style="stroke: black; fill: none; stroke-width: 1.5px; stroke-linejoin: round; marker-end: url('#activity-black-black-4eheg3nfptofi4l67edpxxozz');"/><text lineHeight="1.2" wordWrap="break-word" overflowWrap="break-word" hyphens="auto" class="djs-label" style="font-family: Arial, sans-serif; font-size: 11px; font-weight: normal; fill: black;"><tspan x="127" y="487">signs</tspan></text><text lineHeight="1.2" position="absolute" class="djs-labelNumber" style="font-family: Courier; font-size: 150px; font-weight: normal; fill: rgb(66, 174, 187);"><tspan x="62" y="468">.</tspan></text><text lineHeight="1.2" backgroundColor="green" position="absolute" class="djs-labelNumber" style="font-family: Arial, sans-serif; font-size: 11px; font-weight: normal; fill: white;"><tspan x="101" y="463">07</tspan></text></g><polyline points="113,355 113,619 " class="djs-hit djs-hit-stroke" style="fill: none; stroke-opacity: 0; stroke: white; stroke-width: 15px;"/><rect x="107" y="349" width="12" height="276" class="djs-outline" style="fill: none;"/></g></g><g class="djs-group"><g class="djs-element djs-connection" data-element-id="connection_9239" style="display: block;"><g class="djs-visual"><polyline points="526,186 141,294 " style="stroke: black; fill: none; stroke-width: 1.5px; stroke-linejoin: round; marker-end: url('#activity-black-black-4eheg3nfptofi4l67edpxxozz');"/></g><polyline points="526,186 141,294 " class="djs-hit djs-hit-stroke" style="fill: none; stroke-opacity: 0; stroke: white; stroke-width: 15px;"/><rect x="135" y="180" width="397" height="120" class="djs-outline" style="fill: none;"/></g></g><g class="djs-group"><g class="djs-element djs-connection" data-element-id="connection_3993" style="display: block;"><g class="djs-visual"><polyline points="155,308 392,308 " style="stroke: black; fill: none; stroke-width: 1.5px; stroke-linejoin: round; marker-end: url('#activity-black-black-4eheg3nfptofi4l67edpxxozz');"/><text lineHeight="1.2" wordWrap="break-word" overflowWrap="break-word" hyphens="auto" class="djs-label" style="font-family: Arial, sans-serif; font-size: 11px; font-weight: normal; fill: black;"><tspan x="249.65" y="323">creates</tspan></text><text lineHeight="1.2" position="absolute" class="djs-labelNumber" style="font-family: Courier; font-size: 150px; font-weight: normal; fill: rgb(66, 174, 187);"><tspan x="222.5" y="304">.</tspan></text><text lineHeight="1.2" backgroundColor="green" position="absolute" class="djs-labelNumber" style="font-family: Arial, sans-serif; font-size: 11px; font-weight: normal; fill: white;"><tspan x="261.5" y="299">03</tspan></text></g><polyline points="155,308 392,308 " class="djs-hit djs-hit-stroke" style="fill: none; stroke-opacity: 0; stroke: white; stroke-width: 15px;"/><rect x="149" y="302" width="249" height="12" class="djs-outline" style="fill: none;"/></g></g><g class="djs-group"><g class="djs-element djs-connection" data-element-id="connection_4487" style="display: block;"><g class="djs-visual"><polyline points="373,88 526,88 " style="stroke: black; fill: none; stroke-width: 1.5px; stroke-linejoin: round; marker-end: url('#activity-black-black-4eheg3nfptofi4l67edpxxozz');"/><text lineHeight="1.2" wordWrap="break-word" overflowWrap="break-word" hyphens="auto" class="djs-label" style="font-family: Arial, sans-serif; font-size: 11px; font-weight: normal; fill: black;"><tspan x="389.95" y="103">with information from</tspan></text></g><polyline points="373,88 526,88 " class="djs-hit djs-hit-stroke" style="fill: none; stroke-opacity: 0; stroke: white; stroke-width: 15px;"/><rect x="367" y="82" width="165" height="12" class="djs-outline" style="fill: none;"/></g></g><g class="djs-group"><g class="djs-element djs-connection" data-element-id="connection_3485" style="display: block;"><g class="djs-visual"><polyline points="607,88 801,88 " style="stroke: black; fill: none; stroke-width: 1.5px; stroke-linejoin: round; marker-end: url('#activity-black-black-4eheg3nfptofi4l67edpxxozz');"/></g><polyline points="607,88 801,88 " class="djs-hit djs-hit-stroke" style="fill: none; stroke-opacity: 0; stroke: white; stroke-width: 15px;"/><rect x="601" y="82" width="206" height="12" class="djs-outline" style="fill: none;"/></g></g><g class="djs-group"><g class="djs-element djs-connection" data-element-id="connection_2361" style="display: block;"><g class="djs-visual"><polyline points="801,100 596,165 " style="stroke: black; fill: none; stroke-width: 1.5px; stroke-linejoin: round; marker-end: url('#activity-black-black-4eheg3nfptofi4l67edpxxozz');"/><text lineHeight="1.2" wordWrap="break-word" overflowWrap="break-word" hyphens="auto" class="djs-label" style="font-family: Arial, sans-serif; font-size: 11px; font-weight: normal; fill: black;"><tspan x="713.4773569201212" y="141.6358584792728">generates</tspan></text><text lineHeight="1.2" position="absolute" class="djs-labelNumber" style="font-family: Courier; font-size: 150px; font-weight: normal; fill: rgb(66, 174, 187);"><tspan x="648.4773569201212" y="122.6358584792728">.</tspan></text><text lineHeight="1.2" backgroundColor="green" position="absolute" class="djs-labelNumber" style="font-family: Arial, sans-serif; font-size: 11px; font-weight: normal; fill: white;"><tspan x="687.4773569201212" y="117.6358584792728">02</tspan></text></g><polyline points="801,100 596,165 " class="djs-hit djs-hit-stroke" style="fill: none; stroke-opacity: 0; stroke: white; stroke-width: 15px;"/><rect x="590" y="94" width="217" height="77" class="djs-outline" style="fill: none;"/></g></g><g class="djs-group"><g class="djs-element djs-connection" data-element-id="connection_0003" style="display: block;"><g class="djs-visual"><polyline points="472,308 560,308 " style="stroke: black; fill: none; stroke-width: 1.5px; stroke-linejoin: round; marker-end: url('#activity-black-black-4eheg3nfptofi4l67edpxxozz');"/><text lineHeight="1.2" wordWrap="break-word" overflowWrap="break-word" hyphens="auto" class="djs-label" style="font-family: Arial, sans-serif; font-size: 11px; font-weight: normal; fill: black;"><tspan x="499.8" y="323">from</tspan></text></g><polyline points="472,308 560,308 " class="djs-hit djs-hit-stroke" style="fill: none; stroke-opacity: 0; stroke: white; stroke-width: 15px;"/><rect x="466" y="302" width="100" height="12" class="djs-outline" style="fill: none;"/></g></g><g class="djs-group"><g class="djs-element djs-connection" data-element-id="connection_8693" style="display: block;"><g class="djs-visual"><polyline points="641,309 811,311 " style="stroke: black; fill: none; stroke-width: 1.5px; stroke-linejoin: round; marker-end: url('#activity-black-black-4eheg3nfptofi4l67edpxxozz');"/><text lineHeight="1.2" wordWrap="break-word" overflowWrap="break-word" hyphens="auto" class="djs-label" style="font-family: Arial, sans-serif; font-size: 11px; font-weight: normal; fill: black;"><tspan x="730.1123394829974" y="300.07489298866494">in</tspan></text></g><polyline points="641,309 811,311 " class="djs-hit djs-hit-stroke" style="fill: none; stroke-opacity: 0; stroke: white; stroke-width: 15px;"/><rect x="635" y="303" width="182" height="14" class="djs-outline" style="fill: none;"/></g></g><g class="djs-group"><g class="djs-element djs-connection" data-element-id="connection_9286" style="display: block;"><g class="djs-visual"><polyline points="149,323 398,429 " style="stroke: black; fill: none; stroke-width: 1.5px; stroke-linejoin: round; marker-end: url('#activity-black-black-4eheg3nfptofi4l67edpxxozz');"/><text lineHeight="1.2" wordWrap="break-word" overflowWrap="break-word" hyphens="auto" class="djs-label" style="font-family: Arial, sans-serif; font-size: 11px; font-weight: normal; fill: black;"><tspan x="281.34326513934064" y="368.56217675956043">creates</tspan></text><text lineHeight="1.2" position="absolute" class="djs-labelNumber" style="font-family: Courier; font-size: 150px; font-weight: normal; fill: rgb(66, 174, 187);"><tspan x="216.34326513934064" y="349.56217675956043">.</tspan></text><text lineHeight="1.2" backgroundColor="green" position="absolute" class="djs-labelNumber" style="font-family: Arial, sans-serif; font-size: 11px; font-weight: normal; fill: white;"><tspan x="255.34326513934064" y="344.56217675956043">04</tspan></text></g><polyline points="149,323 398,429 " class="djs-hit djs-hit-stroke" style="fill: none; stroke-opacity: 0; stroke: white; stroke-width: 15px;"/><rect x="143" y="317" width="261" height="118" class="djs-outline" style="fill: none;"/></g></g><g class="djs-group"><g class="djs-element djs-connection" data-element-id="connection_1238" style="display: block;"><g class="djs-visual"><polyline points="714,426 811,350 " style="stroke: black; fill: none; stroke-width: 1.5px; stroke-linejoin: round; marker-end: url('#activity-black-black-4eheg3nfptofi4l67edpxxozz');"/><text lineHeight="1.2" wordWrap="break-word" overflowWrap="break-word" hyphens="auto" class="djs-label" style="font-family: Arial, sans-serif; font-size: 11px; font-weight: normal; fill: black;"><tspan x="775.1535196064058" y="396.65351960640584">in</tspan></text></g><polyline points="714,426 811,350 " class="djs-hit djs-hit-stroke" style="fill: none; stroke-opacity: 0; stroke: white; stroke-width: 15px;"/><rect x="708" y="344" width="109" height="88" class="djs-outline" style="fill: none;"/></g></g><g class="djs-group"><g class="djs-element djs-connection" data-element-id="connection_7776" style="display: block;"><g class="djs-visual"><polyline points="478,445 513,445 " style="stroke: black; fill: none; stroke-width: 1.5px; stroke-linejoin: round; marker-end: url('#activity-black-black-4eheg3nfptofi4l67edpxxozz');"/><text lineHeight="1.2" wordWrap="break-word" overflowWrap="break-word" hyphens="auto" class="djs-label" style="font-family: Arial, sans-serif; font-size: 11px; font-weight: normal; fill: black;"><tspan x="479.3" y="460">from</tspan></text></g><polyline points="478,445 513,445 " class="djs-hit djs-hit-stroke" style="fill: none; stroke-opacity: 0; stroke: white; stroke-width: 15px;"/><rect x="472" y="439" width="47" height="12" class="djs-outline" style="fill: none;"/></g></g><g class="djs-group"><g class="djs-element djs-connection" data-element-id="connection_8264" style="display: block;"><g class="djs-visual"><polyline points="593,445 652,445 " style="stroke: black; fill: none; stroke-width: 1.5px; stroke-linejoin: round; marker-end: url('#activity-black-black-4eheg3nfptofi4l67edpxxozz');"/><text lineHeight="1.2" wordWrap="break-word" overflowWrap="break-word" hyphens="auto" class="djs-label" style="font-family: Arial, sans-serif; font-size: 11px; font-weight: normal; fill: black;"><tspan x="596.1" y="460">and from</tspan></text></g><polyline points="593,445 652,445 " class="djs-hit djs-hit-stroke" style="fill: none; stroke-opacity: 0; stroke: white; stroke-width: 15px;"/><rect x="587" y="439" width="71" height="12" class="djs-outline" style="fill: none;"/></g></g><g class="djs-group"><g class="djs-element djs-connection" data-element-id="connection_6227" style="display: block;"><g class="djs-visual"><polyline points="473,552 718,552 833,406 " style="stroke: black; fill: none; stroke-width: 1.5px; stroke-linejoin: round; marker-end: url('#activity-black-black-4eheg3nfptofi4l67edpxxozz');"/></g><polyline points="473,552 718,552 833,406 " class="djs-hit djs-hit-stroke" style="fill: none; stroke-opacity: 0; stroke: white; stroke-width: 15px;"/><rect x="467" y="400" width="372" height="158" class="djs-outline" style="fill: none;"/></g></g><g class="djs-group"><g class="djs-element djs-connection" data-element-id="connection_0978" style="display: block;"><g class="djs-visual"><polyline points="129,353 271,657 392,657 " style="stroke: black; fill: none; stroke-width: 1.5px; stroke-linejoin: round; marker-end: url('#activity-black-black-4eheg3nfptofi4l67edpxxozz');"/><text lineHeight="1.2" wordWrap="break-word" overflowWrap="break-word" hyphens="auto" class="djs-label" style="font-family: Arial, sans-serif; font-size: 11px; font-weight: normal; fill: black;"><tspan x="300" y="672">decides on</tspan></text><text lineHeight="1.2" position="absolute" class="djs-labelNumber" style="font-family: Courier; font-size: 150px; font-weight: normal; fill: rgb(66, 174, 187);"><tspan x="280.5" y="653">.</tspan></text><text lineHeight="1.2" backgroundColor="green" position="absolute" class="djs-labelNumber" style="font-family: Arial, sans-serif; font-size: 11px; font-weight: normal; fill: white;"><tspan x="319.5" y="648">06</tspan></text></g><polyline points="129,353 271,657 392,657 " class="djs-hit djs-hit-stroke" style="fill: none; stroke-opacity: 0; stroke: white; stroke-width: 15px;"/><rect x="123" y="347" width="275" height="316" class="djs-outline" style="fill: none;"/></g></g><g class="djs-group"><g class="djs-element djs-connection" data-element-id="connection_3575" style="display: block;"><g class="djs-visual"><polyline points="473,648 513,648 " style="stroke: black; fill: none; stroke-width: 1.5px; stroke-linejoin: round; marker-end: url('#activity-black-black-4eheg3nfptofi4l67edpxxozz');"/><text lineHeight="1.2" wordWrap="break-word" overflowWrap="break-word" hyphens="auto" class="djs-label" style="font-family: Arial, sans-serif; font-size: 11px; font-weight: normal; fill: black;"><tspan x="479.35" y="663">for</tspan></text></g><polyline points="473,648 513,648 " class="djs-hit djs-hit-stroke" style="fill: none; stroke-opacity: 0; stroke: white; stroke-width: 15px;"/><rect x="467" y="642" width="52" height="12" class="djs-outline" style="fill: none;"/></g></g><g class="djs-group"><g class="djs-element djs-connection" data-element-id="connection_2265" style="display: block;"><g class="djs-visual"><polyline points="594,648 790,648 843,406 " style="stroke: black; fill: none; stroke-width: 1.5px; stroke-linejoin: round; marker-end: url('#activity-black-black-4eheg3nfptofi4l67edpxxozz');"/></g><polyline points="594,648 790,648 843,406 " class="djs-hit djs-hit-stroke" style="fill: none; stroke-opacity: 0; stroke: white; stroke-width: 15px;"/><rect x="588" y="400" width="261" height="254" class="djs-outline" style="fill: none;"/></g></g></svg>