<?xml version="1.0" encoding="utf-8"?>
<!-- created with bpmn-js / http://bpmn.io -->
<!DOCTYPE svg PUBLIC "-//W3C//DTD SVG 1.1//EN" "http://www.w3.org/Graphics/SVG/1.1/DTD/svg11.dtd">
<svg xmlns="http://www.w3.org/2000/svg" xmlns:xlink="http://www.w3.org/1999/xlink" width="1110" height=" 902.15625" viewBox="69 -121.15625 1110 762.15625" version="1.1"><defs><marker id="activity-black-black-3kvg1nurlggb05rvw3ppcf6ej" viewBox="0 0 20 20" refX="11" refY="10" markerWidth="10" markerHeight="10" orient="auto"><path d="M 1 5 L 11 10 L 1 15 Z" style="fill: black; stroke-width: 1px; stroke-linecap: round; stroke-dasharray: 10000, 1; stroke: black;"/></marker></defs><g class="djs-group"><g class="djs-element djs-shape" style = "display:block" transform="translate(79 -131.15625)"><g class="djs-visual"><text lineHeight="1.2" class="djs-label" style="font-family: Arial, sans-serif; font-size: 30; font-weight: normal; fill: rgb(0, 0, 0);"><tspan x="8" y="55" font-size="30">Leasing - Risk Management (detailed, to-be)</tspan></text><text lineHeight="1.2" class="djs-label" style="font-family: Arial, sans-serif; font-size: 12; font-weight: normal; fill: rgb(0, 0, 0);"><tspan x="8" y="75" font-size="12">Assumptions: happy path</tspan></text></g></g></g><g class="djs-group"><g class="djs-element djs-shape" data-element-id="shape_1361" style="display: block;" transform="matrix(1 0 0 1 1098 288)"><g class="djs-visual"><svg xmlns="http://www.w3.org/2000/svg" fill=" black" viewBox="0 0 24 26" width="75" height="75"><path d="M20,18c1.1,0,2-0.9,2-2V6c0-1.1-0.9-2-2-2H4C2.9,4,2,4.9,2,6v10c0,1.1,0.9,2,2,2H0v2h24v-2H20z M4,6h16v10H4V6z"/></svg><text lineHeight="1.2" class="djs-label" style="font-family: Arial, sans-serif; font-size: 12px; font-weight: normal; fill: rgb(0, 0, 0);"><tspan x="28.0234375" y="75">risk </tspan><tspan x="2.4296875" y="89">management </tspan><tspan x="18.4921875" y="103">system</tspan></text></g><rect class="djs-hit djs-hit-all" x="0" y="0" width="75" height="75" style="fill: none; stroke-opacity: 0; stroke: white; stroke-width: 15px;"/><rect x="-6" y="-6" width="87" height="87" class="djs-outline" style="fill: none;"/></g></g><g class="djs-group"><g class="djs-element djs-shape" data-element-id="shape_4932" style="display: block;" transform="matrix(1 0 0 1 685 407)"><g class="djs-visual"><svg xmlns="http://www.w3.org/2000/svg" fill=" black" width="48.75" height="48.75" viewBox="0 0 24 26" x="12.5" y="12.5"><path fill="none" d="M0 0h24v24H0V0z"/><path d="M8 16h8v2H8zm0-4h8v2H8zm6-10H6c-1.1 0-2 .9-2 2v16c0 1.1.89 2 1.99 2H18c1.1 0 2-.9 2-2V8l-6-6zm4 18H6V4h7v5h5v11z"/></svg><text lineHeight="1.2" class="djs-label" style="font-family: Arial, sans-serif; font-size: 12px; font-weight: normal; fill: rgb(0, 0, 0);"><tspan x="0" y="74.75">risk assesment</tspan></text></g><rect class="djs-hit djs-hit-all" x="0" y="0" width="75" height="75" style="fill: none; stroke-opacity: 0; stroke: white; stroke-width: 15px;"/><rect x="-6" y="-6" width="87" height="87" class="djs-outline" style="fill: none;"/></g></g><g class="djs-group"><g class="djs-element djs-shape" data-element-id="shape_4750" style="display: block;" transform="matrix(1 0 0 1 800 407)"><g class="djs-visual"><svg xmlns="http://www.w3.org/2000/svg" fill=" black" width="48.75" height="48.75" viewBox="0 0 24 26" x="12.5" y="12.5"><path fill="none" d="M0 0h24v24H0V0z"/><path d="M8 16h8v2H8zm0-4h8v2H8zm6-10H6c-1.1 0-2 .9-2 2v16c0 1.1.89 2 1.99 2H18c1.1 0 2-.9 2-2V8l-6-6zm4 18H6V4h7v5h5v11z"/></svg><text lineHeight="1.2" class="djs-label" style="font-family: Arial, sans-serif; font-size: 12px; font-weight: normal; fill: rgb(0, 0, 0);"><tspan x="18.484375" y="74.75">leasing </tspan><tspan x="8.8125" y="88.75">application</tspan></text></g><rect class="djs-hit djs-hit-all" x="0" y="0" width="75" height="75" style="fill: none; stroke-opacity: 0; stroke: white; stroke-width: 15px;"/><rect x="-6" y="-6" width="87" height="87" class="djs-outline" style="fill: none;"/></g></g><g class="djs-group"><g class="djs-element djs-shape" data-element-id="shape_3732" style="display: block;" transform="matrix(1 0 0 1 939 407)"><g class="djs-visual"><svg xmlns="http://www.w3.org/2000/svg" fill=" black" width="48.75" height="48.75" viewBox="0 0 24 26" x="12.5" y="12.5"><path fill="none" d="M0 0h24v24H0V0z"/><path d="M8 16h8v2H8zm0-4h8v2H8zm6-10H6c-1.1 0-2 .9-2 2v16c0 1.1.89 2 1.99 2H18c1.1 0 2-.9 2-2V8l-6-6zm4 18H6V4h7v5h5v11z"/></svg><text lineHeight="1.2" class="djs-label" style="font-family: Arial, sans-serif; font-size: 12px; font-weight: normal; fill: rgb(0, 0, 0);"><tspan x="6.1484375" y="74.75">credit rating </tspan><tspan x="4.15625" y="88.75">report (PDF)</tspan></text></g><rect class="djs-hit djs-hit-all" x="0" y="0" width="75" height="75" style="fill: none; stroke-opacity: 0; stroke: white; stroke-width: 15px;"/><rect x="-6" y="-6" width="87" height="87" class="djs-outline" style="fill: none;"/></g></g><g class="djs-group"><g class="djs-element djs-shape" data-element-id="shape_4527" style="display: block;" transform="matrix(1 0 0 1 679 514)"><g class="djs-visual"><svg xmlns="http://www.w3.org/2000/svg" fill=" black" width="48.75" height="48.75" viewBox="0 0 24 26" x="12.5" y="12.5"><path fill="none" d="M0 0h24v24H0V0z"/><path d="M15 18.5c-2.51 0-4.68-1.42-5.76-3.5H15v-2H8.58c-.05-.33-.08-.66-.08-1s.03-.67.08-1H15V9H9.24C10.32 6.92 12.5 5.5 15 5.5c1.61 0 3.09.59 4.23 1.57L21 5.3C19.41 3.87 17.3 3 15 3c-3.92 0-7.24 2.51-8.48 6H3v2h3.06c-.04.33-.06.66-.06 1s.02.67.06 1H3v2h3.52c1.24 3.49 4.56 6 8.48 6 2.31 0 4.41-.87 6-2.3l-1.78-1.77c-1.13.98-2.6 1.57-4.22 1.57z"/></svg><text lineHeight="1.2" class="djs-label" style="font-family: Arial, sans-serif; font-size: 12px; font-weight: normal; fill: rgb(0, 0, 0);"><tspan x="5.0546875" y="74.75">resale value</tspan></text></g><rect class="djs-hit djs-hit-all" x="0" y="0" width="75" height="75" style="fill: none; stroke-opacity: 0; stroke: white; stroke-width: 15px;"/><rect x="-6" y="-6" width="87" height="87" class="djs-outline" style="fill: none;"/></g></g><g class="djs-group"><g class="djs-element djs-shape" data-element-id="shape_9689" style="display: block;" transform="matrix(1 0 0 1 679 610)"><g class="djs-visual"><svg xmlns="http://www.w3.org/2000/svg" fill=" black" width="48.75" height="48.75" viewBox="0 0 24 28" x="12.5" y="12.5"><path fill="none" d="M0 0h24v24H0V0zm0 0h24v24H0V0z"/><path d="M12 6c0-.55-.45-1-1-1H5.82l.66-3.18.02-.23c0-.31-.13-.59-.33-.8L5.38 0 .44 4.94C.17 5.21 0 5.59 0 6v6.5c0 .83.67 1.5 1.5 1.5h6.75c.62 0 1.15-.38 1.38-.91l2.26-5.29c.07-.17.11-.36.11-.55V6zm-2 1.13L7.92 12H2V6.21l1.93-1.93L3.36 7H10v.13zM22.5 10h-6.75c-.62 0-1.15.38-1.38.91l-2.26 5.29c-.07.17-.11.36-.11.55V18c0 .55.45 1 1 1h5.18l-.66 3.18-.02.24c0 .31.13.59.33.8l.79.78 4.94-4.94c.27-.27.44-.65.44-1.06v-6.5c0-.83-.67-1.5-1.5-1.5zm-.5 7.79l-1.93 1.93.57-2.72H14v-.13L16.08 12H22v5.79z"/></svg><text lineHeight="1.2" class="djs-label" style="font-family: Arial, sans-serif; font-size: 12px; font-weight: normal; fill: rgb(0, 0, 0);"><tspan x="5.1015625" y="74.75">voting result</tspan></text></g><rect class="djs-hit djs-hit-all" x="0" y="0" width="75" height="75" style="fill: none; stroke-opacity: 0; stroke: white; stroke-width: 15px;"/><rect x="-6" y="-6" width="87" height="87" class="djs-outline" style="fill: none;"/></g></g><g class="djs-group"><g class="djs-element djs-shape" data-element-id="shape_8272" style="display: block;" transform="matrix(1 0 0 1 800 610)"><g class="djs-visual"><svg xmlns="http://www.w3.org/2000/svg" fill=" black" width="48.75" height="48.75" viewBox="0 0 24 26" x="12.5" y="12.5"><path fill="none" d="M0 0h24v24H0V0z"/><path d="M8 16h8v2H8zm0-4h8v2H8zm6-10H6c-1.1 0-2 .9-2 2v16c0 1.1.89 2 1.99 2H18c1.1 0 2-.9 2-2V8l-6-6zm4 18H6V4h7v5h5v11z"/></svg><text lineHeight="1.2" class="djs-label" style="font-family: Arial, sans-serif; font-size: 12px; font-weight: normal; fill: rgb(0, 0, 0);"><tspan x="0" y="74.75">risk assesment</tspan></text></g><rect class="djs-hit djs-hit-all" x="0" y="0" width="75" height="75" style="fill: none; stroke-opacity: 0; stroke: white; stroke-width: 15px;"/><rect x="-6" y="-6" width="87" height="87" class="djs-outline" style="fill: none;"/></g></g><g class="djs-group"><g class="djs-element djs-shape" data-element-id="shape_6000" style="display: block;" transform="matrix(1 0 0 1 452 50)"><g class="djs-visual"><svg xmlns="http://www.w3.org/2000/svg" fill=" black" width="48.75" height="48.75" viewBox="0 0 24 28" x="12.5" y="12.5"><path fill="none" d="M0 0h24v24H0V0zm0 0h24v24H0V0z"/><path d="M12 6c0-.55-.45-1-1-1H5.82l.66-3.18.02-.23c0-.31-.13-.59-.33-.8L5.38 0 .44 4.94C.17 5.21 0 5.59 0 6v6.5c0 .83.67 1.5 1.5 1.5h6.75c.62 0 1.15-.38 1.38-.91l2.26-5.29c.07-.17.11-.36.11-.55V6zm-2 1.13L7.92 12H2V6.21l1.93-1.93L3.36 7H10v.13zM22.5 10h-6.75c-.62 0-1.15.38-1.38.91l-2.26 5.29c-.07.17-.11.36-.11.55V18c0 .55.45 1 1 1h5.18l-.66 3.18-.02.24c0 .31.13.59.33.8l.79.78 4.94-4.94c.27-.27.44-.65.44-1.06v-6.5c0-.83-.67-1.5-1.5-1.5zm-.5 7.79l-1.93 1.93.57-2.72H14v-.13L16.08 12H22v5.79z"/></svg><text lineHeight="1.2" class="djs-label" style="font-family: Arial, sans-serif; font-size: 12px; font-weight: normal; fill: rgb(0, 0, 0);"><tspan x="6.1484375" y="74.75">credit rating</tspan></text></g><rect class="djs-hit djs-hit-all" x="0" y="0" width="75" height="75" style="fill: none; stroke-opacity: 0; stroke: white; stroke-width: 15px;"/><rect x="-6" y="-6" width="87" height="87" class="djs-outline" style="fill: none;"/></g></g><g class="djs-group"><g class="djs-element djs-shape" data-element-id="shape_5763" style="display: block;" transform="matrix(1 0 0 1 844 273)"><g class="djs-visual"><svg xmlns="http://www.w3.org/2000/svg" fill=" black" width="48.75" height="48.75" viewBox="0 0 24 26" x="12.5" y="12.5"><path fill="none" d="M0 0h24v24H0V0z"/><path d="M8 16h8v2H8zm0-4h8v2H8zm6-10H6c-1.1 0-2 .9-2 2v16c0 1.1.89 2 1.99 2H18c1.1 0 2-.9 2-2V8l-6-6zm4 18H6V4h7v5h5v11z"/></svg><text lineHeight="1.2" class="djs-label" style="font-family: Arial, sans-serif; font-size: 12px; font-weight: normal; fill: rgb(0, 0, 0);"><tspan x="18.484375" y="74.75">leasing </tspan><tspan x="8.8125" y="88.75">application</tspan></text></g><rect class="djs-hit djs-hit-all" x="0" y="0" width="75" height="75" style="fill: none; stroke-opacity: 0; stroke: white; stroke-width: 15px;"/><rect x="-6" y="-6" width="87" height="87" class="djs-outline" style="fill: none;"/></g></g><g class="djs-group"><g class="djs-element djs-shape" data-element-id="shape_8582" style="display: block;" transform="matrix(1 0 0 1 679 270)"><g class="djs-visual"><svg xmlns="http://www.w3.org/2000/svg" fill=" black" width="48.75" height="48.75" viewBox="0 0 24 26" x="12.5" y="12.5"><path fill="none" d="M0 0h24v24H0V0z"/><path d="M8 16h8v2H8zm0-4h8v2H8zm6-10H6c-1.1 0-2 .9-2 2v16c0 1.1.89 2 1.99 2H18c1.1 0 2-.9 2-2V8l-6-6zm4 18H6V4h7v5h5v11z"/></svg><text lineHeight="1.2" class="djs-label" style="font-family: Arial, sans-serif; font-size: 12px; font-weight: normal; fill: rgb(0, 0, 0);"><tspan x="12.53125" y="74.75">customer </tspan><tspan x="21.0625" y="88.75">profile</tspan></text></g><rect class="djs-hit djs-hit-all" x="0" y="0" width="75" height="75" style="fill: none; stroke-opacity: 0; stroke: white; stroke-width: 15px;"/><rect x="-6" y="-6" width="87" height="87" class="djs-outline" style="fill: none;"/></g></g><g class="djs-group"><g class="djs-element djs-shape" data-element-id="shape_4293" style="display: block;" transform="matrix(1 0 0 1 75 132)"><g class="djs-visual"><svg xmlns="http://www.w3.org/2000/svg" fill=" black" viewBox="0 0 24 26" width="75" height="75"><path d="M20,18c1.1,0,2-0.9,2-2V6c0-1.1-0.9-2-2-2H4C2.9,4,2,4.9,2,6v10c0,1.1,0.9,2,2,2H0v2h24v-2H20z M4,6h16v10H4V6z"/></svg><text lineHeight="1.2" class="djs-label" style="font-family: Arial, sans-serif; font-size: 12px; font-weight: normal; fill: rgb(0, 0, 0);"><tspan x="0.8046875" y="75">online leasing </tspan><tspan x="18.3984375" y="89">service</tspan></text></g><rect class="djs-hit djs-hit-all" x="0" y="0" width="75" height="75" style="fill: none; stroke-opacity: 0; stroke: white; stroke-width: 15px;"/><rect x="-6" y="-6" width="87" height="87" class="djs-outline" style="fill: none;"/></g></g><g class="djs-group"><g class="djs-element djs-shape" data-element-id="shape_8017" style="display: block;" transform="matrix(1 0 0 1 571 125)"><g class="djs-visual"><svg xmlns="http://www.w3.org/2000/svg" fill=" black" width="48.75" height="48.75" viewBox="0 0 24 26" x="12.5" y="12.5"><path fill="none" d="M0 0h24v24H0V0z"/><path d="M8 16h8v2H8zm0-4h8v2H8zm6-10H6c-1.1 0-2 .9-2 2v16c0 1.1.89 2 1.99 2H18c1.1 0 2-.9 2-2V8l-6-6zm4 18H6V4h7v5h5v11z"/></svg><text lineHeight="1.2" class="djs-label" style="font-family: Arial, sans-serif; font-size: 12px; font-weight: normal; fill: rgb(0, 0, 0);"><tspan x="6.1484375" y="74.75">credit rating </tspan><tspan x="4.15625" y="88.75">report (PDF)</tspan></text></g><rect class="djs-hit djs-hit-all" x="0" y="0" width="75" height="75" style="fill: none; stroke-opacity: 0; stroke: white; stroke-width: 15px;"/><rect x="-6" y="-6" width="87" height="87" class="djs-outline" style="fill: none;"/></g></g><g class="djs-group"><g class="djs-element djs-shape" data-element-id="shape_8697" style="display: block;" transform="matrix(1 0 0 1 818 125)"><g class="djs-visual"><svg xmlns="http://www.w3.org/2000/svg" fill=" black" viewBox="0 0 24 26" width="75" height="75"><path d="M20,18c1.1,0,2-0.9,2-2V6c0-1.1-0.9-2-2-2H4C2.9,4,2,4.9,2,6v10c0,1.1,0.9,2,2,2H0v2h24v-2H20z M4,6h16v10H4V6z"/></svg><text lineHeight="1.2" class="djs-label" style="font-family: Arial, sans-serif; font-size: 12px; font-weight: normal; fill: rgb(0, 0, 0);"><tspan x="1.328125" y="75">rating agency</tspan></text></g><rect class="djs-hit djs-hit-all" x="0" y="0" width="75" height="75" style="fill: none; stroke-opacity: 0; stroke: white; stroke-width: 15px;"/><rect x="-6" y="-6" width="87" height="87" class="djs-outline" style="fill: none;"/></g></g><g class="djs-group"><g class="djs-element djs-shape" data-element-id="shape_0597" style="display: block;" transform="matrix(1 0 0 1 373 407)"><g class="djs-visual"><svg xmlns="http://www.w3.org/2000/svg" fill=" black" viewBox="0 0 24 26" width="75" height="75"><path d="M12 5.9c1.16 0 2.1.94 2.1 2.1s-.94 2.1-2.1 2.1S9.9 9.16 9.9 8s.94-2.1 2.1-2.1m0 9c2.97 0 6.1 1.46 6.1 2.1v1.1H5.9V17c0-.64 3.13-2.1 6.1-2.1M12 4C9.79 4 8 5.79 8 8s1.79 4 4 4 4-1.79 4-4-1.79-4-4-4zm0 9c-2.67 0-8 1.34-8 4v3h16v-3c0-2.66-5.33-4-8-4z"/><path d="M0 0h24v24H0z" fill="none"/></svg><text lineHeight="1.2" class="djs-label" style="font-family: Arial, sans-serif; font-size: 12px; font-weight: normal; fill: rgb(0, 0, 0);"><tspan x="2.53125" y="75">risk manager</tspan></text></g><rect class="djs-hit djs-hit-all" x="0" y="0" width="75" height="75" style="fill: none; stroke-opacity: 0; stroke: white; stroke-width: 15px;"/><rect x="-6" y="-6" width="87" height="87" class="djs-outline" style="fill: none;"/></g></g><g class="djs-group"><g class="djs-element djs-shape" data-element-id="shape_8922" style="display: block;" transform="matrix(1 0 0 1 227 322)"><g class="djs-visual"><svg xmlns="http://www.w3.org/2000/svg" fill=" black" height="48.75" viewBox="0 0 24 26" width="48.75" x="12.5" y="12.5"><path d="M0 0h24v24H0z" fill="none"/><path d="M11 17h2v-6h-2v6zm1-15C6.48 2 2 6.48 2 12s4.48 10 10 10 10-4.48 10-10S17.52 2 12 2zm0 18c-4.41 0-8-3.59-8-8s3.59-8 8-8 8 3.59 8 8-3.59 8-8 8zM11 9h2V7h-2v2z"/></svg><text lineHeight="1.2" class="djs-label" style="font-family: Arial, sans-serif; font-size: 12px; font-weight: normal; fill: rgb(0, 0, 0);"><tspan x="5.8125" y="74.75">new leasing </tspan><tspan x="8.8125" y="88.75">application</tspan></text></g><rect class="djs-hit djs-hit-all" x="0" y="0" width="75" height="75" style="fill: none; stroke-opacity: 0; stroke: white; stroke-width: 15px;"/><rect x="-6" y="-6" width="87" height="87" class="djs-outline" style="fill: none;"/></g></g><g class="djs-group"><g class="djs-element djs-shape" data-element-id="shape_0622" style="display: block;" transform="matrix(1 0 0 1 373 258)"><g class="djs-visual"><svg xmlns="http://www.w3.org/2000/svg" fill=" black" height="48.75" viewBox="0 0 24 26" width="48.75" x="12.5" y="12.5"><path d="M0 0h24v24H0z" fill="none"/><path d="M11 17h2v-6h-2v6zm1-15C6.48 2 2 6.48 2 12s4.48 10 10 10 10-4.48 10-10S17.52 2 12 2zm0 18c-4.41 0-8-3.59-8-8s3.59-8 8-8 8 3.59 8 8-3.59 8-8 8zM11 9h2V7h-2v2z"/></svg><text lineHeight="1.2" class="djs-label" style="font-family: Arial, sans-serif; font-size: 12px; font-weight: normal; fill: rgb(0, 0, 0);"><tspan x="0" y="74.75">risk assesment</tspan></text></g><rect class="djs-hit djs-hit-all" x="0" y="0" width="75" height="75" style="fill: none; stroke-opacity: 0; stroke: white; stroke-width: 15px;"/><rect x="-6" y="-6" width="87" height="87" class="djs-outline" style="fill: none;"/></g></g><g class="djs-group"><g class="djs-element djs-shape" data-element-id="shape_3499" style="display: block;" transform="matrix(1 0 0 1 75 407)"><g class="djs-visual"><svg xmlns="http://www.w3.org/2000/svg" fill=" black" width="48.75" height="48.75" viewBox="0 0 24 26" x="12.5" y="12.5"><path fill="none" d="M0 0h24v24H0V0z"/><path d="M8 16h8v2H8zm0-4h8v2H8zm6-10H6c-1.1 0-2 .9-2 2v16c0 1.1.89 2 1.99 2H18c1.1 0 2-.9 2-2V8l-6-6zm4 18H6V4h7v5h5v11z"/></svg><text lineHeight="1.2" class="djs-label" style="font-family: Arial, sans-serif; font-size: 12px; font-weight: normal; fill: rgb(0, 0, 0);"><tspan x="22.8203125" y="74.75">voted </tspan><tspan x="8.8125" y="88.75">application</tspan></text></g><rect class="djs-hit djs-hit-all" x="0" y="0" width="75" height="75" style="fill: none; stroke-opacity: 0; stroke: white; stroke-width: 15px;"/><rect x="-6" y="-6" width="87" height="87" class="djs-outline" style="fill: none;"/></g></g><g class="djs-group"><g class="djs-element djs-connection" data-element-id="connection_6520" style="display: block;"><g class="djs-visual"><polyline points="150,165 213,88 452,88 " style="stroke: black; fill: none; stroke-width: 1.5px; stroke-linejoin: round; marker-end: url('#activity-black-black-3kvg1nurlggb05rvw3ppcf6ej');"/><text lineHeight="1.2" wordWrap="break-word" overflowWrap="break-word" hyphens="auto" class="djs-label" style="font-family: Arial, sans-serif; font-size: 11px; font-weight: normal; fill: black;"><tspan x="308.65" y="103">fetches</tspan></text><text lineHeight="1.2" position="absolute" class="djs-labelNumber" style="font-family: Courier; font-size: 150px; font-weight: normal; fill: rgb(66, 174, 187);"><tspan x="281.5" y="84">.</tspan></text><text lineHeight="1.2" backgroundColor="green" position="absolute" class="djs-labelNumber" style="font-family: Arial, sans-serif; font-size: 11px; font-weight: normal; fill: white;"><tspan x="320.5" y="79">03</tspan></text></g><polyline points="150,165 213,88 452,88 " class="djs-hit djs-hit-stroke" style="fill: none; stroke-opacity: 0; stroke: white; stroke-width: 15px;"/><rect x="144" y="82" width="314" height="89" class="djs-outline" style="fill: none;"/></g></g><g class="djs-group"><g class="djs-element djs-connection" data-element-id="connection_7259" style="display: block;"><g class="djs-visual"><polyline points="448,460 679,552 " style="stroke: black; fill: none; stroke-width: 1.5px; stroke-linejoin: round; marker-end: url('#activity-black-black-3kvg1nurlggb05rvw3ppcf6ej');"/><text lineHeight="1.2" wordWrap="break-word" overflowWrap="break-word" hyphens="auto" class="djs-label" style="font-family: Arial, sans-serif; font-size: 11px; font-weight: normal; fill: black;"><tspan x="571.1193049325885" y="498.412869955059">calculates</tspan></text><text lineHeight="1.2" position="absolute" class="djs-labelNumber" style="font-family: Courier; font-size: 150px; font-weight: normal; fill: rgb(66, 174, 187);"><tspan x="506.11930493258853" y="479.412869955059">.</tspan></text><text lineHeight="1.2" backgroundColor="green" position="absolute" class="djs-labelNumber" style="font-family: Arial, sans-serif; font-size: 11px; font-weight: normal; fill: white;"><tspan x="545.1193049325885" y="474.412869955059">07</tspan></text></g><polyline points="448,460 679,552 " class="djs-hit djs-hit-stroke" style="fill: none; stroke-opacity: 0; stroke: white; stroke-width: 15px;"/><rect x="442" y="454" width="243" height="104" class="djs-outline" style="fill: none;"/></g></g><g class="djs-group"><g class="djs-element djs-connection" data-element-id="connection_8289" style="display: block;"><g class="djs-visual"><polyline points="373,445 155,445 " style="stroke: black; fill: none; stroke-width: 1.5px; stroke-linejoin: round; marker-end: url('#activity-black-black-3kvg1nurlggb05rvw3ppcf6ej');"/><text lineHeight="1.2" wordWrap="break-word" overflowWrap="break-word" hyphens="auto" class="djs-label" style="font-family: Arial, sans-serif; font-size: 11px; font-weight: normal; fill: black;"><tspan x="245.25" y="460">signs</tspan></text><text lineHeight="1.2" position="absolute" class="djs-labelNumber" style="font-family: Courier; font-size: 150px; font-weight: normal; fill: rgb(66, 174, 187);"><tspan x="213" y="441">.</tspan></text><text lineHeight="1.2" backgroundColor="green" position="absolute" class="djs-labelNumber" style="font-family: Arial, sans-serif; font-size: 11px; font-weight: normal; fill: white;"><tspan x="252" y="436">09</tspan></text></g><polyline points="373,445 155,445 " class="djs-hit djs-hit-stroke" style="fill: none; stroke-opacity: 0; stroke: white; stroke-width: 15px;"/><rect x="149" y="439" width="230" height="12" class="djs-outline" style="fill: none;"/></g></g><g class="djs-group"><g class="djs-element djs-connection" data-element-id="connection_9239" style="display: block;"><g class="djs-visual"><polyline points="571,164 155,170 " style="stroke: black; fill: none; stroke-width: 1.5px; stroke-linejoin: round; marker-end: url('#activity-black-black-3kvg1nurlggb05rvw3ppcf6ej');"/></g><polyline points="571,164 155,170 " class="djs-hit djs-hit-stroke" style="fill: none; stroke-opacity: 0; stroke: white; stroke-width: 15px;"/><rect x="149" y="158" width="428" height="18" class="djs-outline" style="fill: none;"/></g></g><g class="djs-group"><g class="djs-element djs-connection" data-element-id="connection_3993" style="display: block;"><g class="djs-visual"><polyline points="158,177 679,299 " style="stroke: black; fill: none; stroke-width: 1.5px; stroke-linejoin: round; marker-end: url('#activity-black-black-3kvg1nurlggb05rvw3ppcf6ej');"/><text lineHeight="1.2" wordWrap="break-word" overflowWrap="break-word" hyphens="auto" class="djs-label" style="font-family: Arial, sans-serif; font-size: 11px; font-weight: normal; fill: black;"><tspan x="424.69653470716946" y="229.4643564714463">creates</tspan></text><text lineHeight="1.2" position="absolute" class="djs-labelNumber" style="font-family: Courier; font-size: 150px; font-weight: normal; fill: rgb(66, 174, 187);"><tspan x="359.69653470716946" y="210.4643564714463">.</tspan></text><text lineHeight="1.2" backgroundColor="green" position="absolute" class="djs-labelNumber" style="font-family: Arial, sans-serif; font-size: 11px; font-weight: normal; fill: white;"><tspan x="398.69653470716946" y="205.4643564714463">05</tspan></text></g><polyline points="158,177 679,299 " class="djs-hit djs-hit-stroke" style="fill: none; stroke-opacity: 0; stroke: white; stroke-width: 15px;"/><rect x="152" y="171" width="533" height="134" class="djs-outline" style="fill: none;"/></g></g><g class="djs-group"><g class="djs-element djs-connection" data-element-id="connection_2361" style="display: block;"><g class="djs-visual"><polyline points="818,163 652,163 " style="stroke: black; fill: none; stroke-width: 1.5px; stroke-linejoin: round; marker-end: url('#activity-black-black-3kvg1nurlggb05rvw3ppcf6ej');"/><text lineHeight="1.2" wordWrap="break-word" overflowWrap="break-word" hyphens="auto" class="djs-label" style="font-family: Arial, sans-serif; font-size: 11px; font-weight: normal; fill: black;"><tspan x="706.05" y="178">generates</tspan></text><text lineHeight="1.2" position="absolute" class="djs-labelNumber" style="font-family: Courier; font-size: 150px; font-weight: normal; fill: rgb(66, 174, 187);"><tspan x="684" y="159">.</tspan></text><text lineHeight="1.2" backgroundColor="green" position="absolute" class="djs-labelNumber" style="font-family: Arial, sans-serif; font-size: 11px; font-weight: normal; fill: white;"><tspan x="723" y="154">04</tspan></text></g><polyline points="818,163 652,163 " class="djs-hit djs-hit-stroke" style="fill: none; stroke-opacity: 0; stroke: white; stroke-width: 15px;"/><rect x="646" y="157" width="178" height="12" class="djs-outline" style="fill: none;"/></g></g><g class="djs-group"><g class="djs-element djs-connection" data-element-id="connection_0003" style="display: block;"><g class="djs-visual"><polyline points="760,309 844,310 " style="stroke: black; fill: none; stroke-width: 1.5px; stroke-linejoin: round; marker-end: url('#activity-black-black-3kvg1nurlggb05rvw3ppcf6ej');"/><text lineHeight="1.2" wordWrap="break-word" overflowWrap="break-word" hyphens="auto" class="djs-label" style="font-family: Arial, sans-serif; font-size: 11px; font-weight: normal; fill: black;"><tspan x="806.1136767321955" y="299.5757844881303">from</tspan></text></g><polyline points="760,309 844,310 " class="djs-hit djs-hit-stroke" style="fill: none; stroke-opacity: 0; stroke: white; stroke-width: 15px;"/><rect x="754" y="303" width="96" height="13" class="djs-outline" style="fill: none;"/></g></g><g class="djs-group"><g class="djs-element djs-connection" data-element-id="connection_8693" style="display: block;"><g class="djs-visual"><polyline points="924,311 1098,311 " style="stroke: black; fill: none; stroke-width: 1.5px; stroke-linejoin: round; marker-end: url('#activity-black-black-3kvg1nurlggb05rvw3ppcf6ej');"/><text lineHeight="1.2" wordWrap="break-word" overflowWrap="break-word" hyphens="auto" class="djs-label" style="font-family: Arial, sans-serif; font-size: 11px; font-weight: normal; fill: black;"><tspan x="999.9" y="326">in</tspan></text></g><polyline points="924,311 1098,311 " class="djs-hit djs-hit-stroke" style="fill: none; stroke-opacity: 0; stroke: white; stroke-width: 15px;"/><rect x="918" y="305" width="186" height="12" class="djs-outline" style="fill: none;"/></g></g><g class="djs-group"><g class="djs-element djs-connection" data-element-id="connection_9286" style="display: block;"><g class="djs-visual"><polyline points="454,445 685,445 " style="stroke: black; fill: none; stroke-width: 1.5px; stroke-linejoin: round; marker-end: url('#activity-black-black-3kvg1nurlggb05rvw3ppcf6ej');"/><text lineHeight="1.2" wordWrap="break-word" overflowWrap="break-word" hyphens="auto" class="djs-label" style="font-family: Arial, sans-serif; font-size: 11px; font-weight: normal; fill: black;"><tspan x="545.65" y="460">creates</tspan></text><text lineHeight="1.2" position="absolute" class="djs-labelNumber" style="font-family: Courier; font-size: 150px; font-weight: normal; fill: rgb(66, 174, 187);"><tspan x="518.5" y="441">.</tspan></text><text lineHeight="1.2" backgroundColor="green" position="absolute" class="djs-labelNumber" style="font-family: Arial, sans-serif; font-size: 11px; font-weight: normal; fill: white;"><tspan x="557.5" y="436">06</tspan></text></g><polyline points="454,445 685,445 " class="djs-hit djs-hit-stroke" style="fill: none; stroke-opacity: 0; stroke: white; stroke-width: 15px;"/><rect x="448" y="439" width="243" height="12" class="djs-outline" style="fill: none;"/></g></g><g class="djs-group"><g class="djs-element djs-connection" data-element-id="connection_1238" style="display: block;"><g class="djs-visual"><polyline points="1001,426 1098,350 " style="stroke: black; fill: none; stroke-width: 1.5px; stroke-linejoin: round; marker-end: url('#activity-black-black-3kvg1nurlggb05rvw3ppcf6ej');"/><text lineHeight="1.2" wordWrap="break-word" overflowWrap="break-word" hyphens="auto" class="djs-label" style="font-family: Arial, sans-serif; font-size: 11px; font-weight: normal; fill: black;"><tspan x="1062.1535196064058" y="396.65351960640584">in</tspan></text></g><polyline points="1001,426 1098,350 " class="djs-hit djs-hit-stroke" style="fill: none; stroke-opacity: 0; stroke: white; stroke-width: 15px;"/><rect x="995" y="344" width="109" height="88" class="djs-outline" style="fill: none;"/></g></g><g class="djs-group"><g class="djs-element djs-connection" data-element-id="connection_7776" style="display: block;"><g class="djs-visual"><polyline points="765,445 800,445 " style="stroke: black; fill: none; stroke-width: 1.5px; stroke-linejoin: round; marker-end: url('#activity-black-black-3kvg1nurlggb05rvw3ppcf6ej');"/><text lineHeight="1.2" wordWrap="break-word" overflowWrap="break-word" hyphens="auto" class="djs-label" style="font-family: Arial, sans-serif; font-size: 11px; font-weight: normal; fill: black;"><tspan x="766.3" y="460">from</tspan></text></g><polyline points="765,445 800,445 " class="djs-hit djs-hit-stroke" style="fill: none; stroke-opacity: 0; stroke: white; stroke-width: 15px;"/><rect x="759" y="439" width="47" height="12" class="djs-outline" style="fill: none;"/></g></g><g class="djs-group"><g class="djs-element djs-connection" data-element-id="connection_8264" style="display: block;"><g class="djs-visual"><polyline points="880,445 939,445 " style="stroke: black; fill: none; stroke-width: 1.5px; stroke-linejoin: round; marker-end: url('#activity-black-black-3kvg1nurlggb05rvw3ppcf6ej');"/><text lineHeight="1.2" wordWrap="break-word" overflowWrap="break-word" hyphens="auto" class="djs-label" style="font-family: Arial, sans-serif; font-size: 11px; font-weight: normal; fill: black;"><tspan x="883.1" y="460">and from</tspan></text></g><polyline points="880,445 939,445 " class="djs-hit djs-hit-stroke" style="fill: none; stroke-opacity: 0; stroke: white; stroke-width: 15px;"/><rect x="874" y="439" width="71" height="12" class="djs-outline" style="fill: none;"/></g></g><g class="djs-group"><g class="djs-element djs-connection" data-element-id="connection_6227" style="display: block;"><g class="djs-visual"><polyline points="760,552 1005,552 1120,406 " style="stroke: black; fill: none; stroke-width: 1.5px; stroke-linejoin: round; marker-end: url('#activity-black-black-3kvg1nurlggb05rvw3ppcf6ej');"/></g><polyline points="760,552 1005,552 1120,406 " class="djs-hit djs-hit-stroke" style="fill: none; stroke-opacity: 0; stroke: white; stroke-width: 15px;"/><rect x="754" y="400" width="372" height="158" class="djs-outline" style="fill: none;"/></g></g><g class="djs-group"><g class="djs-element djs-connection" data-element-id="connection_0978" style="display: block;"><g class="djs-visual"><polyline points="441,466 679,634 " style="stroke: black; fill: none; stroke-width: 1.5px; stroke-linejoin: round; marker-end: url('#activity-black-black-3kvg1nurlggb05rvw3ppcf6ej');"/><text lineHeight="1.2" wordWrap="break-word" overflowWrap="break-word" hyphens="auto" class="djs-label" style="font-family: Arial, sans-serif; font-size: 11px; font-weight: normal; fill: black;"><tspan x="569.8695988280322" y="543.9130658853547">decides on</tspan></text><text lineHeight="1.2" position="absolute" class="djs-labelNumber" style="font-family: Courier; font-size: 150px; font-weight: normal; fill: rgb(66, 174, 187);"><tspan x="504.86959882803217" y="524.9130658853547">.</tspan></text><text lineHeight="1.2" backgroundColor="green" position="absolute" class="djs-labelNumber" style="font-family: Arial, sans-serif; font-size: 11px; font-weight: normal; fill: white;"><tspan x="543.8695988280322" y="519.9130658853547">08</tspan></text></g><polyline points="441,466 679,634 " class="djs-hit djs-hit-stroke" style="fill: none; stroke-opacity: 0; stroke: white; stroke-width: 15px;"/><rect x="435" y="460" width="250" height="180" class="djs-outline" style="fill: none;"/></g></g><g class="djs-group"><g class="djs-element djs-connection" data-element-id="connection_3575" style="display: block;"><g class="djs-visual"><polyline points="760,648 800,648 " style="stroke: black; fill: none; stroke-width: 1.5px; stroke-linejoin: round; marker-end: url('#activity-black-black-3kvg1nurlggb05rvw3ppcf6ej');"/><text lineHeight="1.2" wordWrap="break-word" overflowWrap="break-word" hyphens="auto" class="djs-label" style="font-family: Arial, sans-serif; font-size: 11px; font-weight: normal; fill: black;"><tspan x="766.35" y="663">for</tspan></text></g><polyline points="760,648 800,648 " class="djs-hit djs-hit-stroke" style="fill: none; stroke-opacity: 0; stroke: white; stroke-width: 15px;"/><rect x="754" y="642" width="52" height="12" class="djs-outline" style="fill: none;"/></g></g><g class="djs-group"><g class="djs-element djs-connection" data-element-id="connection_2265" style="display: block;"><g class="djs-visual"><polyline points="881,648 1077,648 1130,406 " style="stroke: black; fill: none; stroke-width: 1.5px; stroke-linejoin: round; marker-end: url('#activity-black-black-3kvg1nurlggb05rvw3ppcf6ej');"/></g><polyline points="881,648 1077,648 1130,406 " class="djs-hit djs-hit-stroke" style="fill: none; stroke-opacity: 0; stroke: white; stroke-width: 15px;"/><rect x="875" y="400" width="261" height="254" class="djs-outline" style="fill: none;"/></g></g><g class="djs-group"><g class="djs-element djs-connection" data-element-id="connection_4610" style="display: block;"><g class="djs-visual"><polyline points="136,237 235,322 " style="stroke: black; fill: none; stroke-width: 1.5px; stroke-linejoin: round; marker-end: url('#activity-black-black-3kvg1nurlggb05rvw3ppcf6ej');"/><text lineHeight="1.2" wordWrap="break-word" overflowWrap="break-word" hyphens="auto" class="djs-label" style="font-family: Arial, sans-serif; font-size: 11px; font-weight: normal; fill: black;"><tspan x="196.27482034140436" y="274.0165468942696">notifies about</tspan></text><text lineHeight="1.2" position="absolute" class="djs-labelNumber" style="font-family: Courier; font-size: 150px; font-weight: normal; fill: rgb(66, 174, 187);"><tspan x="131.27482034140436" y="255.0165468942696">.</tspan></text><text lineHeight="1.2" backgroundColor="green" position="absolute" class="djs-labelNumber" style="font-family: Arial, sans-serif; font-size: 11px; font-weight: normal; fill: white;"><tspan x="170.27482034140436" y="250.0165468942696">01</tspan></text></g><polyline points="136,237 235,322 " class="djs-hit djs-hit-stroke" style="fill: none; stroke-opacity: 0; stroke: white; stroke-width: 15px;"/><rect x="130" y="231" width="111" height="97" class="djs-outline" style="fill: none;"/></g></g><g class="djs-group"><g class="djs-element djs-connection" data-element-id="connection_9965" style="display: block;"><g class="djs-visual"><polyline points="303,374 373,420 " style="stroke: black; fill: none; stroke-width: 1.5px; stroke-linejoin: round; marker-end: url('#activity-black-black-3kvg1nurlggb05rvw3ppcf6ej');"/></g><polyline points="303,374 373,420 " class="djs-hit djs-hit-stroke" style="fill: none; stroke-opacity: 0; stroke: white; stroke-width: 15px;"/><rect x="297" y="368" width="82" height="58" class="djs-outline" style="fill: none;"/></g></g><g class="djs-group"><g class="djs-element djs-connection" data-element-id="connection_3788" style="display: block;"><g class="djs-visual"><polyline points="532,88 754,88 818,135 " style="stroke: black; fill: none; stroke-width: 1.5px; stroke-linejoin: round; marker-end: url('#activity-black-black-3kvg1nurlggb05rvw3ppcf6ej');"/></g><polyline points="532,88 754,88 818,135 " class="djs-hit djs-hit-stroke" style="fill: none; stroke-opacity: 0; stroke: white; stroke-width: 15px;"/><rect x="526" y="82" width="298" height="59" class="djs-outline" style="fill: none;"/></g></g><g class="djs-group"><g class="djs-element djs-connection" data-element-id="connection_6315" style="display: block;"><g class="djs-visual"><polyline points="411,407 411,343 " style="stroke: black; fill: none; stroke-width: 1.5px; stroke-linejoin: round; marker-end: url('#activity-black-black-3kvg1nurlggb05rvw3ppcf6ej');"/><text lineHeight="1.2" wordWrap="break-word" overflowWrap="break-word" hyphens="auto" class="djs-label" style="font-family: Arial, sans-serif; font-size: 11px; font-weight: normal; fill: black;"><tspan x="425" y="375">begins with</tspan></text><text lineHeight="1.2" position="absolute" class="djs-labelNumber" style="font-family: Courier; font-size: 150px; font-weight: normal; fill: rgb(66, 174, 187);"><tspan x="360" y="356">.</tspan></text><text lineHeight="1.2" backgroundColor="green" position="absolute" class="djs-labelNumber" style="font-family: Arial, sans-serif; font-size: 11px; font-weight: normal; fill: white;"><tspan x="399" y="351">02</tspan></text></g><polyline points="411,407 411,343 " class="djs-hit djs-hit-stroke" style="fill: none; stroke-opacity: 0; stroke: white; stroke-width: 15px;"/><rect x="405" y="337" width="12" height="76" class="djs-outline" style="fill: none;"/></g></g><g class="djs-group"><g class="djs-element djs-connection" data-element-id="connection_0975" style="display: block;"><g class="djs-visual"><polyline points="373,268 149,186 " style="stroke: black; fill: none; stroke-width: 1.5px; stroke-linejoin: round; marker-end: url('#activity-black-black-3kvg1nurlggb05rvw3ppcf6ej');"/></g><polyline points="373,268 149,186 " class="djs-hit djs-hit-stroke" style="fill: none; stroke-opacity: 0; stroke: white; stroke-width: 15px;"/><rect x="143" y="180" width="236" height="94" class="djs-outline" style="fill: none;"/></g></g><g class="djs-group"><g class="djs-element djs-connection" data-element-id="connection_2089" style="display: block;"><g class="djs-visual"><polyline points="105,407 105,236 " style="stroke: black; fill: none; stroke-width: 1.5px; stroke-linejoin: round; marker-end: url('#activity-black-black-3kvg1nurlggb05rvw3ppcf6ej');"/></g><polyline points="105,407 105,236 " class="djs-hit djs-hit-stroke" style="fill: none; stroke-opacity: 0; stroke: white; stroke-width: 15px;"/><rect x="99" y="230" width="12" height="183" class="djs-outline" style="fill: none;"/></g></g></svg>