<?xml version="1.0" encoding="utf-8"?>
<!-- created with bpmn-js / http://bpmn.io -->
<!DOCTYPE svg PUBLIC "-//W3C//DTD SVG 1.1//EN" "http://www.w3.org/Graphics/SVG/1.1/DTD/svg11.dtd">
<svg xmlns="http://www.w3.org/2000/svg" xmlns:xlink="http://www.w3.org/1999/xlink" width="1283" height=" 728.15625" viewBox="113.00000762939453 -121.15625 1283 633.15625" version="1.1"><defs><marker id="activity-black-black-ca6qmftkh54ld0lsbga8333k9" viewBox="0 0 20 20" refX="11" refY="10" markerWidth="10" markerHeight="10" orient="auto"><path d="M 1 5 L 11 10 L 1 15 Z" style="fill: black; stroke-width: 1px; stroke-linecap: round; stroke-dasharray: 10000, 1; stroke: black;"/></marker></defs><g class="djs-group"><g class="djs-element djs-shape" style = "display:block" transform="translate(123.00000762939453 -86.15625)"><g class="djs-visual"><text lineHeight="1.2" class="djs-label" style="font-family: Arial, sans-serif; font-size: 30; font-weight: normal; fill: rgb(0, 0, 0);"><tspan x="8" y="10" font-size="30">buy tickets at box office (detailed, with system)</tspan></text><text lineHeight="1.2" class="djs-label" style="font-family: Arial, sans-serif; font-size: 12; font-weight: normal; fill: rgb(0, 0, 0);"><tspan x="8" y="30" font-size="12">Assumptions: happy path; movie goer does not have a subscription</tspan></text></g></g></g><g class="djs-group"><g class="djs-element djs-shape" data-element-id="shape_1559" style="display: block;" transform="matrix(1 0 0 1 402 50)"><g class="djs-visual"><svg xmlns="http://www.w3.org/2000/svg" fill=" black" height="48.75" viewBox="0 0 24 26" width="48.75" x="12.5" y="12.5"><path d="M0 0h24v24H0V0z" fill="none"/><path d="M20 2H4c-1.1 0-2 .9-2 2v18l4-4h14c1.1 0 2-.9 2-2V4c0-1.1-.9-2-2-2zm0 14H6l-2 2V4h16v12z"/></svg><text lineHeight="1.2" class="djs-label" style="font-family: Arial, sans-serif; font-size: 12px; font-weight: normal; fill: rgb(0, 0, 0);"><tspan x="5.484375" y="74.75">nr. of tickets </tspan><tspan x="14.8671875" y="88.75">for show </tspan><tspan x="5.265625" y="102.75">(movie, day, </tspan><tspan x="24.1640625" y="116.75">time)</tspan></text></g><rect class="djs-hit djs-hit-all" x="0" y="0" width="75" height="75" style="fill: none; stroke-opacity: 0; stroke: white; stroke-width: 15px;"/><rect x="-6" y="-6" width="87" height="87" class="djs-outline" style="fill: none;"/></g></g><g class="djs-group"><g class="djs-element djs-shape" data-element-id="shape_4513" style="display: block;" transform="matrix(1 0 0 1 402 269)"><g class="djs-visual"><svg xmlns="http://www.w3.org/2000/svg" fill=" black" height="48.75" viewBox="0 0 24 26" width="48.75" x="12.5" y="12.5"><path d="M0 0h24v24H0V0z" fill="none"/><path d="M20 2H4c-1.1 0-2 .9-2 2v18l4-4h14c1.1 0 2-.9 2-2V4c0-1.1-.9-2-2-2zm0 14H6l-2 2V4h16v12z"/></svg><text lineHeight="1.2" class="djs-label" style="font-family: Arial, sans-serif; font-size: 12px; font-weight: normal; fill: rgb(0, 0, 0);"><tspan x="2.9140625" y="74.75">offered seats</tspan></text></g><rect class="djs-hit djs-hit-all" x="0" y="0" width="75" height="75" style="fill: none; stroke-opacity: 0; stroke: white; stroke-width: 15px;"/><rect x="-6" y="-6" width="87" height="87" class="djs-outline" style="fill: none;"/></g></g><g class="djs-group"><g class="djs-element djs-shape" data-element-id="shape_4302" style="display: block;" transform="matrix(1 0 0 1 402 163)"><g class="djs-visual"><svg xmlns="http://www.w3.org/2000/svg" fill=" black" height="48.75" viewBox="0 0 24 26" width="48.75" x="12.5" y="12.5"><path d="M0 0h24v24H0V0z" fill="none"/><path d="M20 2H4c-1.1 0-2 .9-2 2v18l4-4h14c1.1 0 2-.9 2-2V4c0-1.1-.9-2-2-2zm0 14H6l-2 2V4h16v12z"/></svg><text lineHeight="1.2" class="djs-label" style="font-family: Arial, sans-serif; font-size: 12px; font-weight: normal; fill: rgb(0, 0, 0);"><tspan x="0" y="74.75">available seats</tspan></text></g><rect class="djs-hit djs-hit-all" x="0" y="0" width="75" height="75" style="fill: none; stroke-opacity: 0; stroke: white; stroke-width: 15px;"/><rect x="-6" y="-6" width="87" height="87" class="djs-outline" style="fill: none;"/></g></g><g class="djs-group"><g class="djs-element djs-shape" data-element-id="shape_5616" style="display: block;" transform="matrix(1 0 0 1 688 163)"><g class="djs-visual"><svg xmlns="http://www.w3.org/2000/svg" fill=" black" viewBox="0 0 24 26" width="75" height="75"><path d="M12 5.9c1.16 0 2.1.94 2.1 2.1s-.94 2.1-2.1 2.1S9.9 9.16 9.9 8s.94-2.1 2.1-2.1m0 9c2.97 0 6.1 1.46 6.1 2.1v1.1H5.9V17c0-.64 3.13-2.1 6.1-2.1M12 4C9.79 4 8 5.79 8 8s1.79 4 4 4 4-1.79 4-4-1.79-4-4-4zm0 9c-2.67 0-8 1.34-8 4v3h16v-3c0-2.66-5.33-4-8-4z"/><path d="M0 0h24v24H0z" fill="none"/></svg><text lineHeight="1.2" class="djs-label" style="font-family: Arial, sans-serif; font-size: 12px; font-weight: normal; fill: rgb(0, 0, 0);"><tspan x="17.8671875" y="75">cashier</tspan></text></g><rect class="djs-hit djs-hit-all" x="0" y="0" width="75" height="75" style="fill: none; stroke-opacity: 0; stroke: white; stroke-width: 15px;"/><rect x="-6" y="-6" width="87" height="87" class="djs-outline" style="fill: none;"/></g></g><g class="djs-group"><g class="djs-element djs-shape" data-element-id="shape_5615" style="display: block;" transform="matrix(1 0 0 1 191 163)"><g class="djs-visual"><svg xmlns="http://www.w3.org/2000/svg" fill=" black" viewBox="0 0 24 26" width="75" height="75"><path d="M12 5.9c1.16 0 2.1.94 2.1 2.1s-.94 2.1-2.1 2.1S9.9 9.16 9.9 8s.94-2.1 2.1-2.1m0 9c2.97 0 6.1 1.46 6.1 2.1v1.1H5.9V17c0-.64 3.13-2.1 6.1-2.1M12 4C9.79 4 8 5.79 8 8s1.79 4 4 4 4-1.79 4-4-1.79-4-4-4zm0 9c-2.67 0-8 1.34-8 4v3h16v-3c0-2.66-5.33-4-8-4z"/><path d="M0 0h24v24H0z" fill="none"/></svg><text lineHeight="1.2" class="djs-label" style="font-family: Arial, sans-serif; font-size: 12px; font-weight: normal; fill: rgb(0, 0, 0);"><tspan x="7.1953125" y="75">movie-goer</tspan></text></g><rect class="djs-hit djs-hit-all" x="0" y="0" width="75" height="75" style="fill: none; stroke-opacity: 0; stroke: white; stroke-width: 15px;"/><rect x="-6" y="-6" width="87" height="87" class="djs-outline" style="fill: none;"/></g></g><g class="djs-group"><g class="djs-element djs-shape" data-element-id="shape_1352" style="display: block;" transform="matrix(1 0 0 1 483 249)"><g class="djs-visual"><rect x="0" y="0" width="100" height="30" rx="0" ry="0" style="stroke: none; stroke-width: 2px; fill: none;"/><path d="m 0, 0 m 10,0 l -10,0 l 0,30 l 10,0" style="fill: none; stroke-width: 2px; stroke: black;"/><text lineHeight="1.2" class="djs-label" style="font-family: Arial, sans-serif; font-size: 12px; font-weight: normal; fill: black;"><tspan x="5" y="15.799999999999999">mention reviews</tspan></text></g><rect class="djs-hit djs-hit-all" x="0" y="0" width="100" height="30" style="fill: none; stroke-opacity: 0; stroke: white; stroke-width: 15px;"/><rect x="-6" y="-6" width="112" height="42" class="djs-outline" style="fill: none;"/></g></g><g class="djs-group"><g class="djs-element djs-shape" data-element-id="shape_4874" style="display: block;" transform="matrix(1 0 0 1 1000 50)"><g class="djs-visual"><svg xmlns="http://www.w3.org/2000/svg" fill=" black" width="48.75" height="48.75" viewBox="0 0 24 28" x="12.5" y="12.5"><path d="M0 0h24v24H0z" fill="none"/><path d="M20 2H4c-1.1 0-2 .9-2 2v16c0 1.1.9 2 2 2h16c1.1 0 2-.9 2-2V4c0-1.1-.9-2-2-2zM8 20H4v-4h4v4zm0-6H4v-4h4v4zm0-6H4V4h4v4zm6 12h-4v-4h4v4zm0-6h-4v-4h4v4zm0-6h-4V4h4v4zm6 12h-4v-4h4v4zm0-6h-4v-4h4v4zm0-6h-4V4h4v4z"/></svg><text lineHeight="1.2" class="djs-label" style="font-family: Arial, sans-serif; font-size: 12px; font-weight: normal; fill: rgb(0, 0, 0);"><tspan x="5.140625" y="74.75">seating plan</tspan></text></g><rect class="djs-hit djs-hit-all" x="0" y="0" width="75" height="75" style="fill: none; stroke-opacity: 0; stroke: white; stroke-width: 15px;"/><rect x="-6" y="-6" width="87" height="87" class="djs-outline" style="fill: none;"/></g></g><g class="djs-group"><g class="djs-element djs-shape" data-element-id="shape_0141" style="display: block;" transform="matrix(1 0 0 1 1000 135)"><g class="djs-visual"><svg xmlns="http://www.w3.org/2000/svg" fill=" black" width="48.75" height="48.75" viewBox="0 0 24 26" x="12.5" y="12.5"><path fill="none" d="M0 0h24v24H0V0z"/><path d="M21 9V7c0-1.65-1.35-3-3-3H6C4.35 4 3 5.35 3 7v2c-1.65 0-3 1.35-3 3v5c0 1.65 1.35 3 3 3h18c1.65 0 3-1.35 3-3v-5c0-1.65-1.35-3-3-3zM5 7c0-.55.45-1 1-1h12c.55 0 1 .45 1 1v2.78c-.61.55-1 1.34-1 2.22v2H6v-2c0-.88-.39-1.67-1-2.22V7zm17 10c0 .55-.45 1-1 1H3c-.55 0-1-.45-1-1v-5c0-.55.45-1 1-1s1 .45 1 1v4h16v-4c0-.55.45-1 1-1s1 .45 1 1v5z"/></svg><text lineHeight="1.2" class="djs-label" style="font-family: Arial, sans-serif; font-size: 12px; font-weight: normal; fill: rgb(0, 0, 0);"><tspan x="0" y="74.75">available seats</tspan></text></g><rect class="djs-hit djs-hit-all" x="0" y="0" width="75" height="75" style="fill: none; stroke-opacity: 0; stroke: white; stroke-width: 15px;"/><rect x="-6" y="-6" width="87" height="87" class="djs-outline" style="fill: none;"/></g></g><g class="djs-group"><g class="djs-element djs-shape" data-element-id="shape_2488" style="display: block;" transform="matrix(1 0 0 1 1140 139)"><g class="djs-visual"><svg xmlns="http://www.w3.org/2000/svg" fill=" black" width="48.75" height="48.75" viewBox="0 0 24 28" x="12.5" y="12.5"><path d="M0 0h24v24H0z" fill="none"/><path d="M20 2H4c-1.1 0-2 .9-2 2v16c0 1.1.9 2 2 2h16c1.1 0 2-.9 2-2V4c0-1.1-.9-2-2-2zM8 20H4v-4h4v4zm0-6H4v-4h4v4zm0-6H4V4h4v4zm6 12h-4v-4h4v4zm0-6h-4v-4h4v4zm0-6h-4V4h4v4zm6 12h-4v-4h4v4zm0-6h-4v-4h4v4zm0-6h-4V4h4v4z"/></svg><text lineHeight="1.2" class="djs-label" style="font-family: Arial, sans-serif; font-size: 12px; font-weight: normal; fill: rgb(0, 0, 0);"><tspan x="5.140625" y="74.75">seating plan</tspan></text></g><rect class="djs-hit djs-hit-all" x="0" y="0" width="75" height="75" style="fill: none; stroke-opacity: 0; stroke: white; stroke-width: 15px;"/><rect x="-6" y="-6" width="87" height="87" class="djs-outline" style="fill: none;"/></g></g><g class="djs-group"><g class="djs-element djs-shape" data-element-id="shape_1614" style="display: block;" transform="matrix(1 0 0 1 1000 259)"><g class="djs-visual"><svg xmlns="http://www.w3.org/2000/svg" fill=" black" width="48.75" height="48.75" viewBox="0 0 24 26" x="12.5" y="12.5"><path fill="none" d="M0 0h24v24H0V0z"/><path d="M21 9V7c0-1.65-1.35-3-3-3H6C4.35 4 3 5.35 3 7v2c-1.65 0-3 1.35-3 3v5c0 1.65 1.35 3 3 3h18c1.65 0 3-1.35 3-3v-5c0-1.65-1.35-3-3-3zM5 7c0-.55.45-1 1-1h12c.55 0 1 .45 1 1v2.78c-.61.55-1 1.34-1 2.22v2H6v-2c0-.88-.39-1.67-1-2.22V7zm17 10c0 .55-.45 1-1 1H3c-.55 0-1-.45-1-1v-5c0-.55.45-1 1-1s1 .45 1 1v4h16v-4c0-.55.45-1 1-1s1 .45 1 1v5z"/></svg><text lineHeight="1.2" class="djs-label" style="font-family: Arial, sans-serif; font-size: 12px; font-weight: normal; fill: rgb(0, 0, 0);"><tspan x="10.484375" y="74.75">sold seats</tspan></text></g><rect class="djs-hit djs-hit-all" x="0" y="0" width="75" height="75" style="fill: none; stroke-opacity: 0; stroke: white; stroke-width: 15px;"/><rect x="-6" y="-6" width="87" height="87" class="djs-outline" style="fill: none;"/></g></g><g class="djs-group"><g class="djs-element djs-shape" data-element-id="shape_7909" style="display: block;" transform="matrix(1 0 0 1 1140 259)"><g class="djs-visual"><svg xmlns="http://www.w3.org/2000/svg" fill=" black" width="48.75" height="48.75" viewBox="0 0 24 28" x="12.5" y="12.5"><path d="M0 0h24v24H0z" fill="none"/><path d="M20 2H4c-1.1 0-2 .9-2 2v16c0 1.1.9 2 2 2h16c1.1 0 2-.9 2-2V4c0-1.1-.9-2-2-2zM8 20H4v-4h4v4zm0-6H4v-4h4v4zm0-6H4V4h4v4zm6 12h-4v-4h4v4zm0-6h-4v-4h4v4zm0-6h-4V4h4v4zm6 12h-4v-4h4v4zm0-6h-4v-4h4v4zm0-6h-4V4h4v4z"/></svg><text lineHeight="1.2" class="djs-label" style="font-family: Arial, sans-serif; font-size: 12px; font-weight: normal; fill: rgb(0, 0, 0);"><tspan x="5.140625" y="74.75">seating plan</tspan></text></g><rect class="djs-hit djs-hit-all" x="0" y="0" width="75" height="75" style="fill: none; stroke-opacity: 0; stroke: white; stroke-width: 15px;"/><rect x="-6" y="-6" width="87" height="87" class="djs-outline" style="fill: none;"/></g></g><g class="djs-group"><g class="djs-element djs-shape" data-element-id="shape_4769" style="display: block;" transform="matrix(1 0 0 1 402 481)"><g class="djs-visual"><svg xmlns="http://www.w3.org/2000/svg" fill=" black" width="48.75" height="48.75" viewBox="0 0 24 28" x="12.5" y="12.5"><path fill="none" d="M0 0h24v24H0V0z"/><path d="M19.5 3.5L18 2l-1.5 1.5L15 2l-1.5 1.5L12 2l-1.5 1.5L9 2 7.5 3.5 6 2 4.5 3.5 3 2v20l1.5-1.5L6 22l1.5-1.5L9 22l1.5-1.5L12 22l1.5-1.5L15 22l1.5-1.5L18 22l1.5-1.5L21 22V2l-1.5 1.5zM19 19.09H5V4.91h14v14.18zM6 15h12v2H6zm0-4h12v2H6zm0-4h12v2H6z"/></svg><text lineHeight="1.2" class="djs-label" style="font-family: Arial, sans-serif; font-size: 12px; font-weight: normal; fill: rgb(0, 0, 0);"><tspan x="20.4921875" y="74.75">tickets</tspan></text></g><rect class="djs-hit djs-hit-all" x="0" y="0" width="75" height="75" style="fill: none; stroke-opacity: 0; stroke: white; stroke-width: 15px;"/><rect x="-6" y="-6" width="87" height="87" class="djs-outline" style="fill: none;"/></g></g><g class="djs-group"><g class="djs-element djs-shape" data-element-id="shape_2566" style="display: block;" transform="matrix(1 0 0 1 402 372)"><g class="djs-visual"><svg xmlns="http://www.w3.org/2000/svg" fill=" black" width="48.75" height="48.75" viewBox="0 0 24 26" x="12.5" y="12.5"><path fill="none" d="M0 0h24v24H0V0z"/><path d="M15 18.5c-2.51 0-4.68-1.42-5.76-3.5H15v-2H8.58c-.05-.33-.08-.66-.08-1s.03-.67.08-1H15V9H9.24C10.32 6.92 12.5 5.5 15 5.5c1.61 0 3.09.59 4.23 1.57L21 5.3C19.41 3.87 17.3 3 15 3c-3.92 0-7.24 2.51-8.48 6H3v2h3.06c-.04.33-.06.66-.06 1s.02.67.06 1H3v2h3.52c1.24 3.49 4.56 6 8.48 6 2.31 0 4.41-.87 6-2.3l-1.78-1.77c-1.13.98-2.6 1.57-4.22 1.57z"/></svg><text lineHeight="1.2" class="djs-label" style="font-family: Arial, sans-serif; font-size: 12px; font-weight: normal; fill: rgb(0, 0, 0);"><tspan x="19.34375" y="74.75">money</tspan></text></g><rect class="djs-hit djs-hit-all" x="0" y="0" width="75" height="75" style="fill: none; stroke-opacity: 0; stroke: white; stroke-width: 15px;"/><rect x="-6" y="-6" width="87" height="87" class="djs-outline" style="fill: none;"/></g></g><g class="djs-group"><g class="djs-element djs-shape" data-element-id="shape_4121" style="display: block;" transform="matrix(1 0 0 1 893 416)"><g class="djs-visual"><svg xmlns="http://www.w3.org/2000/svg" fill=" black" width="48.75" height="48.75" viewBox="0 0 24 28" x="12.5" y="12.5"><path fill="none" d="M0 0h24v24H0V0z"/><path d="M19.5 3.5L18 2l-1.5 1.5L15 2l-1.5 1.5L12 2l-1.5 1.5L9 2 7.5 3.5 6 2 4.5 3.5 3 2v20l1.5-1.5L6 22l1.5-1.5L9 22l1.5-1.5L12 22l1.5-1.5L15 22l1.5-1.5L18 22l1.5-1.5L21 22V2l-1.5 1.5zM19 19.09H5V4.91h14v14.18zM6 15h12v2H6zm0-4h12v2H6zm0-4h12v2H6z"/></svg><text lineHeight="1.2" class="djs-label" style="font-family: Arial, sans-serif; font-size: 12px; font-weight: normal; fill: rgb(0, 0, 0);"><tspan x="20.4921875" y="74.75">tickets</tspan></text></g><rect class="djs-hit djs-hit-all" x="0" y="0" width="75" height="75" style="fill: none; stroke-opacity: 0; stroke: white; stroke-width: 15px;"/><rect x="-6" y="-6" width="87" height="87" class="djs-outline" style="fill: none;"/></g></g><g class="djs-group"><g class="djs-element djs-shape" data-element-id="shape_2857" style="display: block;" transform="matrix(1 0 0 1 119 105)"><g class="djs-visual"><rect x="0" y="0" width="100" height="42" rx="0" ry="0" style="stroke: none; stroke-width: 2px; fill: none;"/><path d="m 0, 0 m 10,0 l -10,0 l 0,42 l 10,0" style="fill: none; stroke-width: 2px; stroke: black;"/><text lineHeight="1.2" class="djs-label" style="font-family: Arial, sans-serif; font-size: 12px; font-weight: normal; fill: black;"><tspan x="5" y="15.799999999999999">does not have a </tspan><tspan x="5" y="30.199999999999996">subscription</tspan></text></g><rect class="djs-hit djs-hit-all" x="0" y="0" width="100" height="42" style="fill: none; stroke-opacity: 0; stroke: white; stroke-width: 15px;"/><rect x="-6" y="-6" width="112" height="54" class="djs-outline" style="fill: none;"/></g></g><g class="djs-group"><g class="djs-element djs-shape" data-element-id="shape_3569" style="display: block;" transform="matrix(1 0 0 1 1315 135)"><g class="djs-visual"><svg xmlns="http://www.w3.org/2000/svg" fill=" black" viewBox="0 0 24 26" width="75" height="75"><path d="M20,18c1.1,0,2-0.9,2-2V6c0-1.1-0.9-2-2-2H4C2.9,4,2,4.9,2,6v10c0,1.1,0.9,2,2,2H0v2h24v-2H20z M4,6h16v10H4V6z"/></svg><text lineHeight="1.2" class="djs-label" style="font-family: Arial, sans-serif; font-size: 12px; font-weight: normal; fill: rgb(0, 0, 0);"><tspan x="0" y="75">cinema system</tspan></text></g><rect class="djs-hit djs-hit-all" x="0" y="0" width="75" height="75" style="fill: none; stroke-opacity: 0; stroke: white; stroke-width: 15px;"/><rect x="-6" y="-6" width="87" height="87" class="djs-outline" style="fill: none;"/></g></g><g class="djs-group"><g class="djs-element djs-connection" data-element-id="connection_1124" style="display: block;"><g class="djs-visual"><polyline points="191,183 171,147 " style="stroke: rgb(0, 0, 0); stroke-width: 1.5px; stroke-linejoin: round; stroke-dasharray: 5, 5;"/></g><polyline points="191,183 171,147 " class="djs-hit djs-hit-stroke" style="fill: none; stroke-opacity: 0; stroke: white; stroke-width: 15px;"/><rect x="165" y="141" width="32" height="48" class="djs-outline" style="fill: none;"/></g></g><g class="djs-group"><g class="djs-element djs-connection" data-element-id="connection_0883" style="display: block;"><g class="djs-visual"><polyline points="471,222 511,249 " style="stroke: rgb(0, 0, 0); stroke-width: 1.5px; stroke-linejoin: round; stroke-dasharray: 5, 5;"/></g><polyline points="471,222 511,249 " class="djs-hit djs-hit-stroke" style="fill: none; stroke-opacity: 0; stroke: white; stroke-width: 15px;"/><rect x="465" y="216" width="52" height="39" class="djs-outline" style="fill: none;"/></g></g><g class="djs-group"><g class="djs-element djs-connection" data-element-id="connection_6507" style="display: block;"><g class="djs-visual"><polyline points="229,163 229,88 402,88 " style="stroke: black; fill: none; stroke-width: 1.5px; stroke-linejoin: round; marker-end: url('#activity-black-black-ca6qmftkh54ld0lsbga8333k9');"/><text lineHeight="1.2" wordWrap="break-word" overflowWrap="break-word" hyphens="auto" class="djs-label" style="font-family: Arial, sans-serif; font-size: 11px; font-weight: normal; fill: black;"><tspan x="296.75" y="103">tells</tspan></text><text lineHeight="1.2" position="absolute" class="djs-labelNumber" style="font-family: Courier; font-size: 150px; font-weight: normal; fill: rgb(66, 174, 187);"><tspan x="264.5" y="84">.</tspan></text><text lineHeight="1.2" backgroundColor="green" position="absolute" class="djs-labelNumber" style="font-family: Arial, sans-serif; font-size: 11px; font-weight: normal; fill: white;"><tspan x="303.5" y="79">01</tspan></text></g><polyline points="229,163 229,88 402,88 " class="djs-hit djs-hit-stroke" style="fill: none; stroke-opacity: 0; stroke: white; stroke-width: 15px;"/><rect x="223" y="82" width="185" height="87" class="djs-outline" style="fill: none;"/></g></g><g class="djs-group"><g class="djs-element djs-connection" data-element-id="connection_3579" style="display: block;"><g class="djs-visual"><polyline points="482,88 682,88 701,163 " style="stroke: black; fill: none; stroke-width: 1.5px; stroke-linejoin: round; marker-end: url('#activity-black-black-ca6qmftkh54ld0lsbga8333k9');"/><text lineHeight="1.2" wordWrap="break-word" overflowWrap="break-word" hyphens="auto" class="djs-label" style="font-family: Arial, sans-serif; font-size: 11px; font-weight: normal; fill: black;"><tspan x="570.9" y="103">to</tspan></text></g><polyline points="482,88 682,88 701,163 " class="djs-hit djs-hit-stroke" style="fill: none; stroke-opacity: 0; stroke: white; stroke-width: 15px;"/><rect x="476" y="82" width="231" height="87" class="djs-outline" style="fill: none;"/></g></g><g class="djs-group"><g class="djs-element djs-connection" data-element-id="connection_7616" style="display: block;"><g class="djs-visual"><polyline points="741,173 1000,173 " style="stroke: black; fill: none; stroke-width: 1.5px; stroke-linejoin: round; marker-end: url('#activity-black-black-ca6qmftkh54ld0lsbga8333k9');"/><text lineHeight="1.2" wordWrap="break-word" overflowWrap="break-word" hyphens="auto" class="djs-label" style="font-family: Arial, sans-serif; font-size: 11px; font-weight: normal; fill: black;"><tspan x="833.9" y="188">searches for</tspan></text><text lineHeight="1.2" position="absolute" class="djs-labelNumber" style="font-family: Courier; font-size: 150px; font-weight: normal; fill: rgb(66, 174, 187);"><tspan x="819.5" y="169">.</tspan></text><text lineHeight="1.2" backgroundColor="green" position="absolute" class="djs-labelNumber" style="font-family: Arial, sans-serif; font-size: 11px; font-weight: normal; fill: white;"><tspan x="858.5" y="164">03</tspan></text></g><polyline points="741,173 1000,173 " class="djs-hit djs-hit-stroke" style="fill: none; stroke-opacity: 0; stroke: white; stroke-width: 15px;"/><rect x="735" y="167" width="271" height="12" class="djs-outline" style="fill: none;"/></g></g><g class="djs-group"><g class="djs-element djs-connection" data-element-id="connection_1193" style="display: block;"><g class="djs-visual"><polyline points="688,201 482,201 " style="stroke: black; fill: none; stroke-width: 1.5px; stroke-linejoin: round; marker-end: url('#activity-black-black-ca6qmftkh54ld0lsbga8333k9');"/><text lineHeight="1.2" wordWrap="break-word" overflowWrap="break-word" hyphens="auto" class="djs-label" style="font-family: Arial, sans-serif; font-size: 11px; font-weight: normal; fill: black;"><tspan x="558.6" y="216">suggests</tspan></text><text lineHeight="1.2" position="absolute" class="djs-labelNumber" style="font-family: Courier; font-size: 150px; font-weight: normal; fill: rgb(66, 174, 187);"><tspan x="534" y="197">.</tspan></text><text lineHeight="1.2" backgroundColor="green" position="absolute" class="djs-labelNumber" style="font-family: Arial, sans-serif; font-size: 11px; font-weight: normal; fill: white;"><tspan x="573" y="192">04</tspan></text></g><polyline points="688,201 482,201 " class="djs-hit djs-hit-stroke" style="fill: none; stroke-opacity: 0; stroke: white; stroke-width: 15px;"/><rect x="476" y="195" width="218" height="12" class="djs-outline" style="fill: none;"/></g></g><g class="djs-group"><g class="djs-element djs-connection" data-element-id="connection_9433" style="display: block;"><g class="djs-visual"><polyline points="402,201 271,201 " style="stroke: black; fill: none; stroke-width: 1.5px; stroke-linejoin: round; marker-end: url('#activity-black-black-ca6qmftkh54ld0lsbga8333k9');"/><text lineHeight="1.2" wordWrap="break-word" overflowWrap="break-word" hyphens="auto" class="djs-label" style="font-family: Arial, sans-serif; font-size: 11px; font-weight: normal; fill: black;"><tspan x="325.4" y="216">to</tspan></text></g><polyline points="402,201 271,201 " class="djs-hit djs-hit-stroke" style="fill: none; stroke-opacity: 0; stroke: white; stroke-width: 15px;"/><rect x="265" y="195" width="143" height="12" class="djs-outline" style="fill: none;"/></g></g><g class="djs-group"><g class="djs-element djs-connection" data-element-id="connection_9588" style="display: block;"><g class="djs-visual"><polyline points="254,247 332,307 402,307 " style="stroke: black; fill: none; stroke-width: 1.5px; stroke-linejoin: round; marker-end: url('#activity-black-black-ca6qmftkh54ld0lsbga8333k9');"/><text lineHeight="1.2" wordWrap="break-word" overflowWrap="break-word" hyphens="auto" class="djs-label" style="font-family: Arial, sans-serif; font-size: 11px; font-weight: normal; fill: black;"><tspan x="340.6" y="322">confirms</tspan></text><text lineHeight="1.2" position="absolute" class="djs-labelNumber" style="font-family: Courier; font-size: 150px; font-weight: normal; fill: rgb(66, 174, 187);"><tspan x="316" y="303">.</tspan></text><text lineHeight="1.2" backgroundColor="green" position="absolute" class="djs-labelNumber" style="font-family: Arial, sans-serif; font-size: 11px; font-weight: normal; fill: white;"><tspan x="355" y="298">05</tspan></text></g><polyline points="254,247 332,307 402,307 " class="djs-hit djs-hit-stroke" style="fill: none; stroke-opacity: 0; stroke: white; stroke-width: 15px;"/><rect x="248" y="241" width="160" height="72" class="djs-outline" style="fill: none;"/></g></g><g class="djs-group"><g class="djs-element djs-connection" data-element-id="connection_1795" style="display: block;"><g class="djs-visual"><polyline points="482,307 545,307 688,223 " style="stroke: black; fill: none; stroke-width: 1.5px; stroke-linejoin: round; marker-end: url('#activity-black-black-ca6qmftkh54ld0lsbga8333k9');"/></g><polyline points="482,307 545,307 688,223 " class="djs-hit djs-hit-stroke" style="fill: none; stroke-opacity: 0; stroke: white; stroke-width: 15px;"/><rect x="476" y="217" width="218" height="96" class="djs-outline" style="fill: none;"/></g></g><g class="djs-group"><g class="djs-element djs-connection" data-element-id="connection_1720" style="display: block;"><g class="djs-visual"><polyline points="770,208 1000,293 " style="stroke: black; fill: none; stroke-width: 1.5px; stroke-linejoin: round; marker-end: url('#activity-black-black-ca6qmftkh54ld0lsbga8333k9');"/><text lineHeight="1.2" wordWrap="break-word" overflowWrap="break-word" hyphens="auto" class="djs-label" style="font-family: Arial, sans-serif; font-size: 11px; font-weight: normal; fill: black;"><tspan x="892.3804265148194" y="242.7536176765463">marks</tspan></text><text lineHeight="1.2" position="absolute" class="djs-labelNumber" style="font-family: Courier; font-size: 150px; font-weight: normal; fill: rgb(66, 174, 187);"><tspan x="827.3804265148194" y="223.7536176765463">.</tspan></text><text lineHeight="1.2" backgroundColor="green" position="absolute" class="djs-labelNumber" style="font-family: Arial, sans-serif; font-size: 11px; font-weight: normal; fill: white;"><tspan x="866.3804265148194" y="218.7536176765463">06</tspan></text></g><polyline points="770,208 1000,293 " class="djs-hit djs-hit-stroke" style="fill: none; stroke-opacity: 0; stroke: white; stroke-width: 15px;"/><rect x="764" y="202" width="242" height="97" class="djs-outline" style="fill: none;"/></g></g><g class="djs-group"><g class="djs-element djs-connection" data-element-id="connection_5050" style="display: block;"><g class="djs-visual"><polyline points="690,248 639,410 482,410 " style="stroke: black; fill: none; stroke-width: 1.5px; stroke-linejoin: round; marker-end: url('#activity-black-black-ca6qmftkh54ld0lsbga8333k9');"/><text lineHeight="1.2" wordWrap="break-word" overflowWrap="break-word" hyphens="auto" class="djs-label" style="font-family: Arial, sans-serif; font-size: 11px; font-weight: normal; fill: black;"><tspan x="534.1" y="425">collects</tspan></text><text lineHeight="1.2" position="absolute" class="djs-labelNumber" style="font-family: Courier; font-size: 150px; font-weight: normal; fill: rgb(66, 174, 187);"><tspan x="509.5" y="406">.</tspan></text><text lineHeight="1.2" backgroundColor="green" position="absolute" class="djs-labelNumber" style="font-family: Arial, sans-serif; font-size: 11px; font-weight: normal; fill: white;"><tspan x="548.5" y="401">07</tspan></text></g><polyline points="690,248 639,410 482,410 " class="djs-hit djs-hit-stroke" style="fill: none; stroke-opacity: 0; stroke: white; stroke-width: 15px;"/><rect x="476" y="242" width="220" height="174" class="djs-outline" style="fill: none;"/></g></g><g class="djs-group"><g class="djs-element djs-connection" data-element-id="connection_0204" style="display: block;"><g class="djs-visual"><polyline points="402,410 268,410 242,244 " style="stroke: black; fill: none; stroke-width: 1.5px; stroke-linejoin: round; marker-end: url('#activity-black-black-ca6qmftkh54ld0lsbga8333k9');"/><text lineHeight="1.2" wordWrap="break-word" overflowWrap="break-word" hyphens="auto" class="djs-label" style="font-family: Arial, sans-serif; font-size: 11px; font-weight: normal; fill: black;"><tspan x="318.8" y="425">from</tspan></text></g><polyline points="402,410 268,410 242,244 " class="djs-hit djs-hit-stroke" style="fill: none; stroke-opacity: 0; stroke: white; stroke-width: 15px;"/><rect x="236" y="238" width="172" height="178" class="djs-outline" style="fill: none;"/></g></g><g class="djs-group"><g class="djs-element djs-connection" data-element-id="connection_2727" style="display: block;"><g class="djs-visual"><polyline points="749,245 911,416 " style="stroke: black; fill: none; stroke-width: 1.5px; stroke-linejoin: round; marker-end: url('#activity-black-black-ca6qmftkh54ld0lsbga8333k9');"/><text lineHeight="1.2" wordWrap="break-word" overflowWrap="break-word" hyphens="auto" class="djs-label" style="font-family: Arial, sans-serif; font-size: 11px; font-weight: normal; fill: black;"><tspan x="841.758026283163" y="325.67201752210866">writes seat numbers on</tspan></text><text lineHeight="1.2" position="absolute" class="djs-labelNumber" style="font-family: Courier; font-size: 150px; font-weight: normal; fill: rgb(66, 174, 187);"><tspan x="776.758026283163" y="306.67201752210866">.</tspan></text><text lineHeight="1.2" backgroundColor="green" position="absolute" class="djs-labelNumber" style="font-family: Arial, sans-serif; font-size: 11px; font-weight: normal; fill: white;"><tspan x="815.758026283163" y="301.67201752210866">08</tspan></text></g><polyline points="749,245 911,416 " class="djs-hit djs-hit-stroke" style="fill: none; stroke-opacity: 0; stroke: white; stroke-width: 15px;"/><rect x="743" y="239" width="174" height="183" class="djs-outline" style="fill: none;"/></g></g><g class="djs-group"><g class="djs-element djs-connection" data-element-id="connection_2355" style="display: block;"><g class="djs-visual"><polyline points="710,248 710,519 482,519 " style="stroke: black; fill: none; stroke-width: 1.5px; stroke-linejoin: round; marker-end: url('#activity-black-black-ca6qmftkh54ld0lsbga8333k9');"/><text lineHeight="1.2" wordWrap="break-word" overflowWrap="break-word" hyphens="auto" class="djs-label" style="font-family: Arial, sans-serif; font-size: 11px; font-weight: normal; fill: black;"><tspan x="564.5" y="534">hands over</tspan></text><text lineHeight="1.2" position="absolute" class="djs-labelNumber" style="font-family: Courier; font-size: 150px; font-weight: normal; fill: rgb(66, 174, 187);"><tspan x="545" y="515">.</tspan></text><text lineHeight="1.2" backgroundColor="green" position="absolute" class="djs-labelNumber" style="font-family: Arial, sans-serif; font-size: 11px; font-weight: normal; fill: white;"><tspan x="584" y="510">09</tspan></text></g><polyline points="710,248 710,519 482,519 " class="djs-hit djs-hit-stroke" style="fill: none; stroke-opacity: 0; stroke: white; stroke-width: 15px;"/><rect x="476" y="242" width="240" height="283" class="djs-outline" style="fill: none;"/></g></g><g class="djs-group"><g class="djs-element djs-connection" data-element-id="connection_6197" style="display: block;"><g class="djs-visual"><polyline points="402,519 224,519 224,248 " style="stroke: black; fill: none; stroke-width: 1.5px; stroke-linejoin: round; marker-end: url('#activity-black-black-ca6qmftkh54ld0lsbga8333k9');"/></g><polyline points="402,519 224,519 224,248 " class="djs-hit djs-hit-stroke" style="fill: none; stroke-opacity: 0; stroke: white; stroke-width: 15px;"/><rect x="218" y="242" width="190" height="283" class="djs-outline" style="fill: none;"/></g></g><g class="djs-group"><g class="djs-element djs-connection" data-element-id="connection_3716" style="display: block;"><g class="djs-visual"><polyline points="732,165 745,88 1000,88 " style="stroke: black; fill: none; stroke-width: 1.5px; stroke-linejoin: round; marker-end: url('#activity-black-black-ca6qmftkh54ld0lsbga8333k9');"/><text lineHeight="1.2" wordWrap="break-word" overflowWrap="break-word" hyphens="auto" class="djs-label" style="font-family: Arial, sans-serif; font-size: 11px; font-weight: normal; fill: black;"><tspan x="838.45" y="103">gets show's</tspan></text><text lineHeight="1.2" position="absolute" class="djs-labelNumber" style="font-family: Courier; font-size: 150px; font-weight: normal; fill: rgb(66, 174, 187);"><tspan x="821.5" y="84">.</tspan></text><text lineHeight="1.2" backgroundColor="green" position="absolute" class="djs-labelNumber" style="font-family: Arial, sans-serif; font-size: 11px; font-weight: normal; fill: white;"><tspan x="860.5" y="79">02</tspan></text></g><polyline points="732,165 745,88 1000,88 " class="djs-hit djs-hit-stroke" style="fill: none; stroke-opacity: 0; stroke: white; stroke-width: 15px;"/><rect x="726" y="82" width="280" height="89" class="djs-outline" style="fill: none;"/></g></g><g class="djs-group"><g class="djs-element djs-connection" data-element-id="connection_4598" style="display: block;"><g class="djs-visual"><polyline points="1080,173 1140,173 " style="stroke: black; fill: none; stroke-width: 1.5px; stroke-linejoin: round; marker-end: url('#activity-black-black-ca6qmftkh54ld0lsbga8333k9');"/><text lineHeight="1.2" wordWrap="break-word" overflowWrap="break-word" hyphens="auto" class="djs-label" style="font-family: Arial, sans-serif; font-size: 11px; font-weight: normal; fill: black;"><tspan x="1098.9" y="188">in</tspan></text></g><polyline points="1080,173 1140,173 " class="djs-hit djs-hit-stroke" style="fill: none; stroke-opacity: 0; stroke: white; stroke-width: 15px;"/><rect x="1074" y="167" width="72" height="12" class="djs-outline" style="fill: none;"/></g></g><g class="djs-group"><g class="djs-element djs-connection" data-element-id="connection_0416" style="display: block;"><g class="djs-visual"><polyline points="1081,293 1140,293 " style="stroke: black; fill: none; stroke-width: 1.5px; stroke-linejoin: round; marker-end: url('#activity-black-black-ca6qmftkh54ld0lsbga8333k9');"/><text lineHeight="1.2" wordWrap="break-word" overflowWrap="break-word" hyphens="auto" class="djs-label" style="font-family: Arial, sans-serif; font-size: 11px; font-weight: normal; fill: black;"><tspan x="1099.4" y="308">in</tspan></text></g><polyline points="1081,293 1140,293 " class="djs-hit djs-hit-stroke" style="fill: none; stroke-opacity: 0; stroke: white; stroke-width: 15px;"/><rect x="1075" y="287" width="71" height="12" class="djs-outline" style="fill: none;"/></g></g><g class="djs-group"><g class="djs-element djs-connection" data-element-id="connection_7277" style="display: block;"><g class="djs-visual"><polyline points="1081,88 1249,88 1329,135 " style="stroke: black; fill: none; stroke-width: 1.5px; stroke-linejoin: round; marker-end: url('#activity-black-black-ca6qmftkh54ld0lsbga8333k9');"/></g><polyline points="1081,88 1249,88 1329,135 " class="djs-hit djs-hit-stroke" style="fill: none; stroke-opacity: 0; stroke: white; stroke-width: 15px;"/><rect x="1075" y="82" width="260" height="59" class="djs-outline" style="fill: none;"/></g></g><g class="djs-group"><g class="djs-element djs-connection" data-element-id="connection_2780" style="display: block;"><g class="djs-visual"><polyline points="1220,176 1311,175 " style="stroke: black; fill: none; stroke-width: 1.5px; stroke-linejoin: round; marker-end: url('#activity-black-black-ca6qmftkh54ld0lsbga8333k9');"/></g><polyline points="1220,176 1311,175 " class="djs-hit djs-hit-stroke" style="fill: none; stroke-opacity: 0; stroke: white; stroke-width: 15px;"/><rect x="1214" y="169" width="103" height="13" class="djs-outline" style="fill: none;"/></g></g><g class="djs-group"><g class="djs-element djs-connection" data-element-id="connection_6063" style="display: block;"><g class="djs-visual"><polyline points="1221,297 1257,297 1325,220 " style="stroke: black; fill: none; stroke-width: 1.5px; stroke-linejoin: round; marker-end: url('#activity-black-black-ca6qmftkh54ld0lsbga8333k9');"/></g><polyline points="1221,297 1257,297 1325,220 " class="djs-hit djs-hit-stroke" style="fill: none; stroke-opacity: 0; stroke: white; stroke-width: 15px;"/><rect x="1215" y="214" width="116" height="89" class="djs-outline" style="fill: none;"/></g></g></svg>