<?xml version="1.0" encoding="utf-8"?>
<!-- created with bpmn-js / http://bpmn.io -->
<!DOCTYPE svg PUBLIC "-//W3C//DTD SVG 1.1//EN" "http://www.w3.org/Graphics/SVG/1.1/DTD/svg11.dtd">
<svg xmlns="http://www.w3.org/2000/svg" xmlns:xlink="http://www.w3.org/1999/xlink" width="951" height=" 697.859375" viewBox="201 -141.859375 951 697.859375" version="1.1"><defs><marker id="activity-black-#000000-c88qeynnqtwh0ojpoenjm92ry" viewBox="0 0 20 20" refX="11" refY="10" markerWidth="10" markerHeight="10" orient="auto"><path d="M 1 5 L 11 10 L 1 15 Z" style="fill: rgb(0, 0, 0); stroke-width: 1px; stroke-linecap: round; stroke-dasharray: 10000, 1; stroke: rgb(0, 0, 0);"/></marker></defs><g class="djs-group"><g class="djs-element djs-shape" style = "display:block" transform="translate(211 -111.859375)"><g class="djs-visual"><text lineHeight="1.2" class="djs-label" style="font-family: Arial, sans-serif; font-size: 30px; font-weight: normal; fill: rgb(0, 0, 0);"><tspan x="8" y="10">buy tickets at box office</tspan></text><text lineHeight="1.2" class="djs-label" style="font-family: Arial, sans-serif; font-size: 12px; font-weight: normal; fill: rgb(0, 0, 0);"><tspan x="8" y="30">Assumption: no line at box office, seats available, cash payment</tspan></text></g></g></g><g class="djs-group"><g class="djs-element djs-shape" data-element-id="shape_5209" style="display: block;" transform="translate(522 390)"><g class="djs-visual"><svg xmlns="http://www.w3.org/2000/svg" fill="#000000" height="48.75" viewBox="0 0 24 24" width="48.75" x="12.5" y="12.5"><path d="M0 0h24v24H0V0z" fill="none"/><path d="M20 2H4c-1.1 0-2 .9-2 2v18l4-4h14c1.1 0 2-.9 2-2V4c0-1.1-.9-2-2-2zm0 14H6l-2 2V4h16v12z"/></svg><text lineHeight="1.2" class="djs-label" style="font-family: Arial, sans-serif; font-size: 12px; font-weight: normal; fill: rgb(0, 0, 0);"><tspan x="24.5" y="74.75">price</tspan></text></g><rect x="0" y="0" width="75" height="75" class="djs-hit" style="fill: none; stroke-opacity: 0; stroke: white; stroke-width: 15px;"/><rect x="-6" y="-6" width="87" height="87" class="djs-outline" style="fill: none;"/></g></g><g class="djs-group"><g class="djs-element djs-connection" data-element-id="connection_5202" style="display: block;"><g class="djs-visual"><polyline points="252,164 252,40 " style="stroke: rgb(0, 0, 0); fill: none; stroke-width: 1.5px; stroke-linejoin: round; marker-end: url('#activity-black-#000000-c88qeynnqtwh0ojpoenjm92ry');"/><text lineHeight="1.2" wordWrap="break-word" overflowWrap="break-word" hyphens="auto" class="djs-label" style="font-family: Arial, sans-serif; font-size: 11px; font-weight: normal; fill: black;"><tspan x="266" y="102">chooses movie from</tspan></text><text lineHeight="1.2" position="absolute" class="djs-labelNumber" style="font-family: Courier; font-size: 150px; font-weight: normal; fill: rgb(66, 174, 187);"><tspan x="201" y="83">.</tspan></text><text lineHeight="1.2" backgroundColor="green" position="absolute" class="djs-labelNumber" style="font-family: Arial, sans-serif; font-size: 11px; font-weight: normal; fill: black;"><tspan x="240" y="78">01</tspan></text></g><polyline points="252,164 252,40 " class="djs-hit" style="fill: none; stroke-opacity: 0; stroke: white; stroke-width: 15px;"/><rect x="246" y="34" width="12" height="136" class="djs-outline" style="fill: none;"/></g></g><g class="djs-group"><g class="djs-element djs-connection" data-element-id="connection_7380" style="display: block;"><g class="djs-visual"><polyline points="288,-14 316,-19 " style="stroke: rgb(0, 0, 0); stroke-width: 1.5px; stroke-linejoin: round; stroke-dasharray: 5, 5;"/></g><polyline points="288,-14 316,-19 " class="djs-hit" style="fill: none; stroke-opacity: 0; stroke: white; stroke-width: 15px;"/><rect x="282" y="-25" width="40" height="17" class="djs-outline" style="fill: none;"/></g></g><g class="djs-group"><g class="djs-element djs-connection" data-element-id="connection_7781" style="display: block;"><g class="djs-visual"><polyline points="277,185 522,19 " style="stroke: rgb(0, 0, 0); fill: none; stroke-width: 1.5px; stroke-linejoin: round; marker-end: url('#activity-black-#000000-c88qeynnqtwh0ojpoenjm92ry');"/><text lineHeight="1.2" wordWrap="break-word" overflowWrap="break-word" hyphens="auto" class="djs-label" style="font-family: Arial, sans-serif; font-size: 11px; font-weight: normal; fill: black;"><tspan x="412.81339273701707" y="111.31339273701705">asks for</tspan></text><text lineHeight="1.2" position="absolute" class="djs-labelNumber" style="font-family: Courier; font-size: 150px; font-weight: normal; fill: rgb(66, 174, 187);"><tspan x="347.81339273701707" y="92.31339273701705">.</tspan></text><text lineHeight="1.2" backgroundColor="green" position="absolute" class="djs-labelNumber" style="font-family: Arial, sans-serif; font-size: 11px; font-weight: normal; fill: black;"><tspan x="386.81339273701707" y="87.31339273701705">02</tspan></text></g><polyline points="277,185 522,19 " class="djs-hit" style="fill: none; stroke-opacity: 0; stroke: white; stroke-width: 15px;"/><rect x="271" y="13" width="257" height="178" class="djs-outline" style="fill: none;"/></g></g><g class="djs-group"><g class="djs-element djs-connection" data-element-id="connection_3361" style="display: block;"><g class="djs-visual"><polyline points="602,-7 697,-7 697,164 " style="stroke: rgb(0, 0, 0); fill: none; stroke-width: 1.5px; stroke-linejoin: round; marker-end: url('#activity-black-#000000-c88qeynnqtwh0ojpoenjm92ry');"/></g><polyline points="602,-7 697,-7 697,164 " class="djs-hit" style="fill: none; stroke-opacity: 0; stroke: white; stroke-width: 15px;"/><rect x="596" y="-13" width="107" height="183" class="djs-outline" style="fill: none;"/></g></g><g class="djs-group"><g class="djs-element djs-connection" data-element-id="connection_5224" style="display: block;"><g class="djs-visual"><polyline points="883,-7 925,-7 952,164 " style="stroke: rgb(0, 0, 0); fill: none; stroke-width: 1.5px; stroke-linejoin: round; marker-end: url('#activity-black-#000000-c88qeynnqtwh0ojpoenjm92ry');"/><text lineHeight="1.2" wordWrap="break-word" overflowWrap="break-word" hyphens="auto" class="djs-label" style="font-family: Arial, sans-serif; font-size: 11px; font-weight: normal; fill: black;"><tspan x="892.9" y="8">in</tspan></text></g><polyline points="883,-7 925,-7 952,164 " class="djs-hit" style="fill: none; stroke-opacity: 0; stroke: white; stroke-width: 15px;"/><rect x="877" y="-13" width="81" height="183" class="djs-outline" style="fill: none;"/></g></g><g class="djs-group"><g class="djs-element djs-connection" data-element-id="connection_9708" style="display: block;"><g class="djs-visual"><polyline points="718,167 755,-7 803,-7 " style="stroke: rgb(0, 0, 0); fill: none; stroke-width: 1.5px; stroke-linejoin: round; marker-end: url('#activity-black-#000000-c88qeynnqtwh0ojpoenjm92ry');"/><text lineHeight="1.2" wordWrap="break-word" overflowWrap="break-word" hyphens="auto" class="djs-label" style="font-family: Arial, sans-serif; font-size: 11px; font-weight: normal; fill: black;"><tspan x="742.5007959262869" y="82.00079592628686">looks up</tspan></text><text lineHeight="1.2" position="absolute" class="djs-labelNumber" style="font-family: Courier; font-size: 150px; font-weight: normal; fill: rgb(66, 174, 187);"><tspan x="677.5007959262869" y="63.000795926286855">.</tspan></text><text lineHeight="1.2" backgroundColor="green" position="absolute" class="djs-labelNumber" style="font-family: Arial, sans-serif; font-size: 11px; font-weight: normal; fill: black;"><tspan x="716.5007959262869" y="58.000795926286855">03</tspan></text></g><polyline points="718,167 755,-7 803,-7 " class="djs-hit" style="fill: none; stroke-opacity: 0; stroke: white; stroke-width: 15px;"/><rect x="712" y="-13" width="97" height="186" class="djs-outline" style="fill: none;"/></g></g><g class="djs-group"><g class="djs-element djs-connection" data-element-id="connection_2251" style="display: block;"><g class="djs-visual"><polyline points="672,180 593,134 " style="stroke: rgb(0, 0, 0); fill: none; stroke-width: 1.5px; stroke-linejoin: round; marker-end: url('#activity-black-#000000-c88qeynnqtwh0ojpoenjm92ry');"/><text lineHeight="1.2" wordWrap="break-word" overflowWrap="break-word" hyphens="auto" class="djs-label" style="font-family: Arial, sans-serif; font-size: 11px; font-weight: normal; fill: black;"><tspan x="648.178406799213" y="150.3568135984261">shows</tspan></text><text lineHeight="1.2" position="absolute" class="djs-labelNumber" style="font-family: Courier; font-size: 150px; font-weight: normal; fill: rgb(66, 174, 187);"><tspan x="583.178406799213" y="131.3568135984261">.</tspan></text><text lineHeight="1.2" backgroundColor="green" position="absolute" class="djs-labelNumber" style="font-family: Arial, sans-serif; font-size: 11px; font-weight: normal; fill: black;"><tspan x="622.178406799213" y="126.3568135984261">04</tspan></text></g><polyline points="672,180 593,134 " class="djs-hit" style="fill: none; stroke-opacity: 0; stroke: white; stroke-width: 15px;"/><rect x="587" y="128" width="91" height="58" class="djs-outline" style="fill: none;"/></g></g><g class="djs-group"><g class="djs-element djs-connection" data-element-id="connection_6291" style="display: block;"><g class="djs-visual"><polyline points="522,128 296,203 " style="stroke: rgb(0, 0, 0); fill: none; stroke-width: 1.5px; stroke-linejoin: round; marker-end: url('#activity-black-#000000-c88qeynnqtwh0ojpoenjm92ry');"/><text lineHeight="1.2" wordWrap="break-word" overflowWrap="break-word" hyphens="auto" class="djs-label" style="font-family: Arial, sans-serif; font-size: 11px; font-weight: normal; fill: black;"><tspan x="424.0199366030567" y="174.38038038165993">to</tspan></text></g><polyline points="522,128 296,203 " class="djs-hit" style="fill: none; stroke-opacity: 0; stroke: white; stroke-width: 15px;"/><rect x="290" y="122" width="238" height="87" class="djs-outline" style="fill: none;"/></g></g><g class="djs-group"><g class="djs-element djs-connection" data-element-id="connection_8965" style="display: block;"><g class="djs-visual"><polyline points="294,211 369,228 522,228 " style="stroke: rgb(0, 0, 0); fill: none; stroke-width: 1.5px; stroke-linejoin: round; marker-end: url('#activity-black-#000000-c88qeynnqtwh0ojpoenjm92ry');"/><text lineHeight="1.2" wordWrap="break-word" overflowWrap="break-word" hyphens="auto" class="djs-label" style="font-family: Arial, sans-serif; font-size: 11px; font-weight: normal; fill: black;"><tspan x="421.65" y="243">selects</tspan></text><text lineHeight="1.2" position="absolute" class="djs-labelNumber" style="font-family: Courier; font-size: 150px; font-weight: normal; fill: rgb(66, 174, 187);"><tspan x="394.5" y="224">.</tspan></text><text lineHeight="1.2" backgroundColor="green" position="absolute" class="djs-labelNumber" style="font-family: Arial, sans-serif; font-size: 11px; font-weight: normal; fill: black;"><tspan x="433.5" y="219">05</tspan></text></g><polyline points="294,211 369,228 522,228 " class="djs-hit" style="fill: none; stroke-opacity: 0; stroke: white; stroke-width: 15px;"/><rect x="288" y="205" width="240" height="29" class="djs-outline" style="fill: none;"/></g></g><g class="djs-group"><g class="djs-element djs-connection" data-element-id="connection_3680" style="display: block;"><g class="djs-visual"><polyline points="597,222 672,210 " style="stroke: rgb(0, 0, 0); fill: none; stroke-width: 1.5px; stroke-linejoin: round; marker-end: url('#activity-black-#000000-c88qeynnqtwh0ojpoenjm92ry');"/></g><polyline points="597,222 672,210 " class="djs-hit" style="fill: none; stroke-opacity: 0; stroke: white; stroke-width: 15px;"/><rect x="591" y="204" width="87" height="24" class="djs-outline" style="fill: none;"/></g></g><g class="djs-group"><g class="djs-element djs-connection" data-element-id="connection_7770" style="display: block;"><g class="djs-visual"><polyline points="738,188 803,156 " style="stroke: rgb(0, 0, 0); fill: none; stroke-width: 1.5px; stroke-linejoin: round; marker-end: url('#activity-black-#000000-c88qeynnqtwh0ojpoenjm92ry');"/><text lineHeight="1.2" wordWrap="break-word" overflowWrap="break-word" hyphens="auto" class="djs-label" style="font-family: Arial, sans-serif; font-size: 11px; font-weight: normal; fill: black;"><tspan x="785.1314369970281" y="182.6314369970281">issues</tspan></text><text lineHeight="1.2" position="absolute" class="djs-labelNumber" style="font-family: Courier; font-size: 150px; font-weight: normal; fill: rgb(66, 174, 187);"><tspan x="720.1314369970281" y="163.6314369970281">.</tspan></text><text lineHeight="1.2" backgroundColor="green" position="absolute" class="djs-labelNumber" style="font-family: Arial, sans-serif; font-size: 11px; font-weight: normal; fill: black;"><tspan x="759.1314369970281" y="158.6314369970281">06</tspan></text></g><polyline points="738,188 803,156 " class="djs-hit" style="fill: none; stroke-opacity: 0; stroke: white; stroke-width: 15px;"/><rect x="732" y="150" width="77" height="44" class="djs-outline" style="fill: none;"/></g></g><g class="djs-group"><g class="djs-element djs-connection" data-element-id="connection_2904" style="display: block;"><g class="djs-visual"><polyline points="874,156 920,182 " style="stroke: rgb(0, 0, 0); fill: none; stroke-width: 1.5px; stroke-linejoin: round; marker-end: url('#activity-black-#000000-c88qeynnqtwh0ojpoenjm92ry');"/></g><polyline points="874,156 920,182 " class="djs-hit" style="fill: none; stroke-opacity: 0; stroke: white; stroke-width: 15px;"/><rect x="868" y="150" width="58" height="38" class="djs-outline" style="fill: none;"/></g></g><g class="djs-group"><g class="djs-element djs-connection" data-element-id="connection_8784" style="display: block;"><g class="djs-visual"><polyline points="1000,202 1071,202 " style="stroke: rgb(0, 0, 0); fill: none; stroke-width: 1.5px; stroke-linejoin: round; marker-end: url('#activity-black-#000000-c88qeynnqtwh0ojpoenjm92ry');"/><text lineHeight="1.2" wordWrap="break-word" overflowWrap="break-word" hyphens="auto" class="djs-label" style="font-family: Arial, sans-serif; font-size: 11px; font-weight: normal; fill: black;"><tspan x="1009.1" y="217">reserves</tspan></text><text lineHeight="1.2" position="absolute" class="djs-labelNumber" style="font-family: Courier; font-size: 150px; font-weight: normal; fill: rgb(66, 174, 187);"><tspan x="984.5" y="198">.</tspan></text><text lineHeight="1.2" backgroundColor="green" position="absolute" class="djs-labelNumber" style="font-family: Arial, sans-serif; font-size: 11px; font-weight: normal; fill: black;"><tspan x="1023.5" y="193">07</tspan></text></g><polyline points="1000,202 1071,202 " class="djs-hit" style="fill: none; stroke-opacity: 0; stroke: white; stroke-width: 15px;"/><rect x="994" y="196" width="83" height="12" class="djs-outline" style="fill: none;"/></g></g><g class="djs-group"><g class="djs-element djs-connection" data-element-id="connection_6154" style="display: block;"><g class="djs-visual"><polyline points="672,232 584,302 " style="stroke: rgb(0, 0, 0); fill: none; stroke-width: 1.5px; stroke-linejoin: round; marker-end: url('#activity-black-#000000-c88qeynnqtwh0ojpoenjm92ry');"/><text lineHeight="1.2" wordWrap="break-word" overflowWrap="break-word" hyphens="auto" class="djs-label" style="font-family: Arial, sans-serif; font-size: 11px; font-weight: normal; fill: black;"><tspan x="644.1389252066858" y="269.1664487598849">tells</tspan></text><text lineHeight="1.2" position="absolute" class="djs-labelNumber" style="font-family: Courier; font-size: 150px; font-weight: normal; fill: rgb(66, 174, 187);"><tspan x="579.1389252066858" y="250.16644875988487">.</tspan></text><text lineHeight="1.2" backgroundColor="green" position="absolute" class="djs-labelNumber" style="font-family: Arial, sans-serif; font-size: 11px; font-weight: normal; fill: black;"><tspan x="618.1389252066858" y="245.16644875988487">08</tspan></text></g><polyline points="672,232 584,302 " class="djs-hit" style="fill: none; stroke-opacity: 0; stroke: white; stroke-width: 15px;"/><rect x="578" y="226" width="100" height="82" class="djs-outline" style="fill: none;"/></g></g><g class="djs-group"><g class="djs-element djs-connection" data-element-id="connection_6050" style="display: block;"><g class="djs-visual"><polyline points="522,321 469,321 275,230 " style="stroke: rgb(0, 0, 0); fill: none; stroke-width: 1.5px; stroke-linejoin: round; marker-end: url('#activity-black-#000000-c88qeynnqtwh0ojpoenjm92ry');"/></g><polyline points="522,321 469,321 275,230 " class="djs-hit" style="fill: none; stroke-opacity: 0; stroke: white; stroke-width: 15px;"/><rect x="269" y="224" width="259" height="103" class="djs-outline" style="fill: none;"/></g></g><g class="djs-group"><g class="djs-element djs-connection" data-element-id="connection_7890" style="display: block;"><g class="djs-visual"><polyline points="265,241 328,428 522,428 " style="stroke: rgb(0, 0, 0); fill: none; stroke-width: 1.5px; stroke-linejoin: round; marker-end: url('#activity-black-#000000-c88qeynnqtwh0ojpoenjm92ry');"/><text lineHeight="1.2" wordWrap="break-word" overflowWrap="break-word" hyphens="auto" class="djs-label" style="font-family: Arial, sans-serif; font-size: 11px; font-weight: normal; fill: black;"><tspan x="408.8" y="443">pays</tspan></text><text lineHeight="1.2" position="absolute" class="djs-labelNumber" style="font-family: Courier; font-size: 150px; font-weight: normal; fill: rgb(66, 174, 187);"><tspan x="374" y="424">.</tspan></text><text lineHeight="1.2" backgroundColor="green" position="absolute" class="djs-labelNumber" style="font-family: Arial, sans-serif; font-size: 11px; font-weight: normal; fill: black;"><tspan x="413" y="419">09</tspan></text></g><polyline points="265,241 328,428 522,428 " class="djs-hit" style="fill: none; stroke-opacity: 0; stroke: white; stroke-width: 15px;"/><rect x="259" y="235" width="269" height="199" class="djs-outline" style="fill: none;"/></g></g><g class="djs-group"><g class="djs-element djs-connection" data-element-id="connection_7262" style="display: block;"><g class="djs-visual"><polyline points="602,428 661,428 697,249 " style="stroke: rgb(0, 0, 0); fill: none; stroke-width: 1.5px; stroke-linejoin: round; marker-end: url('#activity-black-#000000-c88qeynnqtwh0ojpoenjm92ry');"/></g><polyline points="602,428 661,428 697,249 " class="djs-hit" style="fill: none; stroke-opacity: 0; stroke: white; stroke-width: 15px;"/><rect x="596" y="243" width="107" height="191" class="djs-outline" style="fill: none;"/></g></g><g class="djs-group"><g class="djs-element djs-connection" data-element-id="connection_8506" style="display: block;"><g class="djs-visual"><polyline points="739,224 803,273 " style="stroke: rgb(0, 0, 0); fill: none; stroke-width: 1.5px; stroke-linejoin: round; marker-end: url('#activity-black-#000000-c88qeynnqtwh0ojpoenjm92ry');"/><text lineHeight="1.2" wordWrap="break-word" overflowWrap="break-word" hyphens="auto" class="djs-label" style="font-family: Arial, sans-serif; font-size: 11px; font-weight: normal; fill: black;"><tspan x="781.2397619287221" y="242.6598412858148">prints</tspan></text><text lineHeight="1.2" position="absolute" class="djs-labelNumber" style="font-family: Courier; font-size: 150px; font-weight: normal; fill: rgb(66, 174, 187);"><tspan x="716.2397619287221" y="223.6598412858148">.</tspan></text><text lineHeight="1.2" backgroundColor="green" position="absolute" class="djs-labelNumber" style="font-family: Arial, sans-serif; font-size: 11px; font-weight: normal; fill: black;"><tspan x="755.2397619287221" y="218.6598412858148">10</tspan></text></g><polyline points="739,224 803,273 " class="djs-hit" style="fill: none; stroke-opacity: 0; stroke: white; stroke-width: 15px;"/><rect x="733" y="218" width="76" height="61" class="djs-outline" style="fill: none;"/></g></g><g class="djs-group"><g class="djs-element djs-connection" data-element-id="connection_0126" style="display: block;"><g class="djs-visual"><polyline points="866,284 920,245 " style="stroke: rgb(0, 0, 0); fill: none; stroke-width: 1.5px; stroke-linejoin: round; marker-end: url('#activity-black-#000000-c88qeynnqtwh0ojpoenjm92ry');"/><text lineHeight="1.2" wordWrap="break-word" overflowWrap="break-word" hyphens="auto" class="djs-label" style="font-family: Arial, sans-serif; font-size: 11px; font-weight: normal; fill: black;"><tspan x="906.0270578409536" y="273.5270578409536">with</tspan></text></g><polyline points="866,284 920,245 " class="djs-hit" style="fill: none; stroke-opacity: 0; stroke: white; stroke-width: 15px;"/><rect x="860" y="239" width="66" height="51" class="djs-outline" style="fill: none;"/></g></g><g class="djs-group"><g class="djs-element djs-connection" data-element-id="connection_1646" style="display: block;"><g class="djs-visual"><polyline points="710,249 710,513 603,513 " style="stroke: rgb(0, 0, 0); fill: none; stroke-width: 1.5px; stroke-linejoin: round; marker-end: url('#activity-black-#000000-c88qeynnqtwh0ojpoenjm92ry');"/><text lineHeight="1.2" wordWrap="break-word" overflowWrap="break-word" hyphens="auto" class="djs-label" style="font-family: Arial, sans-serif; font-size: 11px; font-weight: normal; fill: black;"><tspan x="625" y="528">hands over</tspan></text><text lineHeight="1.2" position="absolute" class="djs-labelNumber" style="font-family: Courier; font-size: 150px; font-weight: normal; fill: rgb(66, 174, 187);"><tspan x="605.5" y="509">.</tspan></text><text lineHeight="1.2" backgroundColor="green" position="absolute" class="djs-labelNumber" style="font-family: Arial, sans-serif; font-size: 11px; font-weight: normal; fill: black;"><tspan x="644.5" y="504">11</tspan></text></g><polyline points="710,249 710,513 603,513 " class="djs-hit" style="fill: none; stroke-opacity: 0; stroke: white; stroke-width: 15px;"/><rect x="597" y="243" width="119" height="276" class="djs-outline" style="fill: none;"/></g></g><g class="djs-group"><g class="djs-element djs-connection" data-element-id="connection_8339" style="display: block;"><g class="djs-visual"><polyline points="522,513 256,513 256,249 " style="stroke: rgb(0, 0, 0); fill: none; stroke-width: 1.5px; stroke-linejoin: round; marker-end: url('#activity-black-#000000-c88qeynnqtwh0ojpoenjm92ry');"/><text lineHeight="1.2" wordWrap="break-word" overflowWrap="break-word" hyphens="auto" class="djs-label" style="font-family: Arial, sans-serif; font-size: 11px; font-weight: normal; fill: black;"><tspan x="377.9" y="528">to</tspan></text></g><polyline points="522,513 256,513 256,249 " class="djs-hit" style="fill: none; stroke-opacity: 0; stroke: white; stroke-width: 15px;"/><rect x="250" y="243" width="278" height="276" class="djs-outline" style="fill: none;"/></g></g><g class="djs-group"><g class="djs-element djs-shape" data-element-id="shape_9977" style="display: block;" transform="translate(214 164)"><g class="djs-visual"><svg xmlns="http://www.w3.org/2000/svg" fill="#000000" viewBox="0 0 24 24" width="75" height="75"><path d="M12 5.9c1.16 0 2.1.94 2.1 2.1s-.94 2.1-2.1 2.1S9.9 9.16 9.9 8s.94-2.1 2.1-2.1m0 9c2.97 0 6.1 1.46 6.1 2.1v1.1H5.9V17c0-.64 3.13-2.1 6.1-2.1M12 4C9.79 4 8 5.79 8 8s1.79 4 4 4 4-1.79 4-4-1.79-4-4-4zm0 9c-2.67 0-8 1.34-8 4v3h16v-3c0-2.66-5.33-4-8-4z"/><path d="M0 0h24v24H0z" fill="none"/></svg><text lineHeight="1.2" class="djs-label" style="font-family: Arial, sans-serif; font-size: 12px; font-weight: normal; fill: rgb(0, 0, 0);"><tspan x="7.2421875" y="75">movie-goer</tspan></text></g><rect x="0" y="0" width="75" height="75" class="djs-hit" style="fill: none; stroke-opacity: 0; stroke: white; stroke-width: 15px;"/><rect x="-6" y="-6" width="87" height="87" class="djs-outline" style="fill: none;"/></g></g><g class="djs-group"><g class="djs-element djs-shape" data-element-id="shape_3526" style="display: block;" transform="translate(214 -45)"><g class="djs-visual"><svg xmlns="http://www.w3.org/2000/svg" xmlns:xlink="http://www.w3.org/1999/xlink" version="1.1" x="12.5" y="12.5" width="48.75" height="48.75" viewBox="0 0 24 24" enable-background="new 0 0 24 24" xml:space="preserve"><g id="Header_x2F_BG" display="none"><rect x="-402" y="-270" display="inline" fill="#F1F1F2" width="520" height="520"/></g><g id="Bounding_Boxes"><g id="ui_x5F_spec_x5F_header_copy_3"/><path fill="none" d="M0,0h24v24H0V0z"/></g><g id="Rounded" display="none"><g id="ui_x5F_spec_x5F_header_copy_5" display="inline"/><path display="inline" d="M14.59,2.59C14.21,2.21,13.7,2,13.17,2H6C4.9,2,4,2.9,4,4v16c0,1.1,0.89,2,1.99,2H18c1.1,0,2-0.9,2-2V8.83c0-0.53-0.21-1.04-0.59-1.41L14.59,2.59z M15,18H9c-0.55,0-1-0.45-1-1v0c0-0.55,0.45-1,1-1h6c0.55,0,1,0.45,1,1v0C16,17.55,15.55,18,15,18z M15,14H9c-0.55,0-1-0.45-1-1v0c0-0.55,0.45-1,1-1h6c0.55,0,1,0.45,1,1v0C16,13.55,15.55,14,15,14z M13,8V3.5L18.5,9H14C13.45,9,13,8.55,13,8z"/></g><g id="Sharp" display="none"><g id="ui_x5F_spec_x5F_header_copy_4" display="inline"/><path display="inline" d="M14,2H4v20h16V8L14,2z M16,18H8v-2h8V18z M16,14H8v-2h8V14z M13,9V3.5L18.5,9H13z"/></g><g id="Outline"><g id="ui_x5F_spec_x5F_header"/><g><rect x="8" y="16" width="8" height="2"/><rect x="8" y="12" width="8" height="2"/><path d="M14,2H6C4.9,2,4,2.9,4,4v16c0,1.1,0.89,2,1.99,2H18c1.1,0,2-0.9,2-2V8L14,2z M18,20L6,20V4h7v5h5V20z"/></g></g><g id="Duotone" display="none"><g id="ui_x5F_spec_x5F_header_copy_2" display="inline"/><g display="inline"><path opacity="0.3" d="M13,4H6v16l12,0V9h-5V4z M16,18H8v-2h8V18z M16,12v2H8v-2H16z"/><g><rect x="8" y="16" width="8" height="2"/><rect x="8" y="12" width="8" height="2"/><path d="M14,2H6C4.9,2,4,2.9,4,4v16c0,1.1,0.89,2,1.99,2H18c1.1,0,2-0.9,2-2V8L14,2z M18,20L6,20V4h7v5h5V20z"/></g></g></g><g id="Fill" display="none"><g id="ui_x5F_spec_x5F_header_copy" display="inline"/><path display="inline" d="M14,2H6C4.9,2,4,2.9,4,4v16c0,1.1,0.89,2,1.99,2H18c1.1,0,2-0.9,2-2V8L14,2z M16,18H8v-2h8V18z M16,14H8v-2h8V14z M13,9V3.5L18.5,9H13z"/></g><g id="nyt_x5F_exporter_x5F_info" display="none"/></svg><text lineHeight="1.2" class="djs-label" style="font-family: Arial, sans-serif; font-size: 12px; font-weight: normal; fill: rgb(0, 0, 0);"><tspan x="13.484375" y="74.75">schedule</tspan></text></g><rect x="0" y="0" width="75" height="75" class="djs-hit" style="fill: none; stroke-opacity: 0; stroke: white; stroke-width: 15px;"/><rect x="-6" y="-6" width="87" height="87" class="djs-outline" style="fill: none;"/></g></g><g class="djs-group"><g class="djs-element djs-shape" data-element-id="shape_1144" style="display: block;" transform="translate(316 -43)"><g class="djs-visual"><rect x="0" y="0" width="99.99274099883856" height="27.874564459930312" rx="0" ry="0" style="stroke: none; stroke-width: 2px; fill: none;"/><path d="m 0, 0 m 10,0 l -10,0 l 0,27.874564459930312 l 10,0" style="fill: none; stroke-width: 2px; stroke: black;"/><text lineHeight="1.2" class="djs-label" style="font-family: Arial, sans-serif; font-size: 12px; font-weight: normal; fill: black;"><tspan x="5" y="15.799999999999999">e.g. on billboard</tspan></text></g><rect x="0" y="0" width="99.99274099883856" height="27.874564459930312" class="djs-hit" style="fill: none; stroke-opacity: 0; stroke: white; stroke-width: 15px;"/><rect x="-6" y="-6" width="111.99274099883856" height="39.87456445993031" class="djs-outline" style="fill: none;"/></g></g><g class="djs-group"><g class="djs-element djs-shape" data-element-id="shape_5151" style="display: block;" transform="translate(522 -45)"><g class="djs-visual"><svg xmlns="http://www.w3.org/2000/svg" fill="#000000" height="48.75" viewBox="0 0 24 24" width="48.75" x="12.5" y="12.5"><path d="M0 0h24v24H0V0z" fill="none"/><path d="M20 2H4c-1.1 0-2 .9-2 2v18l4-4h14c1.1 0 2-.9 2-2V4c0-1.1-.9-2-2-2zm0 14H6l-2 2V4h16v12z"/></svg><text lineHeight="1.2" class="djs-label" style="font-family: Arial, sans-serif; font-size: 12px; font-weight: normal; fill: rgb(0, 0, 0);"><tspan x="7.8203125" y="74.75">movie, # of </tspan><tspan x="3.4921875" y="88.75">seats, time,..</tspan></text></g><rect x="0" y="0" width="75" height="75" class="djs-hit" style="fill: none; stroke-opacity: 0; stroke: white; stroke-width: 15px;"/><rect x="-6" y="-6" width="87" height="87" class="djs-outline" style="fill: none;"/></g></g><g class="djs-group"><g class="djs-element djs-shape" data-element-id="shape_8031" style="display: block;" transform="translate(803 -45)"><g class="djs-visual"><svg xmlns="http://www.w3.org/2000/svg" fill="#000000" height="48.75" viewBox="0 0 24 24" width="48.75" x="12.5" y="12.5"><path d="M0 0h24v24H0z" fill="none"/><path d="M11 17h2v-6h-2v6zm1-15C6.48 2 2 6.48 2 12s4.48 10 10 10 10-4.48 10-10S17.52 2 12 2zm0 18c-4.41 0-8-3.59-8-8s3.59-8 8-8 8 3.59 8 8-3.59 8-8 8zM11 9h2V7h-2v2z"/></svg><text lineHeight="1.2" class="djs-label" style="font-family: Arial, sans-serif; font-size: 12px; font-weight: normal; fill: rgb(0, 0, 0);"><tspan x="0" y="74.75">available seats</tspan></text></g><rect x="0" y="0" width="75" height="75" class="djs-hit" style="fill: none; stroke-opacity: 0; stroke: white; stroke-width: 15px;"/><rect x="-6" y="-6" width="87" height="87" class="djs-outline" style="fill: none;"/></g></g><g class="djs-group"><g class="djs-element djs-shape" data-element-id="shape_4658" style="display: block;" transform="translate(672 164)"><g class="djs-visual"><svg xmlns="http://www.w3.org/2000/svg" fill="#000000" viewBox="0 0 24 24" width="75" height="75"><path d="M12 5.9c1.16 0 2.1.94 2.1 2.1s-.94 2.1-2.1 2.1S9.9 9.16 9.9 8s.94-2.1 2.1-2.1m0 9c2.97 0 6.1 1.46 6.1 2.1v1.1H5.9V17c0-.64 3.13-2.1 6.1-2.1M12 4C9.79 4 8 5.79 8 8s1.79 4 4 4 4-1.79 4-4-1.79-4-4-4zm0 9c-2.67 0-8 1.34-8 4v3h16v-3c0-2.66-5.33-4-8-4z"/><path d="M0 0h24v24H0z" fill="none"/></svg><text lineHeight="1.2" class="djs-label" style="font-family: Arial, sans-serif; font-size: 12px; font-weight: normal; fill: rgb(0, 0, 0);"><tspan x="17.90625" y="75">cashier</tspan></text></g><rect x="0" y="0" width="75" height="75" class="djs-hit" style="fill: none; stroke-opacity: 0; stroke: white; stroke-width: 15px;"/><rect x="-6" y="-6" width="87" height="87" class="djs-outline" style="fill: none;"/></g></g><g class="djs-group"><g class="djs-element djs-shape" data-element-id="shape_6138" style="display: block;" transform="translate(920 164)"><g class="djs-visual"><svg xmlns="http://www.w3.org/2000/svg" fill="#000000" viewBox="0 0 24 24" width="75" height="75"><path d="M20,18c1.1,0,2-0.9,2-2V6c0-1.1-0.9-2-2-2H4C2.9,4,2,4.9,2,6v10c0,1.1,0.9,2,2,2H0v2h24v-2H20z M4,6h16v10H4V6z"/></svg><text lineHeight="1.2" class="djs-label" style="font-family: Arial, sans-serif; font-size: 12px; font-weight: normal; fill: rgb(0, 0, 0);"><tspan x="2.828125" y="75">ticket system</tspan></text></g><rect x="0" y="0" width="75" height="75" class="djs-hit" style="fill: none; stroke-opacity: 0; stroke: white; stroke-width: 15px;"/><rect x="-6" y="-6" width="87" height="87" class="djs-outline" style="fill: none;"/></g></g><g class="djs-group"><g class="djs-element djs-shape" data-element-id="shape_3387" style="display: block;" transform="translate(522 77)"><g class="djs-visual"><svg xmlns="http://www.w3.org/2000/svg" xmlns:xlink="http://www.w3.org/1999/xlink" version="1.1" x="12.5" y="12.5" width="48.75" height="48.75" viewBox="0 0 24 24" enable-background="new 0 0 24 24" xml:space="preserve"><g id="Header_x2F_BG" display="none"><rect x="-402" y="-270" display="inline" fill="#F1F1F2" width="520" height="520"/></g><g id="Bounding_Boxes"><g id="ui_x5F_spec_x5F_header_copy_3"/><path fill="none" d="M0,0h24v24H0V0z"/></g><g id="Rounded" display="none"><g id="ui_x5F_spec_x5F_header_copy_5" display="inline"/><path display="inline" d="M14.59,2.59C14.21,2.21,13.7,2,13.17,2H6C4.9,2,4,2.9,4,4v16c0,1.1,0.89,2,1.99,2H18c1.1,0,2-0.9,2-2V8.83c0-0.53-0.21-1.04-0.59-1.41L14.59,2.59z M15,18H9c-0.55,0-1-0.45-1-1v0c0-0.55,0.45-1,1-1h6c0.55,0,1,0.45,1,1v0C16,17.55,15.55,18,15,18z M15,14H9c-0.55,0-1-0.45-1-1v0c0-0.55,0.45-1,1-1h6c0.55,0,1,0.45,1,1v0C16,13.55,15.55,14,15,14z M13,8V3.5L18.5,9H14C13.45,9,13,8.55,13,8z"/></g><g id="Sharp" display="none"><g id="ui_x5F_spec_x5F_header_copy_4" display="inline"/><path display="inline" d="M14,2H4v20h16V8L14,2z M16,18H8v-2h8V18z M16,14H8v-2h8V14z M13,9V3.5L18.5,9H13z"/></g><g id="Outline"><g id="ui_x5F_spec_x5F_header"/><g><rect x="8" y="16" width="8" height="2"/><rect x="8" y="12" width="8" height="2"/><path d="M14,2H6C4.9,2,4,2.9,4,4v16c0,1.1,0.89,2,1.99,2H18c1.1,0,2-0.9,2-2V8L14,2z M18,20L6,20V4h7v5h5V20z"/></g></g><g id="Duotone" display="none"><g id="ui_x5F_spec_x5F_header_copy_2" display="inline"/><g display="inline"><path opacity="0.3" d="M13,4H6v16l12,0V9h-5V4z M16,18H8v-2h8V18z M16,12v2H8v-2H16z"/><g><rect x="8" y="16" width="8" height="2"/><rect x="8" y="12" width="8" height="2"/><path d="M14,2H6C4.9,2,4,2.9,4,4v16c0,1.1,0.89,2,1.99,2H18c1.1,0,2-0.9,2-2V8L14,2z M18,20L6,20V4h7v5h5V20z"/></g></g></g><g id="Fill" display="none"><g id="ui_x5F_spec_x5F_header_copy" display="inline"/><path display="inline" d="M14,2H6C4.9,2,4,2.9,4,4v16c0,1.1,0.89,2,1.99,2H18c1.1,0,2-0.9,2-2V8L14,2z M16,18H8v-2h8V18z M16,14H8v-2h8V14z M13,9V3.5L18.5,9H13z"/></g><g id="nyt_x5F_exporter_x5F_info" display="none"/></svg><text lineHeight="1.2" class="djs-label" style="font-family: Arial, sans-serif; font-size: 12px; font-weight: normal; fill: rgb(0, 0, 0);"><tspan x="0" y="74.75">available seats</tspan></text></g><rect x="0" y="0" width="75" height="75" class="djs-hit" style="fill: none; stroke-opacity: 0; stroke: white; stroke-width: 15px;"/><rect x="-6" y="-6" width="87" height="87" class="djs-outline" style="fill: none;"/></g></g><g class="djs-group"><g class="djs-element djs-shape" data-element-id="shape_7904" style="display: block;" transform="translate(522 190)"><g class="djs-visual"><svg xmlns="http://www.w3.org/2000/svg" fill="#000000" height="48.75" viewBox="0 0 24 24" width="48.75" x="12.5" y="12.5"><path d="M0 0h24v24H0V0z" fill="none"/><path d="M20 2H4c-1.1 0-2 .9-2 2v18l4-4h14c1.1 0 2-.9 2-2V4c0-1.1-.9-2-2-2zm0 14H6l-2 2V4h16v12z"/></svg><text lineHeight="1.2" class="djs-label" style="font-family: Arial, sans-serif; font-size: 12px; font-weight: normal; fill: rgb(0, 0, 0);"><tspan x="23.1640625" y="74.75">seats</tspan></text></g><rect x="0" y="0" width="75" height="75" class="djs-hit" style="fill: none; stroke-opacity: 0; stroke: white; stroke-width: 15px;"/><rect x="-6" y="-6" width="87" height="87" class="djs-outline" style="fill: none;"/></g></g><g class="djs-group"><g class="djs-element djs-shape" data-element-id="shape_8152" style="display: block;" transform="translate(803 99)"><g class="djs-visual"><svg xmlns="http://www.w3.org/2000/svg" xmlns:xlink="http://www.w3.org/1999/xlink" version="1.1" x="12.5" y="12.5" width="48.75" height="48.75" viewBox="0 0 24 24" enable-background="new 0 0 24 24" xml:space="preserve"><g id="Header_x2F_BG" display="none"><rect x="-402" y="-270" display="inline" fill="#F1F1F2" width="520" height="520"/></g><g id="Bounding_Boxes"><g id="ui_x5F_spec_x5F_header_copy_3"/><path fill="none" d="M0,0h24v24H0V0z"/></g><g id="Rounded" display="none"><g id="ui_x5F_spec_x5F_header_copy_5" display="inline"/><path display="inline" d="M14.59,2.59C14.21,2.21,13.7,2,13.17,2H6C4.9,2,4,2.9,4,4v16c0,1.1,0.89,2,1.99,2H18c1.1,0,2-0.9,2-2V8.83c0-0.53-0.21-1.04-0.59-1.41L14.59,2.59z M15,18H9c-0.55,0-1-0.45-1-1v0c0-0.55,0.45-1,1-1h6c0.55,0,1,0.45,1,1v0C16,17.55,15.55,18,15,18z M15,14H9c-0.55,0-1-0.45-1-1v0c0-0.55,0.45-1,1-1h6c0.55,0,1,0.45,1,1v0C16,13.55,15.55,14,15,14z M13,8V3.5L18.5,9H14C13.45,9,13,8.55,13,8z"/></g><g id="Sharp" display="none"><g id="ui_x5F_spec_x5F_header_copy_4" display="inline"/><path display="inline" d="M14,2H4v20h16V8L14,2z M16,18H8v-2h8V18z M16,14H8v-2h8V14z M13,9V3.5L18.5,9H13z"/></g><g id="Outline"><g id="ui_x5F_spec_x5F_header"/><g><rect x="8" y="16" width="8" height="2"/><rect x="8" y="12" width="8" height="2"/><path d="M14,2H6C4.9,2,4,2.9,4,4v16c0,1.1,0.89,2,1.99,2H18c1.1,0,2-0.9,2-2V8L14,2z M18,20L6,20V4h7v5h5V20z"/></g></g><g id="Duotone" display="none"><g id="ui_x5F_spec_x5F_header_copy_2" display="inline"/><g display="inline"><path opacity="0.3" d="M13,4H6v16l12,0V9h-5V4z M16,18H8v-2h8V18z M16,12v2H8v-2H16z"/><g><rect x="8" y="16" width="8" height="2"/><rect x="8" y="12" width="8" height="2"/><path d="M14,2H6C4.9,2,4,2.9,4,4v16c0,1.1,0.89,2,1.99,2H18c1.1,0,2-0.9,2-2V8L14,2z M18,20L6,20V4h7v5h5V20z"/></g></g></g><g id="Fill" display="none"><g id="ui_x5F_spec_x5F_header_copy" display="inline"/><path display="inline" d="M14,2H6C4.9,2,4,2.9,4,4v16c0,1.1,0.89,2,1.99,2H18c1.1,0,2-0.9,2-2V8L14,2z M16,18H8v-2h8V18z M16,14H8v-2h8V14z M13,9V3.5L18.5,9H13z"/></g><g id="nyt_x5F_exporter_x5F_info" display="none"/></svg><text lineHeight="1.2" class="djs-label" style="font-family: Arial, sans-serif; font-size: 12px; font-weight: normal; fill: rgb(0, 0, 0);"><tspan x="23.4140625" y="74.75">ticket</tspan></text></g><rect x="0" y="0" width="75" height="75" class="djs-hit" style="fill: none; stroke-opacity: 0; stroke: white; stroke-width: 15px;"/><rect x="-6" y="-6" width="87" height="87" class="djs-outline" style="fill: none;"/></g></g><g class="djs-group"><g class="djs-element djs-shape hover" data-element-id="shape_2043" style="display: block;" transform="translate(803 264)"><g class="djs-visual"><svg xmlns="http://www.w3.org/2000/svg" xmlns:xlink="http://www.w3.org/1999/xlink" version="1.1" x="12.5" y="12.5" width="48.75" height="48.75" viewBox="0 0 24 24" enable-background="new 0 0 24 24" xml:space="preserve"><g id="Header_x2F_BG" display="none"><rect x="-402" y="-270" display="inline" fill="#F1F1F2" width="520" height="520"/></g><g id="Bounding_Boxes"><g id="ui_x5F_spec_x5F_header_copy_3"/><path fill="none" d="M0,0h24v24H0V0z"/></g><g id="Rounded" display="none"><g id="ui_x5F_spec_x5F_header_copy_5" display="inline"/><path display="inline" d="M14.59,2.59C14.21,2.21,13.7,2,13.17,2H6C4.9,2,4,2.9,4,4v16c0,1.1,0.89,2,1.99,2H18c1.1,0,2-0.9,2-2V8.83c0-0.53-0.21-1.04-0.59-1.41L14.59,2.59z M15,18H9c-0.55,0-1-0.45-1-1v0c0-0.55,0.45-1,1-1h6c0.55,0,1,0.45,1,1v0C16,17.55,15.55,18,15,18z M15,14H9c-0.55,0-1-0.45-1-1v0c0-0.55,0.45-1,1-1h6c0.55,0,1,0.45,1,1v0C16,13.55,15.55,14,15,14z M13,8V3.5L18.5,9H14C13.45,9,13,8.55,13,8z"/></g><g id="Sharp" display="none"><g id="ui_x5F_spec_x5F_header_copy_4" display="inline"/><path display="inline" d="M14,2H4v20h16V8L14,2z M16,18H8v-2h8V18z M16,14H8v-2h8V14z M13,9V3.5L18.5,9H13z"/></g><g id="Outline"><g id="ui_x5F_spec_x5F_header"/><g><rect x="8" y="16" width="8" height="2"/><rect x="8" y="12" width="8" height="2"/><path d="M14,2H6C4.9,2,4,2.9,4,4v16c0,1.1,0.89,2,1.99,2H18c1.1,0,2-0.9,2-2V8L14,2z M18,20L6,20V4h7v5h5V20z"/></g></g><g id="Duotone" display="none"><g id="ui_x5F_spec_x5F_header_copy_2" display="inline"/><g display="inline"><path opacity="0.3" d="M13,4H6v16l12,0V9h-5V4z M16,18H8v-2h8V18z M16,12v2H8v-2H16z"/><g><rect x="8" y="16" width="8" height="2"/><rect x="8" y="12" width="8" height="2"/><path d="M14,2H6C4.9,2,4,2.9,4,4v16c0,1.1,0.89,2,1.99,2H18c1.1,0,2-0.9,2-2V8L14,2z M18,20L6,20V4h7v5h5V20z"/></g></g></g><g id="Fill" display="none"><g id="ui_x5F_spec_x5F_header_copy" display="inline"/><path display="inline" d="M14,2H6C4.9,2,4,2.9,4,4v16c0,1.1,0.89,2,1.99,2H18c1.1,0,2-0.9,2-2V8L14,2z M16,18H8v-2h8V18z M16,14H8v-2h8V14z M13,9V3.5L18.5,9H13z"/></g><g id="nyt_x5F_exporter_x5F_info" display="none"/></svg><text lineHeight="1.2" class="djs-label" style="font-family: Arial, sans-serif; font-size: 12px; font-weight: normal; fill: rgb(0, 0, 0);"><tspan x="23.4140625" y="74.75">ticket</tspan></text></g><rect x="0" y="0" width="75" height="75" class="djs-hit" style="fill: none; stroke-opacity: 0; stroke: white; stroke-width: 15px;"/><rect x="-6" y="-6" width="87" height="87" class="djs-outline" style="fill: none;"/></g></g><g class="djs-group"><g class="djs-element djs-shape" data-element-id="shape_4138" style="display: block;" transform="translate(1071 164)"><g class="djs-visual"><svg xmlns="http://www.w3.org/2000/svg" fill="#000000" height="48.75" viewBox="0 0 24 24" width="48.75" x="12.5" y="12.5"><path d="M0 0h24v24H0z" fill="none"/><path d="M11 17h2v-6h-2v6zm1-15C6.48 2 2 6.48 2 12s4.48 10 10 10 10-4.48 10-10S17.52 2 12 2zm0 18c-4.41 0-8-3.59-8-8s3.59-8 8-8 8 3.59 8 8-3.59 8-8 8zM11 9h2V7h-2v2z"/></svg><text lineHeight="1.2" class="djs-label" style="font-family: Arial, sans-serif; font-size: 12px; font-weight: normal; fill: rgb(0, 0, 0);"><tspan x="2.1484375" y="74.75">chosen seats</tspan></text></g><rect x="0" y="0" width="75" height="75" class="djs-hit" style="fill: none; stroke-opacity: 0; stroke: white; stroke-width: 15px;"/><rect x="-6" y="-6" width="87" height="87" class="djs-outline" style="fill: none;"/></g></g><g class="djs-group"><g class="djs-element djs-shape" data-element-id="shape_9422" style="display: block;" transform="translate(522 283)"><g class="djs-visual"><svg xmlns="http://www.w3.org/2000/svg" fill="#000000" height="48.75" viewBox="0 0 24 24" width="48.75" x="12.5" y="12.5"><path d="M0 0h24v24H0V0z" fill="none"/><path d="M20 2H4c-1.1 0-2 .9-2 2v18l4-4h14c1.1 0 2-.9 2-2V4c0-1.1-.9-2-2-2zm0 14H6l-2 2V4h16v12z"/></svg><text lineHeight="1.2" class="djs-label" style="font-family: Arial, sans-serif; font-size: 12px; font-weight: normal; fill: rgb(0, 0, 0);"><tspan x="24.5" y="74.75">price</tspan></text></g><rect x="0" y="0" width="75" height="75" class="djs-hit" style="fill: none; stroke-opacity: 0; stroke: white; stroke-width: 15px;"/><rect x="-6" y="-6" width="87" height="87" class="djs-outline" style="fill: none;"/></g></g><g class="djs-group"><g class="djs-element djs-shape" data-element-id="shape_7902" style="display: block;" transform="translate(522 475)"><g class="djs-visual"><svg xmlns="http://www.w3.org/2000/svg" xmlns:xlink="http://www.w3.org/1999/xlink" version="1.1" x="12.5" y="12.5" width="48.75" height="48.75" viewBox="0 0 24 24" enable-background="new 0 0 24 24" xml:space="preserve"><g id="Header_x2F_BG" display="none"><rect x="-402" y="-270" display="inline" fill="#F1F1F2" width="520" height="520"/></g><g id="Bounding_Boxes"><g id="ui_x5F_spec_x5F_header_copy_3"/><path fill="none" d="M0,0h24v24H0V0z"/></g><g id="Rounded" display="none"><g id="ui_x5F_spec_x5F_header_copy_5" display="inline"/><path display="inline" d="M14.59,2.59C14.21,2.21,13.7,2,13.17,2H6C4.9,2,4,2.9,4,4v16c0,1.1,0.89,2,1.99,2H18c1.1,0,2-0.9,2-2V8.83c0-0.53-0.21-1.04-0.59-1.41L14.59,2.59z M15,18H9c-0.55,0-1-0.45-1-1v0c0-0.55,0.45-1,1-1h6c0.55,0,1,0.45,1,1v0C16,17.55,15.55,18,15,18z M15,14H9c-0.55,0-1-0.45-1-1v0c0-0.55,0.45-1,1-1h6c0.55,0,1,0.45,1,1v0C16,13.55,15.55,14,15,14z M13,8V3.5L18.5,9H14C13.45,9,13,8.55,13,8z"/></g><g id="Sharp" display="none"><g id="ui_x5F_spec_x5F_header_copy_4" display="inline"/><path display="inline" d="M14,2H4v20h16V8L14,2z M16,18H8v-2h8V18z M16,14H8v-2h8V14z M13,9V3.5L18.5,9H13z"/></g><g id="Outline"><g id="ui_x5F_spec_x5F_header"/><g><rect x="8" y="16" width="8" height="2"/><rect x="8" y="12" width="8" height="2"/><path d="M14,2H6C4.9,2,4,2.9,4,4v16c0,1.1,0.89,2,1.99,2H18c1.1,0,2-0.9,2-2V8L14,2z M18,20L6,20V4h7v5h5V20z"/></g></g><g id="Duotone" display="none"><g id="ui_x5F_spec_x5F_header_copy_2" display="inline"/><g display="inline"><path opacity="0.3" d="M13,4H6v16l12,0V9h-5V4z M16,18H8v-2h8V18z M16,12v2H8v-2H16z"/><g><rect x="8" y="16" width="8" height="2"/><rect x="8" y="12" width="8" height="2"/><path d="M14,2H6C4.9,2,4,2.9,4,4v16c0,1.1,0.89,2,1.99,2H18c1.1,0,2-0.9,2-2V8L14,2z M18,20L6,20V4h7v5h5V20z"/></g></g></g><g id="Fill" display="none"><g id="ui_x5F_spec_x5F_header_copy" display="inline"/><path display="inline" d="M14,2H6C4.9,2,4,2.9,4,4v16c0,1.1,0.89,2,1.99,2H18c1.1,0,2-0.9,2-2V8L14,2z M16,18H8v-2h8V18z M16,14H8v-2h8V14z M13,9V3.5L18.5,9H13z"/></g><g id="nyt_x5F_exporter_x5F_info" display="none"/></svg><text lineHeight="1.2" class="djs-label" style="font-family: Arial, sans-serif; font-size: 12px; font-weight: normal; fill: rgb(0, 0, 0);"><tspan x="23.4140625" y="74.75">ticket</tspan></text></g><rect x="0" y="0" width="75" height="75" class="djs-hit" style="fill: none; stroke-opacity: 0; stroke: white; stroke-width: 15px;"/><rect x="-6" y="-6" width="87" height="87" class="djs-outline" style="fill: none;"/></g></g><g class="djs-drag-group" style="pointer-events: none;" transform="translate(-85 3)"/><g class="djs-drag-group" style="pointer-events: none;" transform="translate(118 13)"/><g class="djs-drag-group" style="pointer-events: none;" transform="translate(286 17)"/><g class="djs-drag-group" style="pointer-events: none;" transform="translate(-26 -13)"/><g class="djs-drag-group" style="pointer-events: none;" transform="translate(-66 -14)"/><g class="djs-drag-group" style="pointer-events: none;" transform="translate(-17 0)"/><g class="djs-drag-group" style="pointer-events: none;" transform="translate(-135 9)"/><g class="djs-drag-group" style="pointer-events: none;" transform="translate(-14 -45)"/><g class="djs-drag-group" style="pointer-events: none;" transform="translate(0 -14)"/><g class="djs-drag-group" style="pointer-events: none;" transform="translate(0 91)"/><g class="djs-drag-group" style="pointer-events: none;" transform="translate(-5 91)"/><g class="djs-drag-group" style="pointer-events: none;" transform="translate(-21 -19)"/><g class="djs-drag-group" style="pointer-events: none;" transform="translate(21 -27)"/><g class="djs-drag-group" style="pointer-events: none;" transform="translate(0 -52)"/><g class="djs-drag-group" style="pointer-events: none;" transform="translate(0 -45)"/><g class="djs-drag-group" style="pointer-events: none;" transform="translate(35 -1)"/><g class="djs-drag-group" style="pointer-events: none;" transform="translate(-14 99)"/><g class="djs-drag-group" style="pointer-events: none;" transform="translate(0 -19)"/><g class="djs-drag-group" style="pointer-events: none;" transform="translate(-14 0)"/></svg>