<?xml version="1.0" encoding="utf-8"?>
<!-- created with bpmn-js / http://bpmn.io -->
<!DOCTYPE svg PUBLIC "-//W3C//DTD SVG 1.1//EN" "http://www.w3.org/Graphics/SVG/1.1/DTD/svg11.dtd">
<svg xmlns="http://www.w3.org/2000/svg" xmlns:xlink="http://www.w3.org/1999/xlink" width="926" height=" 535.453125" viewBox="478 48.796875 926 535.453125" version="1.1"><defs><marker id="activity-black-#000000-1r08uhrzsgzvo6dwe8bowcn1d" viewBox="0 0 20 20" refX="11" refY="10" markerWidth="10" markerHeight="10" orient="auto"><path d="M 1 5 L 11 10 L 1 15 Z" style="fill: rgb(0, 0, 0); stroke-width: 1px; stroke-linecap: round; stroke-dasharray: 10000, 1; stroke: rgb(0, 0, 0);"/></marker></defs><g class="djs-group"><g class="djs-element djs-shape" style = "display:block" transform="translate(488 78.796875)"><g class="djs-visual"><text lineHeight="1.2" class="djs-label" style="font-family: Arial, sans-serif; font-size: 30px; font-weight: normal; fill: rgb(0, 0, 0);"><tspan x="8" y="10">ticket reservation at box office</tspan></text><text lineHeight="1.2" class="djs-label" style="font-family: Arial, sans-serif; font-size: 12px; font-weight: normal; fill: rgb(0, 0, 0);"><tspan x="8" y="30">assumptions: requested number of seats are available.</tspan></text></g></g></g><g class="djs-group"><g class="djs-element djs-shape" data-element-id="shape_4472" style="display: block;" transform="translate(484 281)"><g class="djs-visual"><svg xmlns="http://www.w3.org/2000/svg" fill="#000000" viewBox="0 0 24 24" width="75" height="75"><path d="M12 5.9c1.16 0 2.1.94 2.1 2.1s-.94 2.1-2.1 2.1S9.9 9.16 9.9 8s.94-2.1 2.1-2.1m0 9c2.97 0 6.1 1.46 6.1 2.1v1.1H5.9V17c0-.64 3.13-2.1 6.1-2.1M12 4C9.79 4 8 5.79 8 8s1.79 4 4 4 4-1.79 4-4-1.79-4-4-4zm0 9c-2.67 0-8 1.34-8 4v3h16v-3c0-2.66-5.33-4-8-4z"/><path d="M0 0h24v24H0z" fill="none"/></svg><text lineHeight="1.2" class="djs-label" style="font-family: Arial, sans-serif; font-size: 12px; font-weight: normal; fill: rgb(0, 0, 0);"><tspan x="7.2421875" y="75">movie-goer</tspan></text></g><rect x="0" y="0" width="75" height="75" class="djs-hit" style="fill: none; stroke-opacity: 0; stroke: white; stroke-width: 15px;"/><rect x="-6" y="-6" width="87" height="87" class="djs-outline" style="fill: none;"/></g></g><g class="djs-group"><g class="djs-element djs-shape" data-element-id="shape_984" style="display: block;" transform="translate(680 162)"><g class="djs-visual"><svg xmlns="http://www.w3.org/2000/svg" fill="#000000" height="48.75" viewBox="0 0 24 24" width="48.75" x="12.5" y="12.5"><path d="M0 0h24v24H0V0z" fill="none"/><path d="M20 2H4c-1.1 0-2 .9-2 2v18l4-4h14c1.1 0 2-.9 2-2V4c0-1.1-.9-2-2-2zm0 14H6l-2 2V4h16v12z"/></svg><text lineHeight="1.2" class="djs-label" style="font-family: Arial, sans-serif; font-size: 12px; font-weight: normal; fill: rgb(0, 0, 0);"><tspan x="7.8203125" y="74.75">reservation </tspan><tspan x="3.1640625" y="88.75">(movie, time, </tspan><tspan x="14.4921875" y="102.75">quantity)</tspan></text></g><rect x="0" y="0" width="75" height="75" class="djs-hit" style="fill: none; stroke-opacity: 0; stroke: white; stroke-width: 15px;"/><rect x="-6" y="-6" width="87" height="87" class="djs-outline" style="fill: none;"/></g></g><g class="djs-group"><g class="djs-element djs-shape" data-element-id="shape_3192" style="display: block;" transform="translate(859 297)"><g class="djs-visual"><svg xmlns="http://www.w3.org/2000/svg" fill="#000000" viewBox="0 0 24 24" width="75" height="75"><path d="M12 5.9c1.16 0 2.1.94 2.1 2.1s-.94 2.1-2.1 2.1S9.9 9.16 9.9 8s.94-2.1 2.1-2.1m0 9c2.97 0 6.1 1.46 6.1 2.1v1.1H5.9V17c0-.64 3.13-2.1 6.1-2.1M12 4C9.79 4 8 5.79 8 8s1.79 4 4 4 4-1.79 4-4-1.79-4-4-4zm0 9c-2.67 0-8 1.34-8 4v3h16v-3c0-2.66-5.33-4-8-4z"/><path d="M0 0h24v24H0z" fill="none"/></svg><text lineHeight="1.2" class="djs-label" style="font-family: Arial, sans-serif; font-size: 12px; font-weight: normal; fill: rgb(0, 0, 0);"><tspan x="17.90625" y="75">cashier</tspan></text></g><rect x="0" y="0" width="75" height="75" class="djs-hit" style="fill: none; stroke-opacity: 0; stroke: white; stroke-width: 15px;"/><rect x="-6" y="-6" width="87" height="87" class="djs-outline" style="fill: none;"/></g></g><g class="djs-group"><g class="djs-element djs-shape" data-element-id="shape_1767" style="display: block;" transform="translate(1127 189)"><g class="djs-visual"><svg xmlns="http://www.w3.org/2000/svg" xmlns:xlink="http://www.w3.org/1999/xlink" version="1.1" x="12.5" y="12.5" width="48.75" height="48.75" viewBox="0 0 24 24" enable-background="new 0 0 24 24" xml:space="preserve"><g id="Header_x2F_BG" display="none"><rect x="-402" y="-270" display="inline" fill="#F1F1F2" width="520" height="520"/></g><g id="Bounding_Boxes"><g id="ui_x5F_spec_x5F_header_copy_3"/><path fill="none" d="M0,0h24v24H0V0z"/></g><g id="Rounded" display="none"><g id="ui_x5F_spec_x5F_header_copy_5" display="inline"/><path display="inline" d="M14.59,2.59C14.21,2.21,13.7,2,13.17,2H6C4.9,2,4,2.9,4,4v16c0,1.1,0.89,2,1.99,2H18c1.1,0,2-0.9,2-2V8.83c0-0.53-0.21-1.04-0.59-1.41L14.59,2.59z M15,18H9c-0.55,0-1-0.45-1-1v0c0-0.55,0.45-1,1-1h6c0.55,0,1,0.45,1,1v0C16,17.55,15.55,18,15,18z M15,14H9c-0.55,0-1-0.45-1-1v0c0-0.55,0.45-1,1-1h6c0.55,0,1,0.45,1,1v0C16,13.55,15.55,14,15,14z M13,8V3.5L18.5,9H14C13.45,9,13,8.55,13,8z"/></g><g id="Sharp" display="none"><g id="ui_x5F_spec_x5F_header_copy_4" display="inline"/><path display="inline" d="M14,2H4v20h16V8L14,2z M16,18H8v-2h8V18z M16,14H8v-2h8V14z M13,9V3.5L18.5,9H13z"/></g><g id="Outline"><g id="ui_x5F_spec_x5F_header"/><g><rect x="8" y="16" width="8" height="2"/><rect x="8" y="12" width="8" height="2"/><path d="M14,2H6C4.9,2,4,2.9,4,4v16c0,1.1,0.89,2,1.99,2H18c1.1,0,2-0.9,2-2V8L14,2z M18,20L6,20V4h7v5h5V20z"/></g></g><g id="Duotone" display="none"><g id="ui_x5F_spec_x5F_header_copy_2" display="inline"/><g display="inline"><path opacity="0.3" d="M13,4H6v16l12,0V9h-5V4z M16,18H8v-2h8V18z M16,12v2H8v-2H16z"/><g><rect x="8" y="16" width="8" height="2"/><rect x="8" y="12" width="8" height="2"/><path d="M14,2H6C4.9,2,4,2.9,4,4v16c0,1.1,0.89,2,1.99,2H18c1.1,0,2-0.9,2-2V8L14,2z M18,20L6,20V4h7v5h5V20z"/></g></g></g><g id="Fill" display="none"><g id="ui_x5F_spec_x5F_header_copy" display="inline"/><path display="inline" d="M14,2H6C4.9,2,4,2.9,4,4v16c0,1.1,0.89,2,1.99,2H18c1.1,0,2-0.9,2-2V8L14,2z M16,18H8v-2h8V18z M16,14H8v-2h8V14z M13,9V3.5L18.5,9H13z"/></g><g id="nyt_x5F_exporter_x5F_info" display="none"/></svg><text lineHeight="1.2" class="djs-label" style="font-family: Arial, sans-serif; font-size: 12px; font-weight: normal; fill: rgb(0, 0, 0);"><tspan x="6.484375" y="74.75">screen plan</tspan></text></g><rect x="0" y="0" width="75" height="75" class="djs-hit" style="fill: none; stroke-opacity: 0; stroke: white; stroke-width: 15px;"/><rect x="-6" y="-6" width="87" height="87" class="djs-outline" style="fill: none;"/></g></g><g class="djs-group"><g class="djs-element djs-shape" data-element-id="shape_6353" style="display: block;" transform="translate(1323 297)"><g class="djs-visual"><svg xmlns="http://www.w3.org/2000/svg" fill="#000000" viewBox="0 0 24 24" width="75" height="75"><path d="M20,18c1.1,0,2-0.9,2-2V6c0-1.1-0.9-2-2-2H4C2.9,4,2,4.9,2,6v10c0,1.1,0.9,2,2,2H0v2h24v-2H20z M4,6h16v10H4V6z"/></svg><text lineHeight="1.2" class="djs-label" style="font-family: Arial, sans-serif; font-size: 12px; font-weight: normal; fill: rgb(0, 0, 0);"><tspan x="2.828125" y="75">ticket system</tspan></text></g><rect x="0" y="0" width="75" height="75" class="djs-hit" style="fill: none; stroke-opacity: 0; stroke: white; stroke-width: 15px;"/><rect x="-6" y="-6" width="87" height="87" class="djs-outline" style="fill: none;"/></g></g><g class="djs-group"><g class="djs-element djs-shape" data-element-id="shape_1230" style="display: block;" transform="translate(674 297)"><g class="djs-visual"><svg xmlns="http://www.w3.org/2000/svg" fill="#000000" height="48.75" viewBox="0 0 24 24" width="48.75" x="12.5" y="12.5"><path d="M0 0h24v24H0V0z" fill="none"/><path d="M20 2H4c-1.1 0-2 .9-2 2v18l4-4h14c1.1 0 2-.9 2-2V4c0-1.1-.9-2-2-2zm0 14H6l-2 2V4h16v12z"/></svg><text lineHeight="1.2" class="djs-label" style="font-family: Arial, sans-serif; font-size: 12px; font-weight: normal; fill: rgb(0, 0, 0);"><tspan x="0" y="74.75">available seats</tspan></text></g><rect x="0" y="0" width="75" height="75" class="djs-hit" style="fill: none; stroke-opacity: 0; stroke: white; stroke-width: 15px;"/><rect x="-6" y="-6" width="87" height="87" class="djs-outline" style="fill: none;"/></g></g><g class="djs-group"><g class="djs-element djs-shape" data-element-id="shape_2947" style="display: block;" transform="translate(680 388)"><g class="djs-visual"><svg xmlns="http://www.w3.org/2000/svg" fill="#000000" height="48.75" viewBox="0 0 24 24" width="48.75" x="12.5" y="12.5"><path d="M0 0h24v24H0V0z" fill="none"/><path d="M20 2H4c-1.1 0-2 .9-2 2v18l4-4h14c1.1 0 2-.9 2-2V4c0-1.1-.9-2-2-2zm0 14H6l-2 2V4h16v12z"/></svg><text lineHeight="1.2" class="djs-label" style="font-family: Arial, sans-serif; font-size: 12px; font-weight: normal; fill: rgb(0, 0, 0);"><tspan x="2.921875" y="74.75">offered seats</tspan></text></g><rect x="0" y="0" width="75" height="75" class="djs-hit" style="fill: none; stroke-opacity: 0; stroke: white; stroke-width: 15px;"/><rect x="-6" y="-6" width="87" height="87" class="djs-outline" style="fill: none;"/></g></g><g class="djs-group"><g class="djs-element djs-shape" data-element-id="shape_698" style="display: block;" transform="translate(1127 297)"><g class="djs-visual"><svg xmlns="http://www.w3.org/2000/svg" xmlns:xlink="http://www.w3.org/1999/xlink" version="1.1" x="12.5" y="12.5" width="48.75" height="48.75" viewBox="0 0 24 24" enable-background="new 0 0 24 24" xml:space="preserve"><g id="Header_x2F_BG" display="none"><rect x="-402" y="-270" display="inline" fill="#F1F1F2" width="520" height="520"/></g><g id="Bounding_Boxes"><g id="ui_x5F_spec_x5F_header_copy_3"/><path fill="none" d="M0,0h24v24H0V0z"/></g><g id="Rounded" display="none"><g id="ui_x5F_spec_x5F_header_copy_5" display="inline"/><path display="inline" d="M14.59,2.59C14.21,2.21,13.7,2,13.17,2H6C4.9,2,4,2.9,4,4v16c0,1.1,0.89,2,1.99,2H18c1.1,0,2-0.9,2-2V8.83c0-0.53-0.21-1.04-0.59-1.41L14.59,2.59z M15,18H9c-0.55,0-1-0.45-1-1v0c0-0.55,0.45-1,1-1h6c0.55,0,1,0.45,1,1v0C16,17.55,15.55,18,15,18z M15,14H9c-0.55,0-1-0.45-1-1v0c0-0.55,0.45-1,1-1h6c0.55,0,1,0.45,1,1v0C16,13.55,15.55,14,15,14z M13,8V3.5L18.5,9H14C13.45,9,13,8.55,13,8z"/></g><g id="Sharp" display="none"><g id="ui_x5F_spec_x5F_header_copy_4" display="inline"/><path display="inline" d="M14,2H4v20h16V8L14,2z M16,18H8v-2h8V18z M16,14H8v-2h8V14z M13,9V3.5L18.5,9H13z"/></g><g id="Outline"><g id="ui_x5F_spec_x5F_header"/><g><rect x="8" y="16" width="8" height="2"/><rect x="8" y="12" width="8" height="2"/><path d="M14,2H6C4.9,2,4,2.9,4,4v16c0,1.1,0.89,2,1.99,2H18c1.1,0,2-0.9,2-2V8L14,2z M18,20L6,20V4h7v5h5V20z"/></g></g><g id="Duotone" display="none"><g id="ui_x5F_spec_x5F_header_copy_2" display="inline"/><g display="inline"><path opacity="0.3" d="M13,4H6v16l12,0V9h-5V4z M16,18H8v-2h8V18z M16,12v2H8v-2H16z"/><g><rect x="8" y="16" width="8" height="2"/><rect x="8" y="12" width="8" height="2"/><path d="M14,2H6C4.9,2,4,2.9,4,4v16c0,1.1,0.89,2,1.99,2H18c1.1,0,2-0.9,2-2V8L14,2z M18,20L6,20V4h7v5h5V20z"/></g></g></g><g id="Fill" display="none"><g id="ui_x5F_spec_x5F_header_copy" display="inline"/><path display="inline" d="M14,2H6C4.9,2,4,2.9,4,4v16c0,1.1,0.89,2,1.99,2H18c1.1,0,2-0.9,2-2V8L14,2z M16,18H8v-2h8V18z M16,14H8v-2h8V14z M13,9V3.5L18.5,9H13z"/></g><g id="nyt_x5F_exporter_x5F_info" display="none"/></svg><text lineHeight="1.2" class="djs-label" style="font-family: Arial, sans-serif; font-size: 12px; font-weight: normal; fill: rgb(0, 0, 0);"><tspan x="6.484375" y="74.75">screen plan</tspan></text></g><rect x="0" y="0" width="75" height="75" class="djs-hit" style="fill: none; stroke-opacity: 0; stroke: white; stroke-width: 15px;"/><rect x="-6" y="-6" width="87" height="87" class="djs-outline" style="fill: none;"/></g></g><g class="djs-group"><g class="djs-element djs-shape" data-element-id="shape_8182" style="display: block;" transform="translate(1127 421)"><g class="djs-visual"><svg xmlns="http://www.w3.org/2000/svg" fill="#000000" height="48.75" viewBox="0 0 24 24" width="48.75" x="12.5" y="12.5"><path d="M0 0h24v24H0z" fill="none"/><path d="M11 17h2v-6h-2v6zm1-15C6.48 2 2 6.48 2 12s4.48 10 10 10 10-4.48 10-10S17.52 2 12 2zm0 18c-4.41 0-8-3.59-8-8s3.59-8 8-8 8 3.59 8 8-3.59 8-8 8zM11 9h2V7h-2v2z"/></svg><text lineHeight="1.2" class="djs-label" style="font-family: Arial, sans-serif; font-size: 12px; font-weight: normal; fill: rgb(0, 0, 0);"><tspan x="7.8203125" y="74.75">reservation </tspan><tspan x="15.578125" y="88.75">niumber</tspan></text></g><rect x="0" y="0" width="75" height="75" class="djs-hit" style="fill: none; stroke-opacity: 0; stroke: white; stroke-width: 15px;"/><rect x="-6" y="-6" width="87" height="87" class="djs-outline" style="fill: none;"/></g></g><g class="djs-group"><g class="djs-element djs-shape" data-element-id="shape_6012" style="display: block;" transform="translate(680 493)"><g class="djs-visual"><svg xmlns="http://www.w3.org/2000/svg" fill="#000000" height="48.75" viewBox="0 0 24 24" width="48.75" x="12.5" y="12.5"><path d="M0 0h24v24H0V0z" fill="none"/><path d="M20 2H4c-1.1 0-2 .9-2 2v18l4-4h14c1.1 0 2-.9 2-2V4c0-1.1-.9-2-2-2zm0 14H6l-2 2V4h16v12z"/></svg><text lineHeight="1.2" class="djs-label" style="font-family: Arial, sans-serif; font-size: 12px; font-weight: normal; fill: rgb(0, 0, 0);"><tspan x="7.8203125" y="74.75">reservation </tspan><tspan x="16.90625" y="88.75">number</tspan></text></g><rect x="0" y="0" width="75" height="75" class="djs-hit" style="fill: none; stroke-opacity: 0; stroke: white; stroke-width: 15px;"/><rect x="-6" y="-6" width="87" height="87" class="djs-outline" style="fill: none;"/></g></g><g class="djs-group"><g class="djs-element djs-connection" data-element-id="connection_9207" style="display: block;"><g class="djs-visual"><polyline points="548,303 680,223 " style="stroke: rgb(0, 0, 0); fill: none; stroke-width: 1.5px; stroke-linejoin: round; marker-end: url('#activity-black-#000000-1r08uhrzsgzvo6dwe8bowcn1d');"/><text lineHeight="1.2" wordWrap="break-word" overflowWrap="break-word" hyphens="auto" class="djs-label" style="font-family: Arial, sans-serif; font-size: 11px; font-weight: normal; fill: black;"><tspan x="627.796932872609" y="272.7969328726089">asks for</tspan></text><text lineHeight="1.2" position="absolute" class="djs-labelNumber" style="font-family: Courier; font-size: 150px; font-weight: normal; fill: rgb(66, 174, 187);"><tspan x="562.796932872609" y="253.79693287260892">.</tspan></text><text lineHeight="1.2" backgroundColor="green" position="absolute" class="djs-labelNumber" style="font-family: Arial, sans-serif; font-size: 11px; font-weight: normal; fill: black;"><tspan x="601.796932872609" y="248.79693287260892">01</tspan></text></g><polyline points="548,303 680,223 " class="djs-hit" style="fill: none; stroke-opacity: 0; stroke: white; stroke-width: 15px;"/><rect x="542" y="217" width="144" height="92" class="djs-outline" style="fill: none;"/></g></g><g class="djs-group"><g class="djs-element djs-connection" data-element-id="connection_443" style="display: block;"><g class="djs-visual"><polyline points="747,222 859,306 " style="stroke: rgb(0, 0, 0); fill: none; stroke-width: 1.5px; stroke-linejoin: round; marker-end: url('#activity-black-#000000-1r08uhrzsgzvo6dwe8bowcn1d');"/></g><polyline points="747,222 859,306 " class="djs-hit" style="fill: none; stroke-opacity: 0; stroke: white; stroke-width: 15px;"/><rect x="741" y="216" width="124" height="96" class="djs-outline" style="fill: none;"/></g></g><g class="djs-group"><g class="djs-element djs-connection" data-element-id="connection_9886" style="display: block;"><g class="djs-visual"><polyline points="927,323 1127,242 " style="stroke: rgb(0, 0, 0); fill: none; stroke-width: 1.5px; stroke-linejoin: round; marker-end: url('#activity-black-#000000-1r08uhrzsgzvo6dwe8bowcn1d');"/><text lineHeight="1.2" wordWrap="break-word" overflowWrap="break-word" hyphens="auto" class="djs-label" style="font-family: Arial, sans-serif; font-size: 11px; font-weight: normal; fill: black;"><tspan x="1042.3253420894066" y="293.8253420894066">finds available seats in</tspan></text><text lineHeight="1.2" position="absolute" class="djs-labelNumber" style="font-family: Courier; font-size: 150px; font-weight: normal; fill: rgb(66, 174, 187);"><tspan x="977.3253420894066" y="274.8253420894066">.</tspan></text><text lineHeight="1.2" backgroundColor="green" position="absolute" class="djs-labelNumber" style="font-family: Arial, sans-serif; font-size: 11px; font-weight: normal; fill: black;"><tspan x="1016.3253420894066" y="269.8253420894066">02</tspan></text></g><polyline points="927,323 1127,242 " class="djs-hit" style="fill: none; stroke-opacity: 0; stroke: white; stroke-width: 15px;"/><rect x="921" y="236" width="212" height="93" class="djs-outline" style="fill: none;"/></g></g><g class="djs-group"><g class="djs-element djs-connection" data-element-id="connection_6917" style="display: block;"><g class="djs-visual"><polyline points="1198,245 1323,314 " style="stroke: rgb(0, 0, 0); fill: none; stroke-width: 1.5px; stroke-linejoin: round; marker-end: url('#activity-black-#000000-1r08uhrzsgzvo6dwe8bowcn1d');"/></g><polyline points="1198,245 1323,314 " class="djs-hit" style="fill: none; stroke-opacity: 0; stroke: white; stroke-width: 15px;"/><rect x="1192" y="239" width="137" height="81" class="djs-outline" style="fill: none;"/></g></g><g class="djs-group"><g class="djs-element djs-connection" data-element-id="connection_4580" style="display: block;"><g class="djs-visual"><polyline points="859,335 755,335 " style="stroke: rgb(0, 0, 0); fill: none; stroke-width: 1.5px; stroke-linejoin: round; marker-end: url('#activity-black-#000000-1r08uhrzsgzvo6dwe8bowcn1d');"/><text lineHeight="1.2" wordWrap="break-word" overflowWrap="break-word" hyphens="auto" class="djs-label" style="font-family: Arial, sans-serif; font-size: 11px; font-weight: normal; fill: black;"><tspan x="775.5" y="350">recommends</tspan></text><text lineHeight="1.2" position="absolute" class="djs-labelNumber" style="font-family: Courier; font-size: 150px; font-weight: normal; fill: rgb(66, 174, 187);"><tspan x="756" y="331">.</tspan></text><text lineHeight="1.2" backgroundColor="green" position="absolute" class="djs-labelNumber" style="font-family: Arial, sans-serif; font-size: 11px; font-weight: normal; fill: black;"><tspan x="795" y="326">03</tspan></text></g><polyline points="859,335 755,335 " class="djs-hit" style="fill: none; stroke-opacity: 0; stroke: white; stroke-width: 15px;"/><rect x="749" y="329" width="116" height="12" class="djs-outline" style="fill: none;"/></g></g><g class="djs-group"><g class="djs-element djs-connection" data-element-id="connection_7659" style="display: block;"><g class="djs-visual"><polyline points="674,335 557,335 " style="stroke: rgb(0, 0, 0); fill: none; stroke-width: 1.5px; stroke-linejoin: round; marker-end: url('#activity-black-#000000-1r08uhrzsgzvo6dwe8bowcn1d');"/><text lineHeight="1.2" wordWrap="break-word" overflowWrap="break-word" hyphens="auto" class="djs-label" style="font-family: Arial, sans-serif; font-size: 11px; font-weight: normal; fill: black;"><tspan x="604.4" y="350">to</tspan></text></g><polyline points="674,335 557,335 " class="djs-hit" style="fill: none; stroke-opacity: 0; stroke: white; stroke-width: 15px;"/><rect x="551" y="329" width="129" height="12" class="djs-outline" style="fill: none;"/></g></g><g class="djs-group"><g class="djs-element djs-connection selected" data-element-id="connection_3724" style="display: block;"><g class="djs-visual"><polyline points="556,349 596,426 680,426 " style="stroke: rgb(0, 0, 0); fill: none; stroke-width: 1.5px; stroke-linejoin: round; marker-end: url('#activity-black-#000000-1r08uhrzsgzvo6dwe8bowcn1d');"/><text lineHeight="1.2" wordWrap="break-word" overflowWrap="break-word" hyphens="auto" class="djs-label" style="font-family: Arial, sans-serif; font-size: 11px; font-weight: normal; fill: black;"><tspan x="611.6" y="441">confirms</tspan></text><text lineHeight="1.2" position="absolute" class="djs-labelNumber" style="font-family: Courier; font-size: 150px; font-weight: normal; fill: rgb(66, 174, 187);"><tspan x="587" y="422">.</tspan></text><text lineHeight="1.2" backgroundColor="green" position="absolute" class="djs-labelNumber" style="font-family: Arial, sans-serif; font-size: 11px; font-weight: normal; fill: black;"><tspan x="626" y="417">04</tspan></text></g><polyline points="556,349 596,426 680,426 " class="djs-hit" style="fill: none; stroke-opacity: 0; stroke: white; stroke-width: 15px;"/><rect x="550" y="343" width="136" height="89" class="djs-outline" style="fill: none;"/></g></g><g class="djs-group"><g class="djs-element djs-connection" data-element-id="connection_9374" style="display: block;"><g class="djs-visual"><polyline points="749,415 859,376 " style="stroke: rgb(0, 0, 0); fill: none; stroke-width: 1.5px; stroke-linejoin: round; marker-end: url('#activity-black-#000000-1r08uhrzsgzvo6dwe8bowcn1d');"/></g><polyline points="749,415 859,376 " class="djs-hit" style="fill: none; stroke-opacity: 0; stroke: white; stroke-width: 15px;"/><rect x="743" y="370" width="122" height="51" class="djs-outline" style="fill: none;"/></g></g><g class="djs-group"><g class="djs-element djs-connection" data-element-id="connection_7331" style="display: block;"><g class="djs-visual"><polyline points="939,335 1127,335 " style="stroke: rgb(0, 0, 0); fill: none; stroke-width: 1.5px; stroke-linejoin: round; marker-end: url('#activity-black-#000000-1r08uhrzsgzvo6dwe8bowcn1d');"/><text lineHeight="1.2" wordWrap="break-word" overflowWrap="break-word" hyphens="auto" class="djs-label" style="font-family: Arial, sans-serif; font-size: 11px; font-weight: normal; fill: black;"><tspan x="963.25" y="350">mark seats as reserved in</tspan></text><text lineHeight="1.2" position="absolute" class="djs-labelNumber" style="font-family: Courier; font-size: 150px; font-weight: normal; fill: rgb(66, 174, 187);"><tspan x="982" y="331">.</tspan></text><text lineHeight="1.2" backgroundColor="green" position="absolute" class="djs-labelNumber" style="font-family: Arial, sans-serif; font-size: 11px; font-weight: normal; fill: black;"><tspan x="1021" y="326">05</tspan></text></g><polyline points="939,335 1127,335 " class="djs-hit" style="fill: none; stroke-opacity: 0; stroke: white; stroke-width: 15px;"/><rect x="933" y="329" width="200" height="12" class="djs-outline" style="fill: none;"/></g></g><g class="djs-group"><g class="djs-element djs-connection" data-element-id="connection_2060" style="display: block;"><g class="djs-visual"><polyline points="1208,335 1323,335 " style="stroke: rgb(0, 0, 0); fill: none; stroke-width: 1.5px; stroke-linejoin: round; marker-end: url('#activity-black-#000000-1r08uhrzsgzvo6dwe8bowcn1d');"/></g><polyline points="1208,335 1323,335 " class="djs-hit" style="fill: none; stroke-opacity: 0; stroke: white; stroke-width: 15px;"/><rect x="1202" y="329" width="127" height="12" class="djs-outline" style="fill: none;"/></g></g><g class="djs-group"><g class="djs-element djs-connection" data-element-id="connection_34" style="display: block;"><g class="djs-visual"><polyline points="1323,359 1191,443 " style="stroke: rgb(0, 0, 0); fill: none; stroke-width: 1.5px; stroke-linejoin: round; marker-end: url('#activity-black-#000000-1r08uhrzsgzvo6dwe8bowcn1d');"/><text lineHeight="1.2" wordWrap="break-word" overflowWrap="break-word" hyphens="auto" class="djs-label" style="font-family: Arial, sans-serif; font-size: 11px; font-weight: normal; fill: black;"><tspan x="1272.8039551272693" y="405.17626923638386">generates</tspan></text><text lineHeight="1.2" position="absolute" class="djs-labelNumber" style="font-family: Courier; font-size: 150px; font-weight: normal; fill: rgb(66, 174, 187);"><tspan x="1207.8039551272693" y="386.17626923638386">.</tspan></text><text lineHeight="1.2" backgroundColor="green" position="absolute" class="djs-labelNumber" style="font-family: Arial, sans-serif; font-size: 11px; font-weight: normal; fill: black;"><tspan x="1246.8039551272693" y="381.17626923638386">06</tspan></text></g><polyline points="1323,359 1191,443 " class="djs-hit" style="fill: none; stroke-opacity: 0; stroke: white; stroke-width: 15px;"/><rect x="1185" y="353" width="144" height="96" class="djs-outline" style="fill: none;"/></g></g><g class="djs-group"><g class="djs-element djs-connection" data-element-id="connection_4229" style="display: block;"><g class="djs-visual"><polyline points="1127,443 924,360 " style="stroke: rgb(0, 0, 0); fill: none; stroke-width: 1.5px; stroke-linejoin: round; marker-end: url('#activity-black-#000000-1r08uhrzsgzvo6dwe8bowcn1d');"/></g><polyline points="1127,443 924,360 " class="djs-hit" style="fill: none; stroke-opacity: 0; stroke: white; stroke-width: 15px;"/><rect x="918" y="354" width="215" height="95" class="djs-outline" style="fill: none;"/></g></g><g class="djs-group"><g class="djs-element djs-connection" data-element-id="connection_426" style="display: block;"><g class="djs-visual"><polyline points="889,382 864,531 760,531 " style="stroke: rgb(0, 0, 0); fill: none; stroke-width: 1.5px; stroke-linejoin: round; marker-end: url('#activity-black-#000000-1r08uhrzsgzvo6dwe8bowcn1d');"/><text lineHeight="1.2" wordWrap="break-word" overflowWrap="break-word" hyphens="auto" class="djs-label" style="font-family: Arial, sans-serif; font-size: 11px; font-weight: normal; fill: black;"><tspan x="793.25" y="546">tells</tspan></text><text lineHeight="1.2" position="absolute" class="djs-labelNumber" style="font-family: Courier; font-size: 150px; font-weight: normal; fill: rgb(66, 174, 187);"><tspan x="761" y="527">.</tspan></text><text lineHeight="1.2" backgroundColor="green" position="absolute" class="djs-labelNumber" style="font-family: Arial, sans-serif; font-size: 11px; font-weight: normal; fill: black;"><tspan x="800" y="522">07</tspan></text></g><polyline points="889,382 864,531 760,531 " class="djs-hit" style="fill: none; stroke-opacity: 0; stroke: white; stroke-width: 15px;"/><rect x="754" y="376" width="141" height="161" class="djs-outline" style="fill: none;"/></g></g><g class="djs-group"><g class="djs-element djs-connection" data-element-id="connection_8781" style="display: block;"><g class="djs-visual"><polyline points="680,531 575,531 517,366 " style="stroke: rgb(0, 0, 0); fill: none; stroke-width: 1.5px; stroke-linejoin: round; marker-end: url('#activity-black-#000000-1r08uhrzsgzvo6dwe8bowcn1d');"/></g><polyline points="680,531 575,531 517,366 " class="djs-hit" style="fill: none; stroke-opacity: 0; stroke: white; stroke-width: 15px;"/><rect x="511" y="360" width="175" height="177" class="djs-outline" style="fill: none;"/></g></g></svg>